<svg width="1075" height="585" viewBox="0 0 1075 585" fill="none" xmlns="http://www.w3.org/2000/svg">
<g clip-path="url(#clip0)">
<path d="M540.643 584.231C831.973 584.231 1068.14 568.596 1068.14 549.309C1068.14 530.023 831.973 514.388 540.643 514.388C249.312 514.388 13.1426 530.023 13.1426 549.309C13.1426 568.596 249.312 584.231 540.643 584.231Z" fill="#F2F2F2"/>
<path d="M520.426 167.01C434.482 167.01 372.775 222.149 372.775 350.808C372.775 496.621 434.482 535.218 520.426 535.218C606.37 535.218 671.753 492.945 671.753 350.808C671.753 198.868 606.37 167.01 520.426 167.01ZM520.991 486.818C461.464 486.818 430.365 451.895 430.365 350.902C430.365 261.79 462.738 214.797 522.264 214.797C581.791 214.797 614.163 245.665 614.163 350.902C614.163 449.349 580.518 486.818 520.991 486.818Z" fill="#2F2E41"/>
<path d="M848.651 165C762.707 165 701 220.139 701 348.798C701 494.611 762.707 533.208 848.651 533.208C934.595 533.208 999.978 490.935 999.978 348.798C999.978 196.858 934.595 165 848.651 165ZM849.216 484.808C789.689 484.808 758.59 449.886 758.59 348.892C758.59 259.78 790.962 212.787 850.489 212.787C910.016 212.787 942.388 243.655 942.388 348.892C942.388 447.339 908.743 484.808 849.216 484.808Z" fill="#2F2E41"/>
<path d="M540.03 155.982C454.086 155.982 392.379 211.121 392.379 339.78C392.379 485.593 454.086 524.19 540.03 524.19C625.974 524.19 691.357 481.917 691.357 339.78C691.357 187.84 625.974 155.982 540.03 155.982ZM540.595 475.79C481.068 475.79 449.969 440.867 449.969 339.874C449.969 250.762 482.341 203.769 541.868 203.769C601.395 203.769 633.767 234.637 633.767 339.874C633.767 438.321 600.122 475.79 540.595 475.79V475.79Z" stroke="#3F3D56" stroke-miterlimit="10"/>
<path d="M871.651 152C785.707 152 724 207.139 724 335.798C724 481.611 785.707 520.208 871.651 520.208C957.595 520.208 1022.98 477.935 1022.98 335.798C1022.98 183.858 957.595 152 871.651 152ZM872.216 471.808C812.689 471.808 781.59 436.886 781.59 335.892C781.59 246.78 813.962 199.787 873.489 199.787C933.016 199.787 965.388 230.655 965.388 335.892C965.388 434.339 931.743 471.808 872.216 471.808V471.808Z" stroke="#3F3D56" stroke-miterlimit="10"/>
<path d="M471.141 31.1515C478.267 31.1515 484.043 25.3754 484.043 18.2503C484.043 11.1252 478.267 5.34912 471.141 5.34912C464.016 5.34912 458.24 11.1252 458.24 18.2503C458.24 25.3754 464.016 31.1515 471.141 31.1515Z" fill="#2F2E41"/>
<path d="M502.608 93.7695C522.593 93.7695 538.794 72.7785 538.794 46.8848C538.794 20.991 522.593 0 502.608 0C482.623 0 466.422 20.991 466.422 46.8848C466.422 72.7785 482.623 93.7695 502.608 93.7695Z" fill="#2F2E41"/>
<path opacity="0.1" d="M502.608 79.6095C484.48 79.6095 469.467 62.339 466.832 39.8047C466.558 42.1547 466.421 44.5187 466.422 46.8846C466.422 72.7783 482.623 93.7694 502.608 93.7694C522.593 93.7694 538.794 72.7784 538.794 46.8846C538.795 44.5187 538.658 42.1547 538.384 39.8047C535.749 62.339 520.736 79.6095 502.608 79.6095Z" fill="black"/>
<path d="M576.243 184.189C575.466 187.382 572.115 189.94 568.404 191.727C560.602 195.484 550.979 196.605 541.644 196.981C539.263 197.126 536.874 197.082 534.5 196.849C529.899 196.404 525.583 194.42 522.249 191.218C522.011 191.063 521.817 190.85 521.683 190.599C521.55 190.348 521.482 190.068 521.487 189.784C521.491 189.5 521.567 189.221 521.708 188.975C521.849 188.728 522.05 188.521 522.293 188.374C527.263 182.915 535.555 179.568 543.909 177.158C550.244 175.33 561.291 170.597 568.199 171.236C574.891 171.854 577.224 180.157 576.243 184.189Z" fill="#3F3D56"/>
<path opacity="0.1" d="M576.243 184.189C575.466 187.382 572.115 189.94 568.404 191.727C560.602 195.484 550.979 196.605 541.644 196.981C539.263 197.126 536.874 197.082 534.5 196.849C529.899 196.404 525.583 194.42 522.249 191.218C522.011 191.063 521.817 190.85 521.683 190.599C521.55 190.348 521.482 190.068 521.487 189.784C521.491 189.5 521.567 189.221 521.708 188.975C521.849 188.728 522.05 188.521 522.293 188.374C527.263 182.915 535.555 179.568 543.909 177.158C550.244 175.33 561.291 170.597 568.199 171.236C574.891 171.854 577.224 180.157 576.243 184.189Z" fill="black"/>
<path d="M477.045 160.322C474.663 164.989 474.232 170.411 475.846 175.396C477.488 180.344 480.56 184.693 484.675 187.893C494.77 195.985 508.663 197.098 521.6 196.986C532.938 196.887 544.26 196.111 555.505 194.662C559.274 194.328 562.977 193.468 566.507 192.108C570.729 190.281 574.44 186.93 575.943 182.582C577.446 178.234 576.379 172.909 572.809 170.008C569.672 167.458 565.346 167.107 561.311 166.865L538.223 165.477C540.504 163.169 543.542 161.863 546.319 160.185C550.004 157.959 552.453 154.221 555.132 150.85C559.261 145.916 563.753 141.298 568.571 137.033C569.322 141.344 572.049 144.883 575.258 147.857C578.467 150.832 582.167 153.226 585.502 156.058C593.581 162.916 599.398 172.224 607.894 178.558C613.739 177.022 619.203 174.294 623.943 170.546L620.641 164.564C620.366 163.949 619.937 163.414 619.396 163.012C618.462 162.437 617.257 162.733 616.171 162.57C613.27 162.135 612.004 158.786 610.865 156.083C607.74 148.661 601.757 142.903 596.648 136.679C592.876 132.085 589.53 127.157 586.652 121.956C584.935 118.854 583.364 115.625 581.034 112.953C578.705 110.281 575.441 108.18 571.896 108.172C568.764 108.166 565.875 109.756 563.182 111.355C554.979 116.228 547.087 121.604 539.551 127.454C535.608 130.516 531.688 133.751 527.062 135.628C525.115 136.419 523.062 136.959 521.193 137.921C517.92 139.605 515.436 142.455 512.762 144.985C503.224 154.008 490.166 159.854 477.045 160.322Z" fill="#3F3D56"/>
<path d="M525.32 96.0978C525.213 98.856 524.626 101.574 523.586 104.131C523.059 105.406 522.275 106.559 521.283 107.518C520.291 108.477 519.111 109.221 517.819 109.704C515.983 110.196 514.059 110.258 512.196 109.886C510.571 109.717 509.005 109.183 507.614 108.326C505.449 106.837 504.37 104.182 503.977 101.582C503.583 98.9864 503.76 96.3338 503.508 93.719C503.263 91.6069 502.861 89.516 502.306 87.4635C502.136 86.7807 501.963 86.101 501.793 85.4214C501.626 84.7417 501.463 84.062 501.312 83.3823C501.173 82.7436 501.044 82.1017 500.934 81.4566C500.843 80.9122 500.761 80.3647 500.701 79.8141C500.646 78.1816 500.374 76.5637 499.892 75.0029C499.44 73.9906 498.874 73.0331 498.206 72.1489C497.919 71.7398 497.643 71.3308 497.388 70.906C496.65 69.802 496.308 68.4814 496.415 67.1583C496.446 66.9538 496.495 66.7526 496.563 66.5573C496.588 66.4818 496.617 66.4063 496.648 66.3339C496.931 66.2571 497.191 66.1123 497.406 65.9121C497.62 65.7119 497.782 65.4625 497.879 65.1853C497.987 64.5901 497.936 63.9767 497.731 63.4075C497.496 62.6121 497.174 61.845 496.771 61.1199C496.507 60.6416 495.61 59.7794 495.604 59.2319C495.591 58.1306 497.743 57.2432 498.615 56.809C501.275 55.4767 504.242 54.8751 507.211 55.0658C509.115 55.1948 511.179 55.78 512.23 57.3754C513.174 58.8134 513.048 60.6762 513.451 62.3471C513.494 62.5899 513.596 62.8182 513.75 63.011C513.956 63.1981 514.214 63.3168 514.49 63.3508C514.956 63.4435 515.434 63.4627 515.906 63.4075H515.909C516.034 63.3976 516.158 63.3797 516.28 63.354C517.015 63.2183 517.71 62.9182 518.313 62.4761C518.703 62.3722 519.096 62.2873 519.493 62.2212C519.509 62.2196 519.525 62.2164 519.54 62.2117C521.116 67.1866 521.321 72.5201 522.611 77.5862C523.25 80.1066 524.166 82.5956 524.295 85.1884C524.304 85.3017 524.307 85.4181 524.31 85.5345C524.329 86.3684 524.263 87.2085 524.298 88.0393C524.31 88.4133 524.352 88.7858 524.424 89.1532C524.565 89.744 524.74 90.326 524.949 90.8964L524.958 90.9247C525.018 91.1072 525.075 91.2929 525.122 91.4785C525.157 91.6138 525.188 91.746 525.213 91.8813L525.217 91.8907C525.449 93.2812 525.484 94.6976 525.32 96.0978V96.0978Z" fill="#FBBEBE"/>
<path d="M503.237 63.5619C513.49 63.5619 521.802 55.25 521.802 44.9968C521.802 34.7435 513.49 26.4316 503.237 26.4316C492.984 26.4316 484.672 34.7435 484.672 44.9968C484.672 55.25 492.984 63.5619 503.237 63.5619Z" fill="#FBBEBE"/>
<path d="M621.104 146.148C620.566 141.083 618.765 136.234 615.868 132.045C616.349 134.909 616.832 137.771 617.315 140.632C616.714 140.806 616.076 140.801 615.477 140.617C614.879 140.433 614.348 140.079 613.948 139.597C613.167 138.621 612.569 137.511 612.183 136.321C610.074 131.085 607.316 126.135 603.974 121.586C592.155 120.601 580.471 115.702 570.078 109.99C559.682 104.282 549.952 97.4386 539.694 91.4883C537.916 90.4133 536.063 89.4669 534.15 88.6563C530.94 87.3693 527.338 86.7023 524.295 85.1887C524.09 85.088 523.886 84.9811 523.684 84.8709C522.997 84.4971 522.346 84.0599 521.74 83.5651C521.412 83.299 521.101 83.0132 520.808 82.7092C519.29 80.943 518.086 78.9293 517.249 76.7558C515.616 73.1435 515.034 68.7854 513.404 65.173C514.153 64.4729 514.995 63.8789 515.906 63.4078H515.909C516.041 63.3385 516.173 63.2725 516.309 63.2095C516.953 62.9058 517.624 62.6604 518.313 62.4764C518.703 62.3725 519.097 62.2876 519.493 62.2215C519.509 62.2199 519.525 62.2167 519.54 62.212C521.379 61.9125 523.262 62.0615 525.031 62.6463C527.618 63.521 529.798 65.2674 531.973 66.9194C535.505 69.408 538.893 72.0953 542.12 74.9685C543.914 76.6865 545.55 78.5745 547.479 80.1352C549.082 81.3723 550.772 82.4923 552.536 83.4864C562.973 89.7041 573.412 95.9208 583.851 102.136C587.385 104.242 590.921 106.347 594.377 108.574C599.625 111.96 604.685 115.629 609.741 119.295C612.721 121.454 615.7 123.613 618.678 125.774C619.655 126.397 620.513 127.19 621.211 128.115C621.828 129.165 622.211 130.336 622.334 131.548C623.082 136.444 622.66 141.447 621.104 146.148V146.148Z" fill="#FBBEBE"/>
<path d="M529.923 110.06C528.671 115.677 522.994 119.072 520.027 124.006C516.339 130.129 517.843 137.247 519.228 144.261C516.698 146.441 514.167 148.622 511.635 150.802C510.238 152.001 508.841 153.206 507.337 154.267C505.144 155.736 502.852 157.053 500.477 158.206C498.237 159.358 495.996 160.511 493.756 161.665C491.673 162.836 489.466 163.771 487.176 164.452C482.762 165.585 478.073 164.792 473.706 163.48C473.191 163.345 472.695 163.143 472.233 162.879C471.961 162.717 471.723 162.502 471.535 162.247C471.104 161.475 470.947 160.58 471.091 159.707C471.534 152.357 473.331 145.16 475.122 138.018C476.079 133.732 477.365 129.528 478.97 125.441C480.544 121.939 482.353 118.547 484.385 115.29C486.628 111.191 489.285 107.333 492.315 103.776C493.79 102.407 495.031 100.806 495.99 99.0372C497.107 96.4884 496.676 93.5652 496.903 90.7899C497.076 88.7047 497.629 86.6689 498.536 84.783V84.7798C499.02 83.764 499.604 82.7985 500.279 81.8975C500.584 82.6086 500.889 83.3187 501.195 84.0278C501.396 84.4935 501.595 84.9582 501.792 85.4218C502.05 86.0196 502.306 86.6154 502.56 87.2091C503.293 88.9145 504.026 90.619 504.757 92.3223C505.547 94.4678 506.672 96.4741 508.092 98.2663C508.741 99.1841 509.617 99.9178 510.634 100.396C511.651 100.874 512.775 101.08 513.895 100.994C515.016 100.908 516.095 100.533 517.028 99.9058C517.96 99.2782 518.714 98.4195 519.215 97.4136C520.273 95.5359 521.039 93.5083 521.487 91.4004C522.109 88.8337 522.194 86.1665 521.739 83.5653C520.981 78.5558 518.85 73.4394 517.302 68.7856C516.672 67.2338 516.307 65.5872 516.223 63.9146C516.226 63.7266 516.245 63.5392 516.279 63.3545C516.289 63.3073 516.298 63.2569 516.308 63.2097C516.953 62.906 517.624 62.6606 518.312 62.4766C518.702 62.3727 519.096 62.2878 519.492 62.2217C520.855 69.5974 522.219 76.9731 523.586 84.3488C523.618 84.5218 523.652 84.6949 523.684 84.8711C523.879 85.9284 524.077 86.9857 524.297 88.0398C524.495 88.9963 524.709 89.9498 524.949 90.8969L524.958 90.9252C525.04 91.2462 525.125 91.564 525.213 91.8818L525.216 91.8912C525.458 92.7597 525.729 93.6219 526.034 94.4715C527.884 99.591 531.11 104.745 529.923 110.06Z" fill="#FF5C00"/>
<path d="M605.267 188.993C605.209 190.075 605.419 191.154 605.877 192.136C607.039 194.26 609.827 194.742 612.24 194.941C626.332 196.099 640.51 195.667 654.505 193.653C655.265 193.601 656.001 193.372 656.657 192.985C658.647 191.59 657.42 188.19 655.247 187.102C653.074 186.013 650.496 186.276 648.112 185.804C645.743 185.208 643.488 184.23 641.434 182.908C636.599 180.13 631.835 177.234 627.141 174.22C624.346 172.426 621.048 170.51 617.901 171.574C609.376 174.458 605.211 179.796 605.267 188.993Z" fill="#3F3D56"/>
<path d="M501.384 82.9891V82.9923C501.362 83.1244 501.34 83.2534 501.312 83.3825C501.277 83.5965 501.236 83.8135 501.195 84.0275C500.805 86.0256 500.327 88.0142 499.776 89.9903C498.266 95.4497 496.243 100.821 494.235 106.114C488.848 120.305 483.46 134.497 478.071 148.691C476.711 152.265 475.355 155.843 473.81 159.345C473.294 160.513 472.762 161.689 472.234 162.879C470.339 167.136 468.521 171.532 467.917 176.063C467.353 179.045 467.288 182.1 467.725 185.103C468.329 188.074 470.132 190.975 472.954 192.073C474.333 192.611 476.305 193.332 475.928 194.764C475.723 195.55 474.83 195.934 474.027 196.066C472.968 196.235 471.884 196.169 470.853 195.872C469.822 195.575 468.869 195.055 468.061 194.348C466.554 193.011 465.396 190.931 463.392 190.708C462.004 190.557 460.726 191.387 459.455 191.969C454.27 194.339 448.228 192.681 442.781 190.997C443.209 188.791 445.424 187.338 447.624 186.897C449.823 186.453 452.098 186.768 454.342 186.708C455.06 186.747 455.773 186.563 456.384 186.183C456.932 185.68 457.315 185.025 457.485 184.301C458.931 180.019 460.005 175.621 460.698 171.154C461.422 166.488 461.724 161.749 462.756 157.139C463.558 153.543 464.798 150.059 465.862 146.529C467.918 139.26 469.607 131.892 470.922 124.452C471.586 121.361 472.062 118.233 472.347 115.085C472.526 112.473 472.441 109.849 472.693 107.246C473.116 103.861 473.822 100.517 474.804 97.2496C475.767 93.6845 476.729 90.1215 477.69 86.5605C479.115 81.2899 480.645 75.8148 484.257 71.7179C485.512 70.2756 487.049 69.1063 488.774 68.2825C490.499 67.4587 492.375 66.9979 494.285 66.9287C495.002 66.9278 495.716 67.0049 496.415 67.1584C496.532 67.1867 496.648 67.215 496.765 67.2465C497.527 67.4458 498.259 67.7487 498.939 68.1465C500.053 67.4385 500.619 67.687 501.359 68.7789C502.007 69.9345 502.313 71.2508 502.24 72.5738C502.302 76.0654 502.016 79.5545 501.384 82.9891Z" fill="#FBBEBE"/>
<path d="M502.608 87.1618L502.561 87.209L502.306 87.4639L499.776 89.9906L498.536 84.7829L494.285 66.9289C495.001 66.9281 495.716 67.0051 496.415 67.1586C496.446 66.9541 496.495 66.7529 496.563 66.5576L496.765 67.2467L498.206 72.1492L500.934 81.4569L501.384 82.9893V82.9925L502.608 87.1618Z" fill="#FF5C00"/>
<path d="M518.661 30.2027C518.659 31.8559 518.331 33.4925 517.696 35.0189C517.062 36.5453 516.132 37.9316 514.961 39.0985C514.537 39.5233 514.082 39.9164 513.601 40.2749C511.43 41.9118 508.785 42.7978 506.065 42.799H490.969C487.633 42.7939 484.436 41.4651 482.079 39.1046C479.722 36.744 478.398 33.5446 478.398 30.2088C478.398 26.8731 479.722 23.6737 482.079 21.3131C484.436 18.9525 487.633 17.6238 490.969 17.6187H506.065C509.401 17.6273 512.598 18.9556 514.958 21.3133C517.318 23.671 518.65 26.8668 518.661 30.2027V30.2027Z" fill="#2F2E41"/>
<path d="M532.815 31.1515C539.94 31.1515 545.716 25.3754 545.716 18.2503C545.716 11.1252 539.94 5.34912 532.815 5.34912C525.69 5.34912 519.914 11.1252 519.914 18.2503C519.914 25.3754 525.69 31.1515 532.815 31.1515Z" fill="#2F2E41"/>
<path opacity="0.1" d="M532.499 5.34912C532.341 5.34912 532.184 5.3554 532.027 5.36105C535.365 5.48238 538.525 6.89347 540.843 9.29741C543.161 11.7014 544.456 14.9107 544.456 18.2503C544.456 21.5899 543.161 24.7992 540.843 27.2032C538.525 29.6071 535.365 31.0182 532.027 31.1395C532.184 31.1452 532.341 31.1515 532.499 31.1515C535.921 31.1515 539.202 29.7922 541.622 27.3728C544.041 24.9534 545.401 21.6719 545.401 18.2503C545.401 14.8287 544.041 11.5472 541.622 9.12779C539.202 6.70835 535.921 5.34912 532.499 5.34912V5.34912Z" fill="black"/>
<path opacity="0.1" d="M471.142 5.34912C471.3 5.34912 471.457 5.3554 471.614 5.36105C468.276 5.48238 465.116 6.89347 462.798 9.29741C460.48 11.7014 459.185 14.9107 459.185 18.2503C459.185 21.5899 460.48 24.7992 462.798 27.2032C465.116 29.6071 468.276 31.0182 471.614 31.1395C471.457 31.1452 471.3 31.1515 471.142 31.1515C467.722 31.1485 464.444 29.7879 462.027 27.3688C459.61 24.9497 458.252 21.6699 458.252 18.2503C458.252 14.8307 459.61 11.5509 462.027 9.13181C464.444 6.71269 467.722 5.35213 471.142 5.34912Z" fill="black"/>
<path opacity="0.1" d="M513.601 40.2749C511.43 41.9118 508.785 42.7978 506.065 42.7991H490.969C488.25 42.7978 485.605 41.9118 483.434 40.2749H513.601Z" fill="black"/>
<path d="M611.086 133.756C611.086 133.756 614.338 143.127 617.315 140.632L614.942 128.382L611.086 133.756Z" fill="#FBBEBE"/>
<path d="M1006.86 419.55C1009.89 420.651 1013.14 421.034 1016.34 420.668C1019.54 420.301 1022.61 419.196 1025.32 417.44C1028.02 415.683 1030.28 413.323 1031.91 410.545C1033.55 407.767 1034.51 404.647 1034.74 401.431C1034.96 398.216 1034.43 394.993 1033.2 392.015C1031.96 389.038 1030.05 386.388 1027.62 384.275C1025.19 382.162 1022.29 380.642 1019.17 379.837C1016.05 379.032 1012.79 378.963 1009.63 379.635L1010.16 390.347L1005.09 381.166C1000.11 383.504 996.27 387.72 994.404 392.889C993.741 394.7 993.337 396.595 993.206 398.519C992.886 403.032 994.047 407.527 996.511 411.322C998.975 415.118 1002.61 418.006 1006.86 419.55V419.55Z" fill="#57B894"/>
<path d="M1031.94 543.793C1030.15 534.683 1037.9 526.606 1045.56 521.357C1053.22 516.107 1062.17 510.949 1064.78 502.04C1068.53 489.236 1057.35 477.51 1048.64 467.398C1042.18 459.894 1036.64 451.651 1032.12 442.841C1030.31 439.308 1028.64 435.615 1028.17 431.674C1027.48 425.999 1029.3 420.351 1031.14 414.938C1037.26 396.903 1043.8 379.02 1050.77 361.288" stroke="#3F3D56" stroke-miterlimit="10"/>
<path d="M1007.72 416.792C1010.75 417.893 1013.99 418.275 1017.2 417.909C1020.4 417.543 1023.47 416.438 1026.17 414.681C1028.88 412.925 1031.13 410.564 1032.77 407.786C1034.4 405.008 1035.37 401.889 1035.59 398.673C1035.82 395.458 1035.29 392.234 1034.06 389.257C1032.82 386.28 1030.91 383.63 1028.48 381.517C1026.04 379.403 1023.15 377.884 1020.03 377.079C1016.91 376.274 1013.64 376.204 1010.49 376.876L1011.01 387.588L1005.94 378.408C1000.97 380.745 997.128 384.962 995.261 390.131C994.598 391.941 994.195 393.837 994.064 395.761C993.744 400.274 994.904 404.769 997.368 408.564C999.833 412.359 1003.47 415.248 1007.72 416.792V416.792Z" stroke="#3F3D56" stroke-miterlimit="10"/>
<path d="M1029.4 357.588C1030.59 354.308 1032.58 351.38 1035.2 349.074C1037.82 346.767 1040.97 345.157 1044.38 344.391L1046.09 354.575L1049.27 343.879C1053.68 343.944 1057.95 345.41 1061.48 348.064C1065 350.718 1067.59 354.424 1068.87 358.645C1070.15 362.867 1070.06 367.386 1068.6 371.551C1067.15 375.716 1064.41 379.31 1060.78 381.815C1057.15 384.321 1052.81 385.607 1048.4 385.489C1043.99 385.371 1039.73 383.855 1036.24 381.159C1032.75 378.463 1030.2 374.727 1028.97 370.49C1027.74 366.253 1027.89 361.735 1029.4 357.588H1029.4Z" fill="#57B894"/>
<path d="M1030.54 353.911C1031.73 350.631 1033.73 347.702 1036.34 345.396C1038.96 343.09 1042.12 341.479 1045.52 340.713L1047.23 350.897L1050.41 340.201C1054.82 340.267 1059.1 341.732 1062.62 344.386C1066.15 347.04 1068.74 350.746 1070.02 354.967C1071.3 359.189 1071.2 363.708 1069.75 367.873C1068.29 372.038 1065.55 375.632 1061.92 378.138C1058.29 380.643 1053.96 381.93 1049.55 381.811C1045.14 381.693 1040.88 380.177 1037.39 377.481C1033.89 374.785 1031.35 371.049 1030.12 366.812C1028.89 362.576 1029.04 358.058 1030.54 353.911H1030.54Z" stroke="#3F3D56" stroke-miterlimit="10"/>
<path d="M1044.99 467.604C1049.8 469.347 1055.07 469.261 1059.82 467.362C1064.56 465.464 1068.44 461.886 1070.72 457.311C1073 452.735 1073.51 447.482 1072.16 442.553C1070.81 437.623 1067.7 433.362 1063.41 430.581L1060.97 438.801L1059.24 428.497C1059.22 428.489 1059.2 428.482 1059.19 428.477C1056.62 427.543 1053.89 427.125 1051.16 427.245C1048.42 427.366 1045.74 428.024 1043.27 429.182C1040.79 430.339 1038.57 431.973 1036.72 433.991C1034.88 436.008 1033.45 438.369 1032.51 440.939C1031.58 443.509 1031.16 446.238 1031.29 448.969C1031.41 451.701 1032.07 454.381 1033.23 456.857C1034.39 459.333 1036.02 461.557 1038.04 463.401C1040.06 465.245 1042.42 466.673 1044.99 467.604H1044.99Z" fill="#57B894"/>
<path d="M1045.98 463.88C1050.79 465.622 1056.06 465.536 1060.81 463.638C1065.55 461.739 1069.43 458.162 1071.71 453.586C1073.99 449.011 1074.5 443.758 1073.15 438.828C1071.8 433.899 1068.69 429.637 1064.4 426.857L1061.96 435.076L1060.23 424.772C1060.21 424.764 1060.19 424.757 1060.18 424.752C1057.61 423.818 1054.88 423.4 1052.15 423.521C1049.41 423.642 1046.73 424.3 1044.26 425.457C1041.78 426.614 1039.56 428.249 1037.71 430.266C1035.87 432.283 1034.44 434.645 1033.5 437.215C1032.57 439.785 1032.15 442.513 1032.28 445.245C1032.4 447.976 1033.06 450.656 1034.22 453.133C1035.38 455.609 1037.01 457.833 1039.03 459.677C1041.05 461.521 1043.41 462.949 1045.98 463.88H1045.98Z" stroke="#3F3D56" stroke-miterlimit="10"/>
<path d="M1023.32 502.167C1024.15 506.868 1026.57 511.141 1030.17 514.271C1033.77 517.4 1038.34 519.196 1043.11 519.357C1047.88 519.517 1052.56 518.033 1056.37 515.153C1060.17 512.273 1062.87 508.172 1064.01 503.538C1065.15 498.904 1064.66 494.019 1062.63 489.701C1060.59 485.384 1057.14 481.898 1052.84 479.827C1048.54 477.756 1043.66 477.226 1039.01 478.326C1034.37 479.426 1030.25 482.09 1027.33 485.87L1036.61 499.827L1023.94 492.419C1022.95 495.572 1022.74 498.916 1023.32 502.167V502.167Z" fill="#57B894"/>
<path d="M1024.18 499.409C1025.01 504.109 1027.42 508.382 1031.03 511.512C1034.63 514.641 1039.2 516.437 1043.97 516.598C1048.74 516.758 1053.42 515.274 1057.22 512.394C1061.03 509.514 1063.73 505.413 1064.87 500.779C1066.01 496.145 1065.52 491.26 1063.49 486.943C1061.45 482.626 1058 479.139 1053.7 477.068C1049.4 474.997 1044.52 474.467 1039.87 475.567C1035.23 476.668 1031.1 479.331 1028.19 483.111L1037.46 497.068L1024.79 489.66C1023.81 492.814 1023.6 496.157 1024.18 499.409V499.409Z" stroke="#3F3D56" stroke-miterlimit="10"/>
<path d="M9.00672 470.249C10.997 470.972 13.1282 471.224 15.2322 470.983C17.3362 470.742 19.3556 470.016 21.1312 468.862C22.9068 467.708 24.39 466.157 25.464 464.332C26.538 462.507 27.1734 460.457 27.3201 458.345C27.4668 456.232 27.1208 454.114 26.3094 452.158C25.498 450.202 24.2433 448.461 22.6442 447.072C21.0452 445.684 19.1455 444.686 17.0949 444.157C15.0444 443.628 12.8989 443.582 10.8277 444.024L11.17 451.062L7.84012 445.03C4.57204 446.566 2.04732 449.336 0.820762 452.732C0.38516 453.922 0.120346 455.167 0.0342206 456.431C-0.175962 459.396 0.586246 462.35 2.20534 464.843C3.82443 467.337 6.21217 469.234 9.00672 470.249V470.249Z" fill="#57B894"/>
<path d="M25.4842 551.879C24.3088 545.894 29.4022 540.587 34.4334 537.138C39.4645 533.689 45.3432 530.3 47.0598 524.446C49.5269 516.034 42.1781 508.33 36.4584 501.686C32.2149 496.756 28.5707 491.34 25.6021 485.552C24.3115 483.278 23.4324 480.794 23.0054 478.215C22.5544 474.486 23.7524 470.776 24.9593 467.219C28.9799 455.37 33.2787 443.62 37.8555 431.97" stroke="#3F3D56" stroke-miterlimit="10"/>
<path d="M9.57119 468.437C11.5615 469.16 13.6926 469.412 15.7967 469.171C17.9007 468.93 19.9201 468.204 21.6956 467.05C23.4712 465.896 24.9545 464.345 26.0285 462.52C27.1025 460.695 27.7378 458.645 27.8845 456.533C28.0312 454.42 27.6852 452.302 26.8738 450.346C26.0624 448.39 24.8077 446.649 23.2087 445.26C21.6097 443.872 19.71 442.874 17.6594 442.345C15.6088 441.816 13.4634 441.77 11.3922 442.212L11.7345 449.25L8.40458 443.218C5.1365 444.754 2.61177 447.524 1.38522 450.92C0.949618 452.11 0.684808 453.355 0.598678 454.619C0.388481 457.584 1.15068 460.538 2.76978 463.031C4.38888 465.525 6.77662 467.422 9.57119 468.437V468.437Z" stroke="#3F3D56" stroke-miterlimit="10"/>
<path d="M23.8121 429.539C24.5932 427.384 25.9041 425.46 27.6241 423.945C29.3441 422.429 31.4179 421.371 33.6542 420.868L34.7801 427.559L36.8675 420.532C39.7656 420.575 42.5752 421.538 44.8905 423.281C47.2057 425.025 48.9069 427.46 49.7484 430.233C50.5898 433.007 50.5281 435.976 49.572 438.713C48.6159 441.449 46.815 443.811 44.4292 445.457C42.0435 447.103 39.1963 447.948 36.2989 447.87C33.4014 447.793 30.6035 446.796 28.3092 445.025C26.015 443.254 24.343 440.799 23.5346 438.016C22.7263 435.232 22.8235 432.264 23.8121 429.539V429.539Z" fill="#57B894"/>
<path d="M24.5641 427.123C25.3452 424.968 26.6561 423.044 28.3761 421.529C30.0961 420.013 32.1698 418.955 34.4062 418.452L35.5321 425.143L37.6194 418.116C40.5176 418.159 43.3271 419.122 45.6424 420.865C47.9577 422.609 49.6588 425.044 50.5003 427.817C51.3418 430.591 51.28 433.56 50.324 436.297C49.3679 439.033 47.5669 441.395 45.1812 443.041C42.7954 444.687 39.9483 445.532 37.0508 445.454C34.1533 445.377 31.3555 444.38 29.0612 442.609C26.7669 440.838 25.0949 438.383 24.2866 435.6C23.4782 432.816 23.5754 429.848 24.5641 427.123V427.123Z" stroke="#3F3D56" stroke-miterlimit="10"/>
<path d="M34.0576 501.822C37.214 502.967 40.6813 502.91 43.7987 501.663C46.9162 500.416 49.4656 498.065 50.9612 495.059C52.4568 492.052 52.7939 488.601 51.9083 485.362C51.0227 482.124 48.9763 479.324 46.1592 477.497L44.5553 482.897L43.418 476.127C43.4067 476.122 43.3951 476.118 43.3832 476.114C41.6948 475.5 39.9021 475.225 38.1073 475.304C36.3126 475.384 34.551 475.816 32.9234 476.576C31.2957 477.336 29.8338 478.41 28.6213 479.736C27.4088 481.061 26.4693 482.613 25.8567 484.302C25.2441 485.99 24.9703 487.783 25.0509 489.578C25.1315 491.373 25.565 493.134 26.3266 494.761C27.0882 496.388 28.163 497.849 29.4895 499.061C30.816 500.272 32.3683 501.21 34.0576 501.822V501.822Z" fill="#57B894"/>
<path d="M34.7078 499.375C37.8642 500.52 41.3315 500.463 44.4489 499.216C47.5663 497.969 50.1158 495.618 51.6114 492.612C53.107 489.606 53.4441 486.154 52.5585 482.915C51.6729 479.677 49.6265 476.877 46.8094 475.05L45.2055 480.45L44.0682 473.68C44.0569 473.675 44.0453 473.671 44.0334 473.667C42.3454 473.055 40.5533 472.781 38.7595 472.861C36.9657 472.942 35.2053 473.374 33.5787 474.135C30.2938 475.671 27.7535 478.449 26.5169 481.858C25.2802 485.267 25.4484 489.028 26.9845 492.313C28.5206 495.598 31.2988 498.138 34.7078 499.375V499.375Z" stroke="#3F3D56" stroke-miterlimit="10"/>
<path d="M19.8214 524.53C20.3641 527.618 21.9521 530.425 24.3192 532.481C26.6862 534.538 29.6883 535.717 32.822 535.823C35.9556 535.929 39.0303 534.953 41.5303 533.061C44.0303 531.169 45.8036 528.474 46.5529 525.43C47.3021 522.385 46.9817 519.175 45.6453 516.339C44.309 513.503 42.038 511.212 39.2132 509.851C36.3885 508.491 33.1817 508.142 30.1308 508.865C27.0798 509.588 24.3702 511.338 22.4564 513.822L28.5487 522.992L20.2243 518.125C19.5789 520.196 19.4407 522.393 19.8214 524.53V524.53Z" fill="#57B894"/>
<path d="M20.3858 522.718C20.9286 525.806 22.5166 528.614 24.8836 530.67C27.2507 532.726 30.2528 533.906 33.3864 534.012C36.5201 534.117 39.5947 533.142 42.0948 531.25C44.5948 529.357 46.3681 526.663 47.1173 523.618C47.8665 520.574 47.5461 517.364 46.2098 514.528C44.8734 511.691 42.6025 509.4 39.7777 508.04C36.9529 506.679 33.7462 506.331 30.6952 507.054C27.6443 507.777 24.9347 509.527 23.0208 512.01L29.1132 521.18L20.7888 516.313C20.1433 518.385 20.0051 520.582 20.3858 522.718V522.718Z" stroke="#3F3D56" stroke-miterlimit="10"/>
<path d="M480.945 341.116C490.334 341.116 497.945 331.266 497.945 319.116C497.945 306.965 490.334 297.116 480.945 297.116C471.556 297.116 463.945 306.965 463.945 319.116C463.945 331.266 471.556 341.116 480.945 341.116Z" fill="#2F2E41"/>
<path d="M573.445 341.616C582.834 341.616 590.445 331.766 590.445 319.616C590.445 307.465 582.834 297.616 573.445 297.616C564.056 297.616 556.445 307.465 556.445 319.616C556.445 331.766 564.056 341.616 573.445 341.616Z" fill="#2F2E41"/>
<path d="M560.445 384.615C560.445 394.555 546.565 402.615 529.445 402.615C512.325 402.615 498.445 394.555 498.445 384.615C498.445 376.005 508.855 368.805 522.765 367.045C524.98 366.753 527.212 366.61 529.445 366.615C533.188 366.603 536.921 367.006 540.575 367.816C552.195 370.406 560.445 376.955 560.445 384.615Z" fill="#2F2E41"/>
<path d="M484.945 336.116C494.334 336.116 501.945 326.266 501.945 314.116C501.945 301.965 494.334 292.116 484.945 292.116C475.556 292.116 467.945 301.965 467.945 314.116C467.945 326.266 475.556 336.116 484.945 336.116Z" stroke="#3F3D56" stroke-miterlimit="10"/>
<path d="M577.445 336.616C586.834 336.616 594.445 326.766 594.445 314.616C594.445 302.465 586.834 292.616 577.445 292.616C568.056 292.616 560.445 302.465 560.445 314.616C560.445 326.766 568.056 336.616 577.445 336.616Z" stroke="#3F3D56" stroke-miterlimit="10"/>
<path d="M533.445 397.616C550.566 397.616 564.445 389.557 564.445 379.616C564.445 369.675 550.566 361.616 533.445 361.616C516.324 361.616 502.445 369.675 502.445 379.616C502.445 389.557 516.324 397.616 533.445 397.616Z" stroke="#3F3D56" stroke-miterlimit="10"/>
<path d="M540.945 369.316C540.954 370.573 540.481 371.786 539.625 372.707C539.221 373.149 538.73 373.502 538.183 373.744C537.635 373.986 537.044 374.113 536.445 374.115H526.445C525.213 374.073 524.048 373.544 523.205 372.644C522.362 371.745 521.909 370.548 521.945 369.316C521.94 368.341 522.226 367.386 522.765 366.574C524.978 366.263 527.211 366.109 529.445 366.115C533.193 366.103 536.929 366.533 540.575 367.396C540.822 368.005 540.948 368.658 540.945 369.316V369.316Z" fill="white"/>
<path d="M484.945 313.116C487.707 313.116 489.945 310.877 489.945 308.116C489.945 305.354 487.707 303.116 484.945 303.116C482.184 303.116 479.945 305.354 479.945 308.116C479.945 310.877 482.184 313.116 484.945 313.116Z" fill="white"/>
<path d="M577.945 313.116C580.707 313.116 582.945 310.877 582.945 308.116C582.945 305.354 580.707 303.116 577.945 303.116C575.184 303.116 572.945 305.354 572.945 308.116C572.945 310.877 575.184 313.116 577.945 313.116Z" fill="white"/>
<path opacity="0.3" d="M582.945 360.116C585.707 360.116 587.945 357.877 587.945 355.116C587.945 352.354 585.707 350.116 582.945 350.116C580.184 350.116 577.945 352.354 577.945 355.116C577.945 357.877 580.184 360.116 582.945 360.116Z" fill="#184F5B"/>
<path opacity="0.3" d="M460.945 360.116C463.707 360.116 465.945 357.877 465.945 355.116C465.945 352.354 463.707 350.116 460.945 350.116C458.184 350.116 455.945 352.354 455.945 355.116C455.945 357.877 458.184 360.116 460.945 360.116Z" fill="#184F5B"/>
<path d="M219.88 460.44L219.558 461.387L219.677 461.427L219.803 461.437L219.88 460.44ZM226.64 460.96L226.563 461.957L226.602 461.96H226.64V460.96ZM271.36 449.52L270.927 448.618L270.916 448.624L270.905 448.63L271.36 449.52ZM292.16 429.24L291.292 428.744L291.286 428.754L292.16 429.24ZM292.68 367.36L293.506 366.797L293.506 366.797L292.68 367.36ZM273.44 349.68L272.931 350.541L272.946 350.55L272.961 350.558L273.44 349.68ZM245.88 339.28L245.642 340.251L245.651 340.253L245.66 340.255L245.88 339.28ZM185.56 332.52V331.52H185.534L185.508 331.521L185.56 332.52ZM145.52 334.6L144.521 334.648L144.569 335.651L145.572 335.599L145.52 334.6ZM144.48 312.76H143.48V312.784L143.481 312.808L144.48 312.76ZM150.2 215.52L149.211 215.372L149.21 215.382L150.2 215.52ZM157.48 172.88L158.187 173.587L158.187 173.587L157.48 172.88ZM238.08 169.24L238.132 170.239L238.08 169.24ZM343.12 169.24L343.934 168.659L343.886 168.591L343.827 168.533L343.12 169.24ZM345.72 223.84L345.627 224.836L346.095 224.879L346.427 224.547L345.72 223.84ZM267.72 222.8L267.696 221.8L267.685 221.801L267.675 221.801L267.72 222.8ZM218.32 228L219.027 228.707L219.027 228.707L218.32 228ZM216.24 275.84L215.793 276.734L216.004 276.84H216.24V275.84ZM313.48 299.76L313.008 300.642L313.015 300.645L313.022 300.649L313.48 299.76ZM343.12 320.56L342.428 321.282L342.435 321.289L342.443 321.296L343.12 320.56ZM321.28 487.48L320.737 486.64L320.737 486.64L321.28 487.48ZM143.44 516.6L142.733 517.307L142.803 517.377L142.885 517.432L143.44 516.6ZM142.92 411.04L142.213 410.333L142.213 410.333L142.92 411.04ZM165.28 401.68L164.995 400.721L164.988 400.724L165.28 401.68ZM195.44 395.96H196.44V394.96H195.44V395.96ZM219.803 461.437L226.563 461.957L226.717 459.963L219.957 459.443L219.803 461.437ZM226.64 461.96C241.724 461.96 256.785 458.1 271.815 450.41L270.905 448.63C256.121 456.193 241.37 459.96 226.64 459.96V461.96ZM271.793 450.422C280.667 446.162 287.746 439.245 293.034 429.726L291.286 428.754C286.174 437.955 279.386 444.558 270.927 448.618L271.793 450.422ZM293.028 429.736C298.666 419.87 301.48 408.951 301.48 397H299.48C299.48 408.622 296.747 419.197 291.292 428.744L293.028 429.736ZM301.48 397C301.48 384.728 298.85 374.634 293.506 366.797L291.854 367.923C296.91 375.339 299.48 385.005 299.48 397H301.48ZM293.506 366.797C288.223 359.048 281.693 353.043 273.919 348.802L272.961 350.558C280.44 354.637 286.737 360.419 291.854 367.923L293.506 366.797ZM273.949 348.819C266.214 344.248 256.925 340.749 246.1 338.305L245.66 340.255C256.329 342.665 265.413 346.098 272.931 350.541L273.949 348.819ZM246.118 338.309C227.656 333.78 207.468 331.52 185.56 331.52V333.52C207.332 333.52 227.357 335.766 245.642 340.251L246.118 338.309ZM185.508 331.521L145.468 333.601L145.572 335.599L185.612 333.519L185.508 331.521ZM146.519 334.552L145.479 312.712L143.481 312.808L144.521 334.648L146.519 334.552ZM145.48 312.76C145.48 275.351 147.385 242.986 151.19 215.658L149.21 215.382C145.388 242.827 143.48 275.289 143.48 312.76H145.48ZM151.189 215.668C153.269 201.803 154.914 191.325 156.126 184.228C156.732 180.678 157.228 177.985 157.614 176.14C157.807 175.215 157.97 174.519 158.103 174.04C158.169 173.799 158.223 173.632 158.264 173.525C158.274 173.5 158.281 173.481 158.288 173.467C158.294 173.452 158.297 173.446 158.297 173.447C158.297 173.447 158.295 173.45 158.292 173.455C158.289 173.46 158.284 173.468 158.277 173.479C158.265 173.497 158.236 173.539 158.187 173.587L156.773 172.173C156.644 172.302 156.565 172.442 156.523 172.522C156.474 172.617 156.432 172.716 156.395 172.812C156.322 173.003 156.249 173.239 156.175 173.507C156.026 174.047 155.853 174.791 155.656 175.73C155.262 177.612 154.762 180.335 154.154 183.892C152.939 191.009 151.291 201.503 149.211 215.372L151.189 215.668ZM158.187 173.587C158.102 173.672 158.072 173.65 158.267 173.585C158.43 173.531 158.675 173.47 159.019 173.41C159.703 173.289 160.68 173.184 161.967 173.098C164.533 172.927 168.233 172.84 173.08 172.84V170.84C168.22 170.84 164.467 170.927 161.833 171.102C160.52 171.19 159.46 171.301 158.671 171.44C158.278 171.51 157.927 171.59 157.635 171.688C157.375 171.774 157.031 171.915 156.773 172.173L158.187 173.587ZM173.08 172.84C183.164 172.84 204.858 171.972 238.132 170.239L238.028 168.241C204.742 169.975 183.102 170.84 173.08 170.84V172.84ZM238.132 170.239C271.407 168.506 296.693 167.64 314 167.64V165.64C296.64 165.64 271.313 166.508 238.028 168.241L238.132 170.239ZM314 167.64C322.83 167.64 329.642 167.857 334.451 168.286C336.858 168.501 338.736 168.767 340.103 169.078C340.787 169.233 341.321 169.395 341.719 169.557C342.131 169.724 342.332 169.866 342.413 169.947L343.827 168.533C343.475 168.18 342.993 167.916 342.473 167.704C341.94 167.487 341.293 167.297 340.547 167.127C339.054 166.788 337.075 166.512 334.629 166.294C329.731 165.857 322.85 165.64 314 165.64V167.64ZM342.306 169.821C343.913 172.07 345.179 175.583 346.035 180.463C346.888 185.325 347.32 191.46 347.32 198.88H349.32C349.32 191.394 348.885 185.134 348.005 180.117C347.128 175.117 345.794 171.263 343.934 168.659L342.306 169.821ZM347.32 198.88C347.32 206.321 347.103 212.087 346.675 216.196C346.461 218.253 346.197 219.866 345.889 221.055C345.569 222.292 345.242 222.904 345.013 223.133L346.427 224.547C347.065 223.909 347.496 222.831 347.826 221.555C348.168 220.231 348.446 218.507 348.665 216.404C349.103 212.193 349.32 206.346 349.32 198.88H347.32ZM345.813 222.844C334.683 221.801 322.345 221.28 308.8 221.28V223.28C322.295 223.28 334.57 223.799 345.627 224.836L345.813 222.844ZM308.8 221.28C295.618 221.28 281.916 221.453 267.696 221.8L267.744 223.8C281.95 223.453 295.635 223.28 308.8 223.28V221.28ZM267.675 221.801C252.242 222.495 240.389 223.276 232.125 224.145C227.996 224.58 224.741 225.039 222.376 225.525C221.195 225.768 220.212 226.023 219.443 226.293C218.71 226.55 218.041 226.864 217.613 227.293L219.027 228.707C219.119 228.615 219.42 228.421 220.106 228.18C220.756 227.951 221.642 227.718 222.779 227.484C225.05 227.018 228.23 226.567 232.335 226.134C240.538 225.271 252.344 224.492 267.765 223.799L267.675 221.801ZM217.613 227.293C216.911 227.995 216.399 229.115 215.996 230.479C215.584 231.874 215.251 233.657 214.987 235.808C214.46 240.114 214.2 246.011 214.2 253.48H216.2C216.2 246.042 216.46 240.239 216.973 236.052C217.229 233.957 217.546 232.294 217.914 231.046C218.291 229.767 218.689 229.045 219.027 228.707L217.613 227.293ZM214.2 253.48C214.2 260.764 214.287 266.286 214.461 270.036C214.548 271.908 214.658 273.361 214.794 274.38C214.861 274.884 214.939 275.317 215.035 275.652C215.082 275.817 215.144 275.995 215.229 276.157C215.299 276.29 215.464 276.57 215.793 276.734L216.687 274.946C216.819 275.012 216.9 275.094 216.938 275.139C216.978 275.186 216.996 275.22 216.999 275.226C217.003 275.234 216.986 275.202 216.958 275.102C216.902 274.906 216.839 274.586 216.776 274.115C216.652 273.184 216.545 271.799 216.459 269.944C216.287 266.241 216.2 260.756 216.2 253.48H214.2ZM216.24 276.84C251.095 276.84 283.345 284.776 313.008 300.642L313.952 298.878C283.988 282.851 251.412 274.84 216.24 274.84V276.84ZM313.022 300.649C324.386 306.503 334.185 313.383 342.428 321.282L343.812 319.838C335.415 311.791 325.454 304.803 313.938 298.871L313.022 300.649ZM342.443 321.296C350.989 329.158 358.021 339.435 363.522 352.157L365.358 351.363C359.766 338.431 352.584 327.908 343.797 319.824L342.443 321.296ZM363.522 352.157C369.008 364.842 371.76 379.091 371.76 394.92H373.76C373.76 378.856 370.966 364.332 365.358 351.363L363.522 352.157ZM371.76 394.92C371.76 434.087 354.784 464.63 320.737 486.64L321.823 488.32C356.416 465.956 373.76 434.793 373.76 394.92H371.76ZM320.737 486.64C286.63 508.689 241.425 519.76 185.04 519.76V521.76C241.668 521.76 287.29 510.644 321.823 488.32L320.737 486.64ZM185.04 519.76C173.267 519.76 163.945 519.414 157.06 518.725C153.616 518.381 150.802 517.953 148.605 517.446C146.387 516.934 144.882 516.36 143.995 515.768L142.885 517.432C144.078 518.227 145.867 518.866 148.155 519.394C150.465 519.927 153.37 520.366 156.86 520.715C163.842 521.413 173.239 521.76 185.04 521.76V519.76ZM144.147 515.893C144.012 515.758 143.787 515.398 143.534 514.653C143.29 513.938 143.054 512.973 142.832 511.742C142.386 509.282 142.01 505.857 141.708 501.452C141.103 492.646 140.8 480.02 140.8 463.56H138.8C138.8 480.034 139.103 492.714 139.712 501.588C140.017 506.023 140.399 509.532 140.863 512.098C141.096 513.38 141.353 514.452 141.64 515.297C141.918 516.112 142.262 516.836 142.733 517.307L144.147 515.893ZM140.8 463.56C140.8 447.099 141.06 434.513 141.578 425.789C141.838 421.425 142.16 418.05 142.543 415.65C142.734 414.448 142.937 413.516 143.145 412.836C143.366 412.113 143.553 411.821 143.627 411.747L142.213 410.333C141.767 410.779 141.466 411.489 141.233 412.25C140.986 413.055 140.766 414.089 140.567 415.335C140.17 417.832 139.842 421.282 139.582 425.671C139.06 434.454 138.8 447.087 138.8 463.56H140.8ZM143.627 411.747C144.688 410.687 146.99 409.362 150.716 407.802C154.399 406.261 159.347 404.538 165.572 402.636L164.988 400.724C158.733 402.635 153.714 404.379 149.944 405.958C146.217 407.518 143.579 408.967 142.213 410.333L143.627 411.747ZM165.565 402.639C178.363 398.834 188.306 396.96 195.44 396.96V394.96C188.014 394.96 177.851 396.9 164.995 400.721L165.565 402.639ZM194.44 395.96C194.44 414.735 196.48 429.606 200.615 440.514C204.756 451.44 211.041 458.487 219.558 461.387L220.202 459.493C212.425 456.846 206.49 450.373 202.485 439.806C198.473 429.221 196.44 414.625 196.44 395.96H194.44Z" fill="black"/>
<path d="M199.88 467.44L206.64 467.96C221.547 467.96 236.453 464.147 251.36 456.52C260.027 452.36 266.96 445.6 272.16 436.24C277.707 426.533 280.48 415.787 280.48 404C280.48 391.867 277.88 381.987 272.68 374.36C267.48 366.733 261.067 360.84 253.44 356.68C245.813 352.173 236.627 348.707 225.88 346.28C207.507 341.773 187.4 339.52 165.56 339.52L125.52 341.6L124.48 319.76C124.48 282.32 126.387 249.907 130.2 222.52C134.36 194.787 136.787 180.573 137.48 179.88C138.173 179.187 143.373 178.84 153.08 178.84C163.133 178.84 184.8 177.973 218.08 176.24C251.36 174.507 276.667 173.64 294 173.64C311.68 173.64 321.387 174.507 323.12 176.24C326.587 181.093 328.32 190.973 328.32 205.88C328.32 220.787 327.453 229.107 325.72 230.84C314.627 229.8 302.32 229.28 288.8 229.28C275.627 229.28 261.933 229.453 247.72 229.8C216.867 231.187 200.4 232.92 198.32 235C196.24 237.08 195.2 245.573 195.2 260.48C195.2 275.04 195.547 282.493 196.24 282.84C231.253 282.84 263.667 290.813 293.48 306.76C304.92 312.653 314.8 319.587 323.12 327.56C331.787 335.533 338.893 345.933 344.44 358.76C349.987 371.587 352.76 385.973 352.76 401.92C352.76 441.44 335.6 472.293 301.28 494.48C266.96 516.667 221.547 527.76 165.04 527.76C141.467 527.76 127.6 526.373 123.44 523.6C121.013 521.173 119.8 503.493 119.8 470.56C119.8 437.627 120.84 420.12 122.92 418.04C125.347 415.613 132.8 412.493 145.28 408.68C158.107 404.867 168.16 402.96 175.44 402.96C175.44 440.4 183.587 461.893 199.88 467.44Z" fill="#2F2E41"/>
</g>
<defs>
<clipPath id="clip0">
<rect width="1074.39" height="584.231" fill="white"/>
</clipPath>
</defs>
</svg>
