<svg width="625" height="519" viewBox="0 0 625 519" fill="none" xmlns="http://www.w3.org/2000/svg">
<path d="M131.676 234.516C150.771 234.516 166.25 219.032 166.25 199.932C166.25 180.831 150.771 165.347 131.676 165.347C112.582 165.347 97.1025 180.831 97.1025 199.932C97.1025 219.032 112.582 234.516 131.676 234.516Z" fill="#FFFFA5"/>
<path d="M345.867 239.091C345.867 307.179 305.401 330.953 255.485 330.953C205.568 330.953 165.103 307.179 165.103 239.091C165.103 171.002 255.485 84.3826 255.485 84.3826C255.485 84.3826 345.867 171.002 345.867 239.091Z" fill="#FF5C00"/>
<path d="M252.192 320.538L253.117 263.553L291.641 193.056L253.263 254.615L253.679 228.992L280.229 177.988L253.789 222.212L254.538 176.129L282.968 135.523L254.655 168.882L255.122 84.3828L252.184 196.245L252.426 191.63L223.52 147.373L251.962 200.489L249.269 251.956L249.188 250.59L215.866 204.015L249.088 255.415L248.751 261.852L248.69 261.949L248.718 262.477L241.885 393.053H251.014L252.11 325.608L285.25 274.333L252.192 320.538Z" fill="#3F3D56"/>
<path d="M433.073 303.4C433.073 371.489 392.607 395.263 342.691 395.263C292.774 395.263 252.309 371.489 252.309 303.4C252.309 235.312 342.691 148.692 342.691 148.692C342.691 148.692 433.073 235.312 433.073 303.4Z" fill="#848484"/>
<path d="M339.398 384.847L340.324 327.864L378.847 257.366L340.469 318.924L340.885 293.302L367.435 242.298L340.995 286.521V286.522L341.744 240.439L370.174 199.833L341.861 233.193L342.329 148.692L339.39 260.555L339.632 255.941L310.726 211.683L339.168 264.799L336.475 316.265L336.394 314.899L303.072 268.325L336.294 319.726L335.957 326.162L335.896 326.259L335.924 326.787L329.091 457.362H338.221L339.316 389.917L372.456 338.643L339.398 384.847Z" fill="#F2F2F2"/>
<path d="M263.116 303.4C263.116 371.489 222.65 395.263 172.734 395.263C122.817 395.263 82.3516 371.489 82.3516 303.4C82.3516 235.312 172.734 148.692 172.734 148.692C172.734 148.692 263.116 235.312 263.116 303.4Z" fill="#A8A8A8"/>
<path d="M169.441 384.847L170.367 327.864L208.89 257.366L170.512 318.924L170.928 293.302L197.478 242.298L171.039 286.521V286.522L171.787 240.439L200.217 199.833L171.904 233.193L172.372 148.692L169.434 260.555L169.675 255.941L140.77 211.683L169.211 264.799L166.518 316.265L166.438 314.899L133.115 268.325L166.337 319.726L166 326.162L165.94 326.259L165.968 326.787L159.134 457.362H168.263L169.359 389.917L202.5 338.643L169.441 384.847Z" fill="#F2F2F2"/>
<path d="M257.786 456.787C214.558 456.787 172.667 441.794 139.251 414.362C105.835 386.93 82.9616 348.757 74.5281 306.347C66.0946 263.937 72.6228 219.913 93.0003 181.778C113.378 143.643 146.344 113.755 186.281 97.2073C226.219 80.6596 270.657 78.4758 312.024 91.028C353.391 103.58 389.127 130.092 413.143 166.045C437.159 201.999 447.97 245.17 443.733 288.203C439.496 331.236 420.473 371.468 389.906 402.044C372.596 419.454 352.006 433.257 329.328 442.653C306.649 452.05 282.333 456.854 257.786 456.787ZM257.786 84.4077C155.545 84.4077 72.3654 167.612 72.3654 269.884C72.3654 372.156 155.545 455.36 257.786 455.36C360.027 455.36 443.206 372.156 443.206 269.884C443.206 167.612 360.027 84.4077 257.786 84.4077Z" fill="#2F2E41"/>
<path d="M410.569 376.516V456.107H105.029V376.516L257.799 296.925L258.117 297.09L410.569 376.516Z" fill="#F2F2F2"/>
<path opacity="0.1" d="M410.569 376.516V456.107H258.117V297.09L410.569 376.516Z" fill="black"/>
<path d="M244.75 345.635L233.293 349.962V332.9L244.75 327.877V345.635Z" fill="#3F3D56"/>
<path d="M118.079 393.389L114.26 394.834V384.475L118.079 382.786V393.389Z" fill="#3F3D56"/>
<path d="M131.446 388.932L126.99 390.603V379.381L131.446 377.425V388.932Z" fill="#3F3D56"/>
<path d="M146.085 383.202L140.993 385.117V373.014L146.085 370.772V383.202Z" fill="#3F3D56"/>
<path d="M163.91 376.198L157.544 378.601V366.01L163.91 363.217V376.198Z" fill="#3F3D56"/>
<path d="M185.551 367.92L177.913 370.808V357.096L185.551 353.744V367.92Z" fill="#3F3D56"/>
<path d="M211.65 358.369L202.738 361.727V346.271L211.65 342.364V358.369Z" fill="#3F3D56"/>
<path d="M118.079 414.401L114.26 415.362V404.851L118.079 403.643V414.401Z" fill="#3F3D56"/>
<path d="M131.446 411.218L126.99 412.334V401.03L131.446 399.625V411.218Z" fill="#3F3D56"/>
<path d="M146.085 407.397L140.993 408.677V396.573L146.085 394.967V407.397Z" fill="#3F3D56"/>
<path d="M163.91 402.941L157.544 404.54V391.479L163.91 389.476V402.941Z" fill="#3F3D56"/>
<path d="M185.551 397.21L177.913 399.138V385.112L185.551 382.708V397.21Z" fill="#3F3D56"/>
<path d="M211.65 390.843L202.102 393.245V377.471L211.65 374.466V390.843Z" fill="#3F3D56"/>
<path d="M244.75 382.565L233.293 385.446V367.92L244.75 364.325V382.565Z" fill="#3F3D56"/>
<path d="M244.75 418.859L233.293 420.318V402.941L244.75 400.773V418.859Z" fill="#3F3D56"/>
<path d="M118.079 434.777L114.26 435.268V425.226L118.079 424.498V434.777Z" fill="#3F3D56"/>
<path d="M131.446 433.504L126.99 434.066V423.316L131.446 422.48V433.504Z" fill="#3F3D56"/>
<path d="M146.085 431.593L140.993 432.238V420.132L146.085 419.162V431.593Z" fill="#3F3D56"/>
<path d="M163.91 429.047L157.544 429.86V416.949L163.91 415.734V429.047Z" fill="#3F3D56"/>
<path d="M185.551 426.499L177.913 427.469V413.128L185.551 411.673V426.499Z" fill="#3F3D56"/>
<path d="M211.65 423.316L202.102 424.523V408.671L211.65 406.858V423.316Z" fill="#3F3D56"/>
<path d="M398.156 393.389L401.976 394.834V384.475L398.156 382.786V393.389Z" fill="#3F3D56"/>
<path d="M384.789 388.932L389.245 390.603V379.381L384.789 377.425V388.932Z" fill="#3F3D56"/>
<path d="M370.148 383.202L375.241 385.117V373.014L370.148 370.772V383.202Z" fill="#3F3D56"/>
<path d="M352.325 376.198L358.691 378.601V366.01L352.325 363.217V376.198Z" fill="#3F3D56"/>
<path d="M330.684 367.92L338.322 370.808V357.096L330.684 353.744V367.92Z" fill="#3F3D56"/>
<path d="M304.585 358.369L313.497 361.727V346.271L304.585 342.364V358.369Z" fill="#3F3D56"/>
<path d="M398.156 414.401L401.976 415.362V404.851L398.156 403.643V414.401Z" fill="#3F3D56"/>
<path d="M384.789 411.218L389.245 412.334V401.03L384.789 399.625V411.218Z" fill="#3F3D56"/>
<path d="M370.148 407.397L375.241 408.677V396.573L370.148 394.967V407.397Z" fill="#3F3D56"/>
<path d="M352.325 402.941L358.691 404.54V391.479L352.325 389.476V402.941Z" fill="#3F3D56"/>
<path d="M330.684 397.21L338.322 399.138V385.112L330.684 382.708V397.21Z" fill="#3F3D56"/>
<path d="M304.585 390.843L314.133 393.245V377.471L304.585 374.466V390.843Z" fill="#3F3D56"/>
<path d="M271.485 382.565L282.943 385.446V367.92L271.485 364.325V382.565Z" fill="#3F3D56"/>
<path d="M271.485 418.859L282.943 420.318V402.941L271.485 400.773V418.859Z" fill="#3F3D56"/>
<path d="M398.156 434.777L401.976 435.268V425.226L398.156 424.498V434.777Z" fill="#3F3D56"/>
<path d="M384.789 433.504L389.245 434.066V423.316L384.789 422.48V433.504Z" fill="#3F3D56"/>
<path d="M370.148 431.593L375.241 432.238V420.132L370.148 419.162V431.593Z" fill="#3F3D56"/>
<path d="M352.325 429.047L358.691 429.86V416.949L352.325 415.734V429.047Z" fill="#3F3D56"/>
<path d="M330.684 426.499L338.322 427.469V413.128L330.684 411.673V426.499Z" fill="#3F3D56"/>
<path d="M304.585 423.316L314.133 424.523V408.671L304.585 406.858V423.316Z" fill="#3F3D56"/>
<path d="M282.306 350.092L270.849 345.77V327.806L282.306 332.832V350.092Z" fill="#3F3D56"/>
<path d="M389.891 441.935H388.957V456.883H389.891V441.935Z" fill="#2F2E41"/>
<path d="M400.894 446.004H400.232V456.595H400.894V446.004Z" fill="#2F2E41"/>
<path d="M410.673 447.297H410.092V456.606H410.673V447.297Z" fill="#2F2E41"/>
<path d="M362.509 437.197V456.426L350.097 456.407L337.685 456.388V434.777L350.097 435.987L362.509 437.197Z" fill="#3F3D56"/>
<path d="M153.725 456.426L178.549 456.386V434.777L153.725 437.194V456.426Z" fill="#3F3D56"/>
<path d="M556.219 455.789H0V457.063H556.219V455.789Z" fill="#2F2E41"/>
<path opacity="0.1" d="M362.51 437.197V456.426L350.098 456.407V435.987L362.51 437.197Z" fill="black"/>
<path d="M256.526 438.916H255.253V456.744H256.526V438.916Z" fill="#2F2E41"/>
<path d="M263.237 432.569C263.237 438.816 259.901 444.03 255.89 444.209C251.991 444.383 248.909 439.708 248.909 433.771C248.909 427.835 256.527 411.536 256.527 411.536C256.527 411.536 263.237 426.321 263.237 432.569Z" fill="#FF5C00"/>
<path d="M106.755 444.63H105.996V455.264H106.755V444.63Z" fill="#2F2E41"/>
<path d="M110.758 440.844C110.758 444.57 108.768 447.68 106.376 447.786C104.05 447.89 102.212 445.102 102.212 441.561C102.212 438.02 106.756 428.298 106.756 428.298C106.756 428.298 110.758 437.117 110.758 440.844Z" fill="#FF5C00"/>
<path d="M394.561 442.525C394.561 446.069 392.328 448.837 389.424 448.701C386.34 448.556 383.697 445.229 383.697 441.278C383.697 437.326 389.424 427.455 389.424 427.455C389.424 427.455 394.561 438.981 394.561 442.525Z" fill="#FF5C00"/>
<path d="M404.204 446.421C404.204 448.933 402.621 450.894 400.564 450.798C398.379 450.695 396.506 448.338 396.506 445.538C396.506 442.738 400.564 435.743 400.564 435.743C400.564 435.743 404.204 443.91 404.204 446.421Z" fill="#FF5C00"/>
<path d="M413.582 447.664C413.582 449.871 412.191 451.595 410.383 451.511C408.463 451.42 406.816 449.348 406.816 446.888C406.816 444.427 410.383 438.279 410.383 438.279C410.383 438.279 413.582 445.457 413.582 447.664Z" fill="#FF5C00"/>
<path d="M418.102 102.575C418.102 102.575 411.906 121.168 415.348 125.3C418.79 129.432 394.695 112.905 394.695 112.905L407.775 97.7549L418.102 102.575Z" fill="#A0616A"/>
<path d="M403.972 102.545C421.043 102.545 434.881 88.7024 434.881 71.6268C434.881 54.5512 421.043 40.7087 403.972 40.7087C386.902 40.7087 373.063 54.5512 373.063 71.6268C373.063 88.7024 386.902 102.545 403.972 102.545Z" fill="#2F2E41"/>
<path d="M524.119 311.918L508.286 324.313L499.336 309.852L515.169 298.834L524.119 311.918Z" fill="#A0616A"/>
<path d="M501.745 405.227L505.876 425.197L517.579 441.036C517.579 441.036 549.246 450.676 527.905 455.497C506.564 460.317 501.745 452.054 501.745 452.054L486.6 438.97V456.874H476.962L474.897 431.395C474.897 431.395 473.52 423.82 479.716 415.556L481.093 403.161L501.745 405.227Z" fill="#2F2E41"/>
<path d="M421.888 158.01L427.395 189.686C427.395 189.686 485.911 183.489 490.041 195.196C494.172 206.902 495.549 210.345 495.549 210.345L483.846 214.477L478.338 204.148C476.661 203.553 474.88 203.308 473.104 203.427C471.328 203.545 469.596 204.025 468.012 204.836C462.505 207.591 414.315 214.477 410.873 205.525C407.431 196.573 397.793 163.519 397.793 163.519L412.25 151.812L421.888 158.01Z" fill="#A0616A"/>
<path opacity="0.1" d="M421.888 158.01L427.395 189.686C427.395 189.686 485.911 183.489 490.041 195.196C494.172 206.902 495.549 210.345 495.549 210.345L483.846 214.477L478.338 204.148C476.661 203.553 474.88 203.308 473.104 203.427C471.328 203.545 469.596 204.025 468.012 204.836C462.505 207.591 414.315 214.477 410.873 205.525C407.431 196.573 397.793 163.519 397.793 163.519L412.25 151.812L421.888 158.01Z" fill="black"/>
<path d="M454.244 249.597L459.063 266.124L471.455 329.478C471.455 329.478 472.832 376.305 474.897 381.814C476.962 387.323 476.962 388.011 474.897 390.077C472.832 392.143 468.701 399.029 474.897 403.161C481.093 407.293 503.122 412.113 503.81 407.293C504.499 402.473 504.499 394.898 503.81 391.454C503.122 388.011 505.876 334.298 505.876 334.298L497.615 252.352L469.389 239.268L454.244 249.597Z" fill="#2F2E41"/>
<path opacity="0.1" d="M454.244 249.597L459.063 266.124L471.455 329.478C471.455 329.478 472.832 376.305 474.897 381.814C476.962 387.323 476.962 388.011 474.897 390.077C472.832 392.143 468.701 399.029 474.897 403.161C481.093 407.293 503.122 412.113 503.81 407.293C504.499 402.473 504.499 394.898 503.81 391.454C503.122 388.011 505.876 334.298 505.876 334.298L497.615 252.352L469.389 239.268L454.244 249.597Z" fill="black"/>
<path d="M483.846 184.866L498.991 213.789C498.991 213.789 585.732 252.352 578.159 268.19C570.587 284.029 528.593 313.64 528.593 313.64C528.593 313.64 526.528 325.346 520.332 321.903C514.136 318.46 498.991 300.556 500.368 298.49C501.745 296.424 506.564 291.603 508.629 292.292C510.694 292.981 534.789 274.388 534.789 274.388L493.484 264.058C493.484 264.058 443.917 262.681 441.164 239.268C438.41 215.854 441.164 211.723 441.164 211.723L437.722 204.148L465.947 186.932L483.846 184.866Z" fill="#2F2E41"/>
<path d="M505.187 299.178L490.73 312.262C490.73 312.262 478.339 306.753 470.766 308.819C463.193 310.885 450.113 312.262 450.113 312.262L452.179 323.969L469.743 320.727L455.621 340.496C455.621 340.496 455.621 371.484 464.57 371.484C473.52 371.484 470.766 352.891 470.766 352.891L498.303 331.544C498.303 331.544 512.071 326.035 513.448 326.035C514.825 326.035 505.187 299.178 505.187 299.178Z" fill="#2F2E41"/>
<path d="M415.348 108.084C428.275 108.084 438.754 97.6017 438.754 84.6709C438.754 71.7401 428.275 61.2576 415.348 61.2576C402.421 61.2576 391.941 71.7401 391.941 84.6709C391.941 97.6017 402.421 108.084 415.348 108.084Z" fill="#A0616A"/>
<path d="M392.286 102.92C392.286 102.92 403.301 100.165 406.743 102.92C410.185 105.674 410.874 111.872 415.693 112.56C420.512 113.249 424.642 113.249 425.331 113.938C426.019 114.626 441.853 133.908 441.853 133.908C441.853 133.908 451.491 139.417 453.556 146.992C455.621 154.567 476.274 180.046 479.028 182.8C481.781 185.555 461.129 199.327 454.244 204.148C447.36 208.968 427.396 211.034 421.2 200.016C415.004 188.998 381.272 117.381 392.286 102.92Z" fill="#FFB8B8"/>
<path d="M418.446 147.68L423.954 179.357C423.954 179.357 482.469 173.159 486.6 184.866C490.73 196.573 492.107 200.016 492.107 200.016L480.404 204.148L474.897 193.818C473.219 193.224 471.438 192.979 469.663 193.097C467.887 193.216 466.154 193.695 464.57 194.507C459.063 197.261 410.874 204.148 407.432 195.196C403.989 186.243 394.352 153.189 394.352 153.189L408.808 141.483L418.446 147.68Z" fill="#A0616A"/>
<path d="M405.291 105.817C405.291 105.817 421.889 140.794 420.512 150.435C419.135 160.075 414.316 153.189 414.316 153.189C414.316 153.189 408.12 143.548 405.367 149.057C402.613 154.566 399.171 162.141 396.417 161.453C393.663 160.764 378.518 109.806 386.779 104.985C395.04 100.165 405.291 105.817 405.291 105.817Z" fill="#FFB9B9"/>
<path d="M370.488 61.8362C387.558 61.8362 401.397 47.9937 401.397 30.9181C401.397 13.8425 387.558 0 370.488 0C353.417 0 339.579 13.8425 339.579 30.9181C339.579 47.9937 353.417 61.8362 370.488 61.8362Z" fill="#2F2E41"/>
<path d="M343.828 56.5203C347.828 59.4126 352.463 61.3045 357.344 62.0377C362.226 62.7709 367.212 62.324 371.885 60.7345C376.558 59.145 380.783 56.4591 384.206 52.9014C387.629 49.3438 390.15 45.0179 391.559 40.2857C391.026 44.5265 389.62 48.6107 387.429 52.2804C385.238 55.9501 382.311 59.1256 378.831 61.6065C375.352 64.0873 371.396 65.8196 367.213 66.694C363.031 67.5683 358.712 67.5658 354.531 66.6864C350.349 65.8071 346.395 64.0701 342.919 61.5852C339.442 59.1002 336.519 55.9212 334.332 52.2489C332.146 48.5766 330.745 44.4907 330.216 40.2493C329.688 36.0079 330.045 31.703 331.264 27.6064C330.572 33.1101 331.373 38.6988 333.583 43.7861C335.794 48.8735 339.332 53.272 343.828 56.5203Z" fill="#2F2E41"/>
<path d="M397.615 99.4532C410.133 99.4532 420.281 89.3021 420.281 76.78C420.281 64.2579 410.133 54.1067 397.615 54.1067C385.096 54.1067 374.948 64.2579 374.948 76.78C374.948 89.3021 385.096 99.4532 397.615 99.4532Z" fill="#2F2E41"/>
<path d="M414.791 83.9942C425.887 83.9942 434.882 76.9576 434.882 68.2775C434.882 59.5974 425.887 52.5608 414.791 52.5608C403.695 52.5608 394.7 59.5974 394.7 68.2775C394.7 76.9576 403.695 83.9942 414.791 83.9942Z" fill="#2F2E41"/>
<path d="M415.693 95.0003C418.164 95.0003 420.167 91.4548 420.167 87.0811C420.167 82.7074 418.164 79.1619 415.693 79.1619C413.221 79.1619 411.218 82.7074 411.218 87.0811C411.218 91.4548 413.221 95.0003 415.693 95.0003Z" fill="#A0616A"/>
<path d="M477.116 203.847C477.116 203.847 489.303 196.853 491.565 198.606C493.828 200.36 494.833 205.848 494.833 205.848L480.748 211.378L476.617 203.803L477.116 203.847Z" fill="#2F2E41"/>
</svg>
