<svg width="144" height="121" viewBox="0 0 144 121" fill="none" xmlns="http://www.w3.org/2000/svg">
<g clip-path="url(#clip0)">
<rect width="143.913" height="120" transform="translate(0 0.701416)" fill="white"/>
<path d="M135.953 39.0889C135.953 44.0835 134.77 48.1947 132.717 51.7167C132.04 52.8767 131.271 53.9808 130.417 55.0185C122.871 64.245 108.841 69.295 96.1604 77.4749C58.7299 101.62 54.6755 62.93 56.366 39.0889C57.0479 29.4689 60.7955 20.657 66.7493 13.91C67.9997 12.491 69.3504 11.1636 70.791 9.93793C77.5503 4.18357 86.2829 0.701416 96.1604 0.701416C113.107 0.701416 127.579 10.9192 133.317 25.3179C135.061 29.6996 135.956 34.373 135.953 39.0889Z" fill="#FF5C00"/>
<path d="M104.638 9.35278L66.749 13.91C67.9994 12.491 69.3501 11.1635 70.7907 9.93788L104.638 9.35278Z" fill="#D0CDE1"/>
<path d="M132.717 51.7167C132.04 52.8767 131.271 53.9808 130.417 55.0185L97.9619 51.116L132.717 51.7167Z" fill="#D0CDE1"/>
<path d="M134.641 29.2773L79.6357 22.1454L133.317 25.318C133.832 26.6118 134.274 27.9336 134.641 29.2773Z" fill="#D0CDE1"/>
<path d="M60.0971 10.9267C60.0971 11.0247 60.0942 11.1212 60.0857 11.2164C60.0427 11.8061 59.8686 12.3788 59.5762 12.8928C59.2837 13.4068 58.8803 13.8492 58.3952 14.1876C57.9102 14.526 57.3557 14.752 56.7722 14.8491C56.1887 14.9463 55.5909 14.9121 55.0223 14.749C54.4537 14.586 53.9287 14.2982 53.4854 13.9067C53.0421 13.5152 52.6918 13.0298 52.4599 12.4858C52.2281 11.9418 52.1205 11.3529 52.145 10.7621C52.1696 10.1713 52.3257 9.59344 52.6019 9.07056C52.6874 8.9067 52.7852 8.74957 52.8945 8.6005C53.3702 7.94096 54.0368 7.44312 54.8044 7.17413C55.572 6.90514 56.4036 6.87794 57.1871 7.09619C57.9706 7.31445 58.6683 7.76767 59.1862 8.39471C59.704 9.02176 60.0169 9.79246 60.0829 10.6029C60.0928 10.7094 60.0971 10.8173 60.0971 10.9267Z" fill="#FF5C00"/>
<path d="M60.0965 10.9266C60.0965 11.0246 60.0936 11.1212 60.0851 11.2164L54.1299 10.5006L60.0823 10.6029C60.0922 10.7094 60.0965 10.8173 60.0965 10.9266Z" fill="#D0CDE1"/>
<path d="M58.6767 12.9304L53.1676 13.5936C53.0112 13.4193 52.8705 13.2316 52.7471 13.0327L58.6767 12.9304Z" fill="#D0CDE1"/>
<path d="M57.1144 8.52808L52.6025 9.07056C52.6881 8.90671 52.7859 8.74957 52.8952 8.6005L57.1144 8.52808Z" fill="#D0CDE1"/>
<path d="M114.611 82.5189C114.565 82.6055 114.517 82.6895 114.465 82.7695C114.15 83.2703 113.728 83.6946 113.229 84.0116C112.729 84.3286 112.165 84.5302 111.578 84.6018C110.991 84.6735 110.395 84.6133 109.834 84.4256C109.273 84.238 108.761 83.9277 108.336 83.5172C107.91 83.1068 107.581 82.6065 107.373 82.053C107.165 81.4994 107.083 80.9064 107.134 80.3172C107.184 79.7281 107.365 79.1575 107.664 78.6472C107.962 78.1368 108.371 77.6995 108.86 77.3671C109.013 77.2624 109.173 77.1694 109.339 77.089C110.069 76.7293 110.891 76.6019 111.695 76.724C112.499 76.8461 113.247 77.2118 113.836 77.7718C114.426 78.3317 114.83 79.059 114.993 79.8555C115.157 80.6521 115.072 81.4795 114.75 82.2263C114.709 82.325 114.662 82.4223 114.611 82.5189Z" fill="#FF5C00"/>
<path d="M114.611 82.5189C114.565 82.6055 114.517 82.6894 114.465 82.7695L109.54 79.3466L114.75 82.2262C114.709 82.325 114.662 82.4223 114.611 82.5189Z" fill="#D0CDE1"/>
<path d="M112.417 83.6232L107.239 81.6274C107.183 81.4002 107.147 81.1684 107.131 80.9348L112.417 83.6232Z" fill="#D0CDE1"/>
<path d="M113.1 79.0022L108.86 77.3671C109.013 77.2624 109.173 77.1694 109.339 77.089L113.1 79.0022Z" fill="#D0CDE1"/>
<path d="M142.784 13.9729C142.852 14.043 142.917 14.1142 142.978 14.1882C143.359 14.6405 143.634 15.172 143.784 15.744C143.934 16.3161 143.954 16.9144 143.843 17.4952C143.732 18.076 143.493 18.6248 143.143 19.1016C142.793 19.5784 142.341 19.9712 141.82 20.2513C141.299 20.5314 140.722 20.6919 140.132 20.721C139.541 20.7501 138.951 20.6471 138.405 20.4195C137.859 20.1919 137.371 19.8454 136.976 19.4053C136.581 18.9652 136.289 18.4426 136.121 17.8754C136.068 17.6984 136.028 17.5177 136.003 17.3347C135.882 16.5305 136.012 15.7088 136.374 14.9805C136.735 14.2522 137.312 13.6523 138.025 13.2617C138.738 12.8711 139.554 12.7085 140.363 12.796C141.172 12.8835 141.934 13.2168 142.547 13.751C142.629 13.8203 142.707 13.8946 142.784 13.9729Z" fill="#FF5C00"/>
<path d="M142.784 13.9729C142.852 14.043 142.918 14.1141 142.978 14.1882L138.215 17.8323L142.548 13.751C142.629 13.8203 142.708 13.8946 142.784 13.9729Z" fill="#D0CDE1"/>
<path d="M143.166 16.3989L139.685 20.7189C139.451 20.7033 139.22 20.6671 138.992 20.6108L143.166 16.3989Z" fill="#D0CDE1"/>
<path d="M138.973 14.3379L136.122 17.8754C136.069 17.6984 136.029 17.5176 136.003 17.3346L138.973 14.3379Z" fill="#D0CDE1"/>
<path d="M68.1585 87.2516C68.1585 87.2516 76.8876 87.6152 76.8876 89.7967C76.8876 91.9782 67.0674 89.7967 67.0674 89.7967L68.1585 87.2516Z" fill="#A0616A"/>
<path d="M55.065 120.701L38.6979 119.611L37.9705 110.885L34.3334 118.52L18.3301 116.338C18.6938 102.522 24.5132 89.0694 24.8769 87.2515C25.2406 85.4335 26.1099 77.9218 26.1099 77.9218C27.6993 74.5514 36.0283 74.2351 42.5569 74.5405C45.263 74.6641 47.6635 74.8968 49.1437 75.0641C50.1221 75.1731 50.7004 75.2531 50.7004 75.2531C53.3082 77.94 54.9886 81.6013 56.0215 85.6917C59.7459 100.428 55.065 120.701 55.065 120.701Z" fill="#2F2E41"/>
<path d="M36.8799 36.3496C41.9017 36.3496 45.9727 32.28 45.9727 27.2599C45.9727 22.2399 41.9017 18.1703 36.8799 18.1703C31.8581 18.1703 27.7871 22.2399 27.7871 27.2599C27.7871 32.28 31.8581 36.3496 36.8799 36.3496Z" fill="#A0616A"/>
<path d="M30.6968 29.4414C30.6968 29.4414 28.1508 40.7126 24.1499 43.9848C20.1491 47.2571 39.7896 43.9848 39.7896 43.9848C39.7896 43.9848 35.425 36.7131 38.6984 33.4408C41.9718 30.1686 30.6968 29.4414 30.6968 29.4414Z" fill="#A0616A"/>
<path d="M49.2456 75.9803L43.2116 76.6493L26.3318 78.5254C26.3318 78.5254 26.2517 78.3109 26.1099 77.9219C24.8842 74.5805 18.9812 58.321 18.3301 53.438C17.6027 47.9842 25.2406 41.4397 25.2406 41.4397C25.2406 41.4397 32.5149 39.9854 34.6971 39.9854C36.8794 39.9854 45.6085 43.2576 45.6085 43.2576L48.8637 72.5299L49.1438 75.0641L49.2456 75.9803Z" fill="#D0CDE1"/>
<path opacity="0.15" d="M56.0219 85.6917L43.7903 78.5254C43.7903 78.5254 43.5756 77.8273 43.2119 76.6493C43.0301 76.0603 42.8083 75.3477 42.5573 74.5405C41.1461 70.0102 38.7783 62.5349 36.8797 57.0739C33.97 48.7114 48.1548 71.9809 48.1548 71.9809L48.864 72.5299L49.1441 75.0641C50.1224 75.1731 50.7008 75.2532 50.7008 75.2532C53.3086 77.9401 54.989 81.6013 56.0219 85.6917Z" fill="black"/>
<path d="M39.7883 43.9849C39.7883 43.9849 36.1512 48.7115 39.0609 57.074C41.9706 65.4364 45.9714 78.5255 45.9714 78.5255L67.0667 90.8874L69.9764 87.2516L50.3359 71.981C50.3359 71.981 49.6085 44.3485 45.9714 43.2577C42.3343 42.1669 39.7883 43.9849 39.7883 43.9849Z" fill="#D0CDE1"/>
<path d="M21.7852 75.7986C21.7852 75.7986 26.8771 86.3426 29.0594 85.2519C31.2416 84.1611 23.6037 73.2535 23.6037 73.2535L21.7852 75.7986Z" fill="#A0616A"/>
<path d="M21.2397 46.8936L1.96302 62.8913C1.96302 62.8913 -5.31121 67.9815 8.14613 71.6174C21.6035 75.2532 22.6946 77.4347 22.6946 77.4347C22.6946 77.4347 24.1494 72.7081 25.968 73.4353L10.3284 65.8L23.0583 58.1647L21.2397 46.8936Z" fill="#D0CDE1"/>
<path d="M13.4925 34.7204C14.5042 34.2196 16.7383 33.2087 18.6413 31.9909C18.5079 28.0291 18.9959 24.4326 20.4245 22.5263C21.2264 20.7061 22.9103 18.8839 24.2291 17.4488C27.4678 13.9247 34.6294 11.9576 35.8996 13.7184C45.5066 13.908 46.518 21.4358 46.518 21.4358C46.468 24.5845 43.1944 24.6841 40.3267 24.5694C40.5835 26.7189 39.8991 28.9525 37.9174 29.943C34.1277 31.8372 32.9908 34.2996 34.8856 36.0044C36.7805 37.7091 40.1912 42.2551 35.6436 43.3916C31.096 44.5281 30.5275 46.8011 31.8539 47.7482C33.1803 48.6953 28.8222 46.0435 28.8222 46.0435C28.8222 46.0435 28.0643 50.5895 24.0851 49.453C23.7285 49.3511 23.3721 49.0901 23.0217 48.6998C21.9471 49.8802 20.9883 50.5782 20.2658 50.582C16.1275 50.6039 16.6237 46.022 16.6237 46.022C16.6237 46.022 11.7118 47.401 13.2445 46.8465C14.7772 46.292 14.8429 43.95 10.7702 41.6299C6.69757 39.3098 11.208 35.8514 13.4925 34.7204Z" fill="#2F2E41"/>
<path d="M64.2669 46.5972L64.2009 46.5885L64.3618 47.2001C64.5139 48.0533 64.7349 48.8928 65.0224 49.7104L69.7426 67.6477C69.8933 68.2202 70.2078 68.7363 70.6477 69.1326C71.0876 69.5289 71.6336 69.7883 72.2189 69.8788L81.8449 71.3674C82.4674 71.4637 83.1043 71.3644 83.6679 71.0833C84.2315 70.8021 84.6938 70.353 84.9911 69.7979L94.139 52.7172C94.4248 52.2439 94.686 51.7563 94.9215 51.2561L95.2321 50.6762L95.1837 50.6698C96.1534 48.3766 96.5803 45.8905 96.431 43.4053C96.2816 40.9201 95.5602 38.503 94.3229 36.3423C93.0856 34.1816 91.3658 32.3358 89.2976 30.9486C87.2295 29.5615 84.8688 28.6706 82.3996 28.3454C79.9304 28.0201 77.4195 28.2693 75.0624 29.0735C72.7054 29.8777 70.566 31.2152 68.811 32.9817C67.056 34.7482 65.7328 36.896 64.9446 39.2577C64.1564 41.6194 63.9245 44.1312 64.2668 46.5972H64.2669Z" fill="#3F3D56"/>
<path d="M82.4355 72.5393C82.266 72.5393 82.0967 72.5263 81.9292 72.5003L71.8672 70.9442C71.2282 70.8454 70.6318 70.5623 70.1514 70.1295C69.6711 69.6967 69.3276 69.1331 69.1632 68.5079L64.2293 49.7585C63.9278 48.9002 63.6961 48.0189 63.5364 47.1233L63.4116 46.3031C63.0759 43.6827 63.3541 41.0201 64.2242 38.5256C65.0943 36.0311 66.5326 33.7729 68.4255 31.9293C70.3183 30.0857 72.6139 28.7072 75.1311 27.9025C77.6483 27.0979 80.3181 26.8891 82.9298 27.2928L82.8863 27.5735C80.303 27.1755 77.6625 27.3866 75.1753 28.1899C72.6881 28.9931 70.4231 30.3663 68.561 32.1999C66.699 34.0335 65.2913 36.2767 64.4504 38.7506C63.6095 41.2246 63.3586 43.8607 63.7177 46.4488L63.8136 47.0623C63.9721 47.9503 64.2019 48.8242 64.5008 49.6753L69.438 68.4356C69.5883 69.0074 69.9024 69.5228 70.3417 69.9185C70.7809 70.3143 71.3263 70.5732 71.9107 70.6635L81.9726 72.2196C82.5941 72.3151 83.2299 72.2157 83.7925 71.935C84.3551 71.6543 84.8169 71.2062 85.1142 70.6524L85.3647 70.7863C85.0804 71.3158 84.6579 71.7584 84.1422 72.067C83.6264 72.3757 83.0366 72.5389 82.4355 72.5393Z" fill="#D0CDE1"/>
<path d="M84.9875 50.6743L78.8652 67.385L79.2103 67.5113L85.3326 50.8006L84.9875 50.6743Z" fill="#D0CDE1"/>
<path d="M74.9911 49.1282L74.624 49.1443L75.4055 66.9233L75.7726 66.9072L74.9911 49.1282Z" fill="#D0CDE1"/>
<path d="M81.5842 81.0396L68.6911 79.0457C68.5952 79.0303 68.5093 78.9776 68.4522 78.8991C68.395 78.8206 68.3713 78.7227 68.3862 78.6268C68.401 78.5308 68.4532 78.4447 68.5314 78.3871C68.6096 78.3296 68.7074 78.3053 68.8034 78.3196L81.6966 80.3135C81.7445 80.3206 81.7905 80.3371 81.8321 80.3621C81.8736 80.3871 81.9097 80.42 81.9384 80.459C81.9672 80.498 81.9879 80.5422 81.9995 80.5893C82.011 80.6363 82.0131 80.6852 82.0057 80.733C81.9983 80.7809 81.9815 80.8268 81.9563 80.8681C81.9311 80.9095 81.8979 80.9454 81.8587 80.9739C81.8196 81.0024 81.7752 81.0229 81.728 81.0341C81.6809 81.0454 81.6321 81.0473 81.5842 81.0396Z" fill="#3F3D56"/>
<path d="M81.9156 78.3026L69.0224 76.3087C68.9745 76.3015 68.9285 76.285 68.887 76.26C68.8455 76.2351 68.8093 76.2021 68.7806 76.1631C68.7519 76.1241 68.7311 76.0799 68.7196 76.0328C68.708 75.9858 68.7059 75.937 68.7133 75.8891C68.7207 75.8412 68.7375 75.7953 68.7627 75.754C68.788 75.7126 68.8211 75.6767 68.8603 75.6482C68.8994 75.6197 68.9439 75.5992 68.991 75.588C69.0381 75.5767 69.087 75.5749 69.1348 75.5825L82.028 77.5765C82.0759 77.5836 82.1219 77.6001 82.1634 77.6251C82.2049 77.65 82.2411 77.683 82.2698 77.722C82.2985 77.761 82.3193 77.8052 82.3308 77.8523C82.3424 77.8993 82.3445 77.9481 82.3371 77.996C82.3297 78.0439 82.3129 78.0898 82.2877 78.1311C82.2625 78.1725 82.2293 78.2084 82.1901 78.2369C82.151 78.2654 82.1065 78.2859 82.0594 78.2971C82.0123 78.3084 81.9634 78.3102 81.9156 78.3026Z" fill="#3F3D56"/>
<path d="M82.2454 75.5656L69.3522 73.5717C69.2563 73.5563 69.1704 73.5036 69.1133 73.4251C69.0562 73.3466 69.0324 73.2487 69.0473 73.1528C69.0621 73.0569 69.1144 72.9707 69.1925 72.9131C69.2707 72.8556 69.3685 72.8313 69.4646 72.8456L82.3577 74.8395C82.4536 74.8549 82.5395 74.9076 82.5966 74.986C82.6537 75.0645 82.6775 75.1624 82.6626 75.2584C82.6478 75.3543 82.5956 75.4404 82.5174 75.498C82.4392 75.5556 82.3414 75.5799 82.2454 75.5656H82.2454Z" fill="#3F3D56"/>
<path d="M74.7379 82.6322C77.2953 83.0277 79.5891 81.9235 79.8611 80.1659L70.5997 78.7336C70.3277 80.4913 72.1805 82.2367 74.7379 82.6322Z" fill="#3F3D56"/>
<path d="M79.3721 47.1537C78.8219 47.0687 78.3668 46.634 78.1173 46.3427C78.0354 46.2471 77.9558 46.1481 77.8759 46.0488C77.5853 45.6872 77.311 45.3457 76.9289 45.1676C76.0855 44.7742 75.0917 45.3237 74.2313 45.9131L74.0234 45.6102C74.9694 44.9619 76.0725 44.363 77.0843 44.8346C77.5439 45.0489 77.8584 45.4402 78.1624 45.8186C78.2398 45.915 78.3171 46.0111 78.3964 46.1037C78.6558 46.4066 79.1733 46.8974 79.7278 46.7842C79.9614 46.7161 80.1787 46.6011 80.3664 46.4462C80.5094 46.3396 80.6605 46.2443 80.8183 46.1612C81.1385 46.0077 81.4969 45.9523 81.8484 46.002C82.1999 46.0517 82.5289 46.2042 82.794 46.4403C82.8885 46.5298 82.978 46.6244 83.0621 46.7237C83.2274 46.9121 83.3835 47.0899 83.5866 47.1545C83.887 47.2505 84.2045 47.0789 84.5409 46.8976C84.8878 46.7105 85.2464 46.5169 85.6532 46.5646C85.6664 46.5662 85.6797 46.568 85.6929 46.57C86.4167 46.682 86.7505 47.4823 86.9393 48.0795L86.5888 48.1902C86.3322 47.3783 86.0197 46.9746 85.6101 46.9295C85.3187 46.8953 85.0257 47.0534 84.7154 47.2208C84.3265 47.4308 83.9239 47.6478 83.4751 47.5046C83.1746 47.409 82.9769 47.1839 82.7858 46.9661C82.7105 46.8769 82.6304 46.7919 82.5459 46.7114C82.3348 46.5266 82.0745 46.4073 81.7966 46.368C81.5188 46.3288 81.2355 46.3713 80.9815 46.4904C80.8408 46.5652 80.7061 46.6507 80.5785 46.7462C80.3505 46.9321 80.0857 47.0677 79.8015 47.1441C79.6601 47.1729 79.5146 47.1762 79.3721 47.1537Z" fill="#D0CDE1"/>
</g>
<defs>
<clipPath id="clip0">
<rect width="143.913" height="120" fill="white" transform="translate(0 0.701416)"/>
</clipPath>
</defs>
</svg>
