<svg width="455" height="241" viewBox="0 0 455 241" fill="none" xmlns="http://www.w3.org/2000/svg">
<g clip-path="url(#clip0)">
<g opacity="0.2">
<path opacity="0.2" d="M210.561 131.24C210.561 119.879 207.06 109.556 201.353 101.875C203.374 97.6746 204.297 93.0301 204.035 88.376C203.774 83.7219 202.335 79.2103 199.855 75.2636C197.375 71.3168 193.934 68.0639 189.855 65.8092C185.775 63.5545 181.191 62.3718 176.53 62.3718C171.869 62.3718 167.284 63.5545 163.204 65.8092C159.125 68.0639 155.684 71.3168 153.204 75.2636C150.724 79.2103 149.286 83.7219 149.024 88.376C148.762 93.0301 149.685 97.6746 151.706 101.875C145.999 109.556 142.498 119.879 142.498 131.24C142.498 142.601 145.999 152.924 151.706 160.605C149.685 164.805 148.762 169.45 149.024 174.104C149.286 178.758 150.724 183.269 153.204 187.216C155.684 191.163 159.125 194.416 163.204 196.67C167.284 198.925 171.869 200.108 176.53 200.108C181.191 200.108 185.775 198.925 189.855 196.67C193.934 194.416 197.375 191.163 199.855 187.216C202.335 183.269 203.774 178.758 204.035 174.104C204.297 169.45 203.374 164.805 201.353 160.605C207.06 152.924 210.561 142.601 210.561 131.24Z" fill="#FF5C00"/>
<path opacity="0.1" d="M210.561 131.24C210.561 119.879 207.06 109.556 201.353 101.875C203.374 97.6746 204.297 93.0301 204.035 88.376C203.774 83.7219 202.335 79.2103 199.855 75.2636C197.375 71.3168 193.934 68.0639 189.855 65.8092C185.775 63.5545 181.191 62.3718 176.53 62.3718C171.869 62.3718 167.284 63.5545 163.204 65.8092C159.125 68.0639 155.684 71.3168 153.204 75.2636C150.724 79.2103 149.286 83.7219 149.024 88.376C148.762 93.0301 149.685 97.6746 151.706 101.875C145.999 109.556 142.498 119.879 142.498 131.24C142.498 142.601 145.999 152.924 151.706 160.605C149.685 164.805 148.762 169.45 149.024 174.104C149.286 178.758 150.724 183.269 153.204 187.216C155.684 191.163 159.125 194.416 163.204 196.67C167.284 198.925 171.869 200.108 176.53 200.108C181.191 200.108 185.775 198.925 189.855 196.67C193.934 194.416 197.375 191.163 199.855 187.216C202.335 183.269 203.774 178.758 204.035 174.104C204.297 169.45 203.374 164.805 201.353 160.605C207.06 152.924 210.561 142.601 210.561 131.24Z" fill="#FF5C00"/>
<path opacity="0.2" d="M212.181 131.24C212.181 119.879 208.68 109.556 202.973 101.875C204.995 97.6746 205.918 93.0301 205.656 88.376C205.394 83.7219 203.955 79.2103 201.475 75.2636C198.995 71.3168 195.554 68.0639 191.475 65.8092C187.395 63.5545 182.811 62.3718 178.15 62.3718C173.489 62.3718 168.904 63.5545 164.825 65.8092C160.745 68.0639 157.304 71.3168 154.824 75.2636C152.344 79.2103 150.906 83.7219 150.644 88.376C150.382 93.0301 151.305 97.6746 153.327 101.875C147.619 109.556 144.118 119.879 144.118 131.24C144.118 142.601 147.619 152.924 153.327 160.605C151.305 164.805 150.382 169.449 150.644 174.104C150.906 178.758 152.344 183.269 154.824 187.216C157.304 191.163 160.745 194.416 164.825 196.67C168.904 198.925 173.489 200.108 178.15 200.108C182.811 200.108 187.395 198.925 191.475 196.67C195.554 194.416 198.995 191.163 201.475 187.216C203.955 183.269 205.394 178.758 205.656 174.104C205.918 169.449 204.995 164.805 202.973 160.605C208.68 152.924 212.181 142.601 212.181 131.24Z" fill="#FF5C00"/>
<path opacity="0.2" d="M181.391 235.778H174.909L178.15 128.808L181.391 235.778Z" fill="#FF5C00"/>
<path opacity="0.2" d="M178.96 155.543L200.027 146.637L178.96 157.982V155.543Z" fill="#FF5C00"/>
<path opacity="0.2" d="M177.046 165.275L170.858 157.982L176.923 169.327L177.046 165.275Z" fill="#FF5C00"/>
</g>
<g opacity="0.2">
<path opacity="0.2" d="M259.989 167.95C259.989 160.607 257.726 153.935 254.038 148.97C255.344 146.256 255.941 143.254 255.772 140.246C255.602 137.238 254.673 134.322 253.07 131.771C251.467 129.22 249.243 127.117 246.606 125.66C243.969 124.203 241.006 123.438 237.994 123.438C234.981 123.438 232.018 124.203 229.381 125.66C226.745 127.117 224.521 129.22 222.918 131.771C221.315 134.322 220.385 137.238 220.216 140.246C220.047 143.254 220.643 146.256 221.95 148.97C218.261 153.935 215.998 160.607 215.998 167.95C215.998 175.293 218.261 181.965 221.95 186.929C220.643 189.644 220.047 192.646 220.216 195.654C220.385 198.662 221.315 201.578 222.918 204.129C224.521 206.68 226.745 208.782 229.381 210.24C232.018 211.697 234.981 212.461 237.994 212.461C241.006 212.461 243.969 211.697 246.606 210.24C249.243 208.782 251.467 206.68 253.07 204.129C254.673 201.578 255.602 198.662 255.772 195.654C255.941 192.646 255.344 189.644 254.038 186.929C257.726 181.965 259.989 175.293 259.989 167.95Z" fill="#FF5C00"/>
<path opacity="0.1" d="M259.989 167.95C259.989 160.607 257.726 153.935 254.038 148.97C255.344 146.256 255.941 143.254 255.772 140.246C255.602 137.238 254.673 134.322 253.07 131.771C251.467 129.22 249.243 127.117 246.606 125.66C243.969 124.203 241.006 123.438 237.994 123.438C234.981 123.438 232.018 124.203 229.381 125.66C226.745 127.117 224.521 129.22 222.918 131.771C221.315 134.322 220.385 137.238 220.216 140.246C220.047 143.254 220.643 146.256 221.95 148.97C218.261 153.935 215.998 160.607 215.998 167.95C215.998 175.293 218.261 181.965 221.95 186.929C220.643 189.644 220.047 192.646 220.216 195.654C220.385 198.662 221.315 201.578 222.918 204.129C224.521 206.68 226.745 208.782 229.381 210.24C232.018 211.697 234.981 212.461 237.994 212.461C241.006 212.461 243.969 211.697 246.606 210.24C249.243 208.782 251.467 206.68 253.07 204.129C254.673 201.578 255.602 198.662 255.772 195.654C255.941 192.646 255.344 189.644 254.038 186.929C257.726 181.965 259.989 175.293 259.989 167.95Z" fill="#FF5C00"/>
<path opacity="0.2" d="M261.036 167.95C261.036 160.607 258.773 153.935 255.085 148.97C256.391 146.256 256.988 143.254 256.818 140.246C256.649 137.238 255.72 134.322 254.117 131.771C252.514 129.22 250.29 127.117 247.653 125.66C245.016 124.203 242.053 123.438 239.041 123.438C236.028 123.438 233.065 124.203 230.428 125.66C227.791 127.117 225.568 129.22 223.965 131.771C222.362 134.322 221.432 137.238 221.263 140.246C221.093 143.254 221.69 146.256 222.997 148.97C219.308 153.935 217.045 160.607 217.045 167.95C217.045 175.293 219.308 181.965 222.997 186.929C221.69 189.644 221.093 192.646 221.263 195.654C221.432 198.662 222.362 201.578 223.965 204.129C225.568 206.68 227.791 208.782 230.428 210.24C233.065 211.697 236.028 212.461 239.041 212.461C242.053 212.461 245.016 211.697 247.653 210.24C250.29 208.782 252.514 206.68 254.117 204.129C255.72 201.578 256.649 198.662 256.818 195.654C256.988 192.646 256.391 189.644 255.085 186.929C258.773 181.965 261.036 175.293 261.036 167.95Z" fill="#FF5C00"/>
<path opacity="0.2" d="M241.136 235.516H236.946L239.041 166.378L241.136 235.516Z" fill="#FF5C00"/>
<path opacity="0.2" d="M239.564 183.658L253.181 177.902L239.564 185.234V183.658Z" fill="#FF5C00"/>
<path opacity="0.2" d="M238.327 189.948L234.327 185.234L238.247 192.567L238.327 189.948Z" fill="#FF5C00"/>
</g>
<path d="M193.479 209.502H192.729V220.763H193.479V209.502Z" fill="#535461"/>
<path d="M193.854 222.264H191.978V235.402H193.854V222.264Z" fill="#535461"/>
<path d="M233.638 222.264H231.762V235.402H233.638V222.264Z" fill="#535461"/>
<path opacity="0.1" d="M193.854 222.264H191.978V235.402H193.854V222.264Z" fill="black"/>
<path opacity="0.1" d="M233.638 222.264H231.762V235.402H233.638V222.264Z" fill="black"/>
<path d="M232.512 220.763H233.263V209.502H232.512V220.763Z" fill="#535461"/>
<path opacity="0.1" d="M193.479 209.502H192.729V220.763H193.479V209.502Z" fill="black"/>
<path opacity="0.1" d="M232.512 220.763H233.263V209.502H232.512V220.763Z" fill="black"/>
<path d="M236.64 208.751H189.35V211.003H236.64V208.751Z" fill="#535461"/>
<path d="M236.64 212.505H189.35V214.757H236.64V212.505Z" fill="#535461"/>
<path d="M236.64 216.259H189.35V218.511H236.64V216.259Z" fill="#535461"/>
<path d="M236.64 220.388H189.35V224.517H236.64V220.388Z" fill="#535461"/>
<path d="M148.628 73.4318H131.738V106.089H148.628V73.4318Z" fill="#E0E0E0"/>
<path d="M166.081 123.543V235.027H14.4502V123.543L27.211 115.698L39.2216 108.311L90.4529 76.8099L166.081 123.543Z" fill="#EEEEEE"/>
<path opacity="0.1" d="M146.938 235.027V117.774L144.687 119.159V235.027H146.938Z" fill="black"/>
<path d="M107.154 183.039H73.375V234.839H107.154V183.039Z" fill="#FF5C00"/>
<path d="M102.087 210.44C102.916 210.44 103.589 209.768 103.589 208.939C103.589 208.11 102.916 207.437 102.087 207.437C101.258 207.437 100.586 208.11 100.586 208.939C100.586 209.768 101.258 210.44 102.087 210.44Z" fill="#535461"/>
<path opacity="0.1" d="M148.628 73.8071H131.738V75.684H148.628V73.8071Z" fill="black"/>
<path d="M151.255 71.5549H128.735V75.3086H151.255V71.5549Z" fill="#E0E0E0"/>
<path opacity="0.1" d="M166.08 149.819H14.4502V152.822H166.08V149.819Z" fill="black"/>
<path d="M166.08 149.443H14.4502V152.446H166.08V149.443Z" fill="white"/>
<path opacity="0.1" d="M146.939 71.5549H142.811V106.089H146.939V71.5549Z" fill="black"/>
<path opacity="0.1" d="M140.934 71.7427H139.808V106.276H140.934V71.7427Z" fill="black"/>
<path opacity="0.1" d="M162.327 119.039V235.027H150.317V115.698L162.327 119.039Z" fill="black"/>
<path opacity="0.1" d="M35.8436 108.311V235.027H23.833V115.698L35.8436 108.311Z" fill="black"/>
<path opacity="0.1" d="M20.4551 235.027V117.774L18.2031 119.159V235.027H20.4551Z" fill="black"/>
<path opacity="0.1" d="M90.4528 64.4229L0 130.112L6.00497 139.872L90.4528 82.4405L174.9 139.872L180.906 130.112L90.4528 64.4229Z" fill="black"/>
<path d="M90.4528 63.6725L0 129.362L6.00497 139.121L90.4528 81.6901L174.9 139.121L180.906 129.362L90.4528 63.6725Z" fill="#FF5C00"/>
<path opacity="0.7" d="M58.5505 170.276H27.0234V201.807H58.5505V170.276Z" fill="#FF5C00"/>
<path opacity="0.1" d="M59.489 200.869H25.71V204.622H59.489V200.869Z" fill="black"/>
<path d="M59.489 200.118H25.71V203.871H59.489V200.118Z" fill="#535461"/>
<path opacity="0.15" d="M40.2047 170.464L27.2109 188.395V179.259L34.5147 170.464H40.2047Z" fill="white"/>
<path opacity="0.15" d="M51.3669 170.464L27.2109 195.846V191.368L45.2375 170.464H51.3669Z" fill="white"/>
<path d="M27.0234 186.042H58.5505" stroke="#535461" stroke-width="2" stroke-miterlimit="10"/>
<path d="M27.2109 170.464H58.738" stroke="#535461" stroke-width="2" stroke-miterlimit="10"/>
<path d="M58.3633 170.464V201.995" stroke="#535461" stroke-width="2" stroke-miterlimit="10"/>
<path d="M27.2109 170.089V201.619" stroke="#535461" stroke-width="2" stroke-miterlimit="10"/>
<path opacity="0.7" d="M121.98 201.807H153.507V170.276H121.98V201.807Z" fill="#FF5C00"/>
<path opacity="0.1" d="M121.041 204.622H154.82V200.869H121.041V204.622Z" fill="black"/>
<path d="M121.041 203.871H154.82V200.118H121.041V203.871Z" fill="#535461"/>
<path opacity="0.15" d="M140.325 170.464L153.319 188.395V179.259L146.015 170.464H140.325Z" fill="white"/>
<path opacity="0.15" d="M129.163 170.464L153.318 195.846V191.368L135.292 170.464H129.163Z" fill="white"/>
<path d="M153.507 186.042H121.979" stroke="#535461" stroke-width="2" stroke-miterlimit="10"/>
<path d="M153.319 170.464H121.792" stroke="#535461" stroke-width="2" stroke-miterlimit="10"/>
<path d="M122.167 170.464V201.995" stroke="#535461" stroke-width="2" stroke-miterlimit="10"/>
<path d="M153.319 170.089V201.619" stroke="#535461" stroke-width="2" stroke-miterlimit="10"/>
<path opacity="0.7" d="M74.3137 137.619H105.841V106.089H74.3137V137.619Z" fill="#FF5C00"/>
<path opacity="0.1" d="M73.3753 140.435H107.154V136.681H73.3753V140.435Z" fill="black"/>
<path d="M73.3753 139.684H107.154V135.93H73.3753V139.684Z" fill="#535461"/>
<path opacity="0.15" d="M92.6592 106.276L105.653 124.207V115.071L98.3491 106.276H92.6592Z" fill="white"/>
<path opacity="0.15" d="M81.498 106.276L105.653 131.658V127.18L87.6268 106.276H81.498Z" fill="white"/>
<path d="M105.841 121.854H74.3135" stroke="#535461" stroke-width="2" stroke-miterlimit="10"/>
<path d="M105.653 106.276H74.126" stroke="#535461" stroke-width="2" stroke-miterlimit="10"/>
<path d="M90.0771 106.089V137.619" stroke="#535461" stroke-width="2" stroke-miterlimit="10"/>
<path d="M74.502 106.276V137.807" stroke="#535461" stroke-width="2" stroke-miterlimit="10"/>
<path d="M105.653 105.901V137.432" stroke="#535461" stroke-width="2" stroke-miterlimit="10"/>
<path opacity="0.1" d="M419.047 149.068H409.289V235.027H419.047V149.068Z" fill="black"/>
<path d="M400.47 73.4318H383.58V106.089H400.47V73.4318Z" fill="#E0E0E0"/>
<path d="M417.921 123.543V235.027H266.291V123.543L279.052 115.698L291.062 108.311L342.294 76.8099L417.921 123.543Z" fill="#EEEEEE"/>
<path d="M358.996 183.039H325.217V234.839H358.996V183.039Z" fill="#FF5C00"/>
<path d="M353.929 210.44C354.758 210.44 355.43 209.768 355.43 208.939C355.43 208.11 354.758 207.437 353.929 207.437C353.1 207.437 352.428 208.11 352.428 208.939C352.428 209.768 353.1 210.44 353.929 210.44Z" fill="#535461"/>
<path opacity="0.1" d="M400.47 73.8071H383.58V75.684H400.47V73.8071Z" fill="black"/>
<path d="M403.096 71.5549H380.577V75.3086H403.096V71.5549Z" fill="#E0E0E0"/>
<path opacity="0.1" d="M417.921 149.819H266.291V152.822H417.921V149.819Z" fill="black"/>
<path d="M417.921 149.443H266.291V152.446H417.921V149.443Z" fill="white"/>
<path opacity="0.1" d="M398.78 71.5549H394.651V106.089H398.78V71.5549Z" fill="black"/>
<path opacity="0.1" d="M392.774 71.7427H391.648V106.276H392.774V71.7427Z" fill="black"/>
<path opacity="0.1" d="M414.169 119.039V235.027H402.158V115.698L414.169 119.039Z" fill="black"/>
<path opacity="0.1" d="M287.684 108.311V235.027H275.674V115.698L287.684 108.311Z" fill="black"/>
<path opacity="0.1" d="M272.296 235.027V117.774L270.044 119.159V235.027H272.296Z" fill="black"/>
<path opacity="0.1" d="M342.295 64.4229L251.842 130.112L257.847 139.872L342.295 82.4405L426.742 139.872L432.747 130.112L342.295 64.4229Z" fill="black"/>
<path d="M342.295 63.6725L251.842 129.362L257.847 139.121L342.295 81.6901L426.742 139.121L432.747 129.362L342.295 63.6725Z" fill="#FF5C00"/>
<path opacity="0.7" d="M310.391 170.276H278.864V201.807H310.391V170.276Z" fill="#FF5C00"/>
<path opacity="0.1" d="M311.33 200.869H277.551V204.622H311.33V200.869Z" fill="black"/>
<path d="M311.33 200.118H277.551V203.871H311.33V200.118Z" fill="#535461"/>
<path opacity="0.15" d="M292.046 170.464L279.052 188.395V179.259L286.356 170.464H292.046Z" fill="white"/>
<path opacity="0.15" d="M303.208 170.464L279.052 195.846V191.368L297.079 170.464H303.208Z" fill="white"/>
<path d="M278.864 186.042H310.391" stroke="#535461" stroke-width="2" stroke-miterlimit="10"/>
<path d="M279.053 170.464H310.58" stroke="#535461" stroke-width="2" stroke-miterlimit="10"/>
<path d="M310.204 170.464V201.995" stroke="#535461" stroke-width="2" stroke-miterlimit="10"/>
<path d="M279.053 170.089V201.619" stroke="#535461" stroke-width="2" stroke-miterlimit="10"/>
<path opacity="0.7" d="M373.822 201.807H405.349V170.276H373.822V201.807Z" fill="#FF5C00"/>
<path opacity="0.1" d="M372.883 204.622H406.662V200.869H372.883V204.622Z" fill="black"/>
<path d="M372.883 203.871H406.662V200.118H372.883V203.871Z" fill="#535461"/>
<path opacity="0.15" d="M392.167 170.464L405.161 188.395V179.259L397.857 170.464H392.167Z" fill="white"/>
<path opacity="0.15" d="M381.005 170.464L405.161 195.846V191.368L387.134 170.464H381.005Z" fill="white"/>
<path d="M405.348 186.042H373.821" stroke="#535461" stroke-width="2" stroke-miterlimit="10"/>
<path d="M405.161 170.464H373.634" stroke="#535461" stroke-width="2" stroke-miterlimit="10"/>
<path d="M374.009 170.464V201.995" stroke="#535461" stroke-width="2" stroke-miterlimit="10"/>
<path d="M405.161 170.089V201.619" stroke="#535461" stroke-width="2" stroke-miterlimit="10"/>
<path opacity="0.7" d="M326.156 137.619H357.683V106.089H326.156V137.619Z" fill="#FF5C00"/>
<path opacity="0.1" d="M325.217 140.435H358.996V136.681H325.217V140.435Z" fill="black"/>
<path d="M325.217 139.684H358.996V135.93H325.217V139.684Z" fill="#535461"/>
<path opacity="0.15" d="M344.501 106.276L357.495 124.207V115.071L350.191 106.276H344.501Z" fill="white"/>
<path opacity="0.15" d="M333.339 106.276L357.495 131.658V127.18L339.468 106.276H333.339Z" fill="white"/>
<path d="M357.682 121.854H326.155" stroke="#535461" stroke-width="2" stroke-miterlimit="10"/>
<path d="M357.495 106.276H325.968" stroke="#535461" stroke-width="2" stroke-miterlimit="10"/>
<path d="M341.919 106.089V137.619" stroke="#535461" stroke-width="2" stroke-miterlimit="10"/>
<path d="M326.343 106.276V137.807" stroke="#535461" stroke-width="2" stroke-miterlimit="10"/>
<path d="M357.494 105.901V137.432" stroke="#535461" stroke-width="2" stroke-miterlimit="10"/>
<path d="M177.715 186.605C177.779 181.732 176.284 176.966 173.449 173.003C174.386 171.057 174.813 168.906 174.692 166.75C174.571 164.594 173.904 162.504 172.756 160.676C171.607 158.848 170.013 157.341 168.123 156.297C166.234 155.253 164.11 154.705 161.951 154.705C159.792 154.705 157.668 155.253 155.779 156.297C153.889 157.341 152.295 158.848 151.147 160.676C149.998 162.504 149.332 164.594 149.21 166.75C149.089 168.906 149.516 171.057 150.453 173.003C147.676 176.995 146.188 181.741 146.188 186.605C146.188 191.468 147.676 196.214 150.453 200.207C149.516 202.152 149.089 204.303 149.21 206.459C149.332 208.615 149.998 210.705 151.147 212.533C152.295 214.361 153.889 215.868 155.779 216.912C157.668 217.957 159.792 218.505 161.951 218.505C164.11 218.505 166.234 217.957 168.123 216.912C170.013 215.868 171.607 214.361 172.756 212.533C173.904 210.705 174.571 208.615 174.692 206.459C174.813 204.303 174.386 202.152 173.449 200.207C176.284 196.243 177.779 191.477 177.715 186.605Z" fill="#4DB6AC"/>
<path opacity="0.1" d="M177.715 186.605C177.779 181.732 176.284 176.966 173.449 173.003C174.386 171.057 174.813 168.906 174.692 166.75C174.571 164.594 173.904 162.504 172.756 160.676C171.607 158.848 170.013 157.341 168.123 156.297C166.234 155.253 164.11 154.705 161.951 154.705C159.792 154.705 157.668 155.253 155.779 156.297C153.889 157.341 152.295 158.848 151.147 160.676C149.998 162.504 149.332 164.594 149.21 166.75C149.089 168.906 149.516 171.057 150.453 173.003C147.676 176.995 146.188 181.741 146.188 186.605C146.188 191.468 147.676 196.214 150.453 200.207C149.516 202.152 149.089 204.303 149.21 206.459C149.332 208.615 149.998 210.705 151.147 212.533C152.295 214.361 153.889 215.868 155.779 216.912C157.668 217.957 159.792 218.505 161.951 218.505C164.11 218.505 166.234 217.957 168.123 216.912C170.013 215.868 171.607 214.361 172.756 212.533C173.904 210.705 174.571 208.615 174.692 206.459C174.813 204.303 174.386 202.152 173.449 200.207C176.284 196.243 177.779 191.477 177.715 186.605Z" fill="black"/>
<path d="M178.466 186.605C178.53 181.732 177.035 176.966 174.2 173.003C175.137 171.057 175.564 168.906 175.443 166.75C175.322 164.594 174.655 162.504 173.506 160.676C172.358 158.848 170.764 157.341 168.874 156.297C166.985 155.253 164.861 154.705 162.702 154.705C160.543 154.705 158.419 155.253 156.53 156.297C154.64 157.341 153.046 158.848 151.898 160.676C150.749 162.504 150.083 164.594 149.961 166.75C149.84 168.906 150.267 171.057 151.204 173.003C148.427 176.995 146.938 181.741 146.938 186.605C146.938 191.468 148.427 196.214 151.204 200.207C150.267 202.152 149.84 204.303 149.961 206.459C150.083 208.615 150.749 210.705 151.898 212.533C153.046 214.361 154.64 215.868 156.53 216.912C158.419 217.957 160.543 218.505 162.702 218.505C164.861 218.505 166.985 217.957 168.874 216.912C170.764 215.868 172.358 214.361 173.506 212.533C174.655 210.705 175.322 208.615 175.443 206.459C175.564 204.303 175.137 202.152 174.2 200.207C177.035 196.243 178.53 191.477 178.466 186.605Z" fill="#4DB6AC"/>
<path d="M164.204 235.027H161.201L162.703 185.478L164.204 235.027Z" fill="#5D291B"/>
<path d="M163.077 197.862L172.836 193.736L163.077 198.992V197.862Z" fill="#5D291B"/>
<path d="M162.19 202.37L159.324 198.992L162.133 204.247L162.19 202.37Z" fill="#5D291B"/>
<path d="M281.679 186.605C281.743 181.732 280.249 176.966 277.414 173.003C278.35 171.057 278.778 168.906 278.657 166.75C278.535 164.594 277.869 162.504 276.72 160.676C275.572 158.848 273.978 157.341 272.088 156.297C270.199 155.253 268.075 154.705 265.916 154.705C263.757 154.705 261.633 155.253 259.744 156.297C257.854 157.341 256.26 158.848 255.111 160.676C253.963 162.504 253.296 164.594 253.175 166.75C253.054 168.906 253.481 171.057 254.418 173.003C251.641 176.995 250.152 181.741 250.152 186.605C250.152 191.468 251.641 196.214 254.418 200.207C253.481 202.152 253.054 204.303 253.175 206.459C253.296 208.615 253.963 210.705 255.111 212.533C256.26 214.361 257.854 215.868 259.744 216.912C261.633 217.957 263.757 218.504 265.916 218.504C268.075 218.504 270.199 217.957 272.088 216.912C273.978 215.868 275.572 214.361 276.72 212.533C277.869 210.705 278.535 208.615 278.657 206.459C278.778 204.303 278.35 202.152 277.414 200.207C280.249 196.243 281.743 191.477 281.679 186.605Z" fill="#4DB6AC"/>
<path opacity="0.1" d="M281.679 186.605C281.743 181.732 280.249 176.966 277.414 173.003C278.35 171.057 278.778 168.906 278.657 166.75C278.535 164.594 277.869 162.504 276.72 160.676C275.572 158.848 273.978 157.341 272.088 156.297C270.199 155.253 268.075 154.705 265.916 154.705C263.757 154.705 261.633 155.253 259.744 156.297C257.854 157.341 256.26 158.848 255.111 160.676C253.963 162.504 253.296 164.594 253.175 166.75C253.054 168.906 253.481 171.057 254.418 173.003C251.641 176.995 250.152 181.741 250.152 186.605C250.152 191.468 251.641 196.214 254.418 200.207C253.481 202.152 253.054 204.303 253.175 206.459C253.296 208.615 253.963 210.705 255.111 212.533C256.26 214.361 257.854 215.868 259.744 216.912C261.633 217.957 263.757 218.504 265.916 218.504C268.075 218.504 270.199 217.957 272.088 216.912C273.978 215.868 275.572 214.361 276.72 212.533C277.869 210.705 278.535 208.615 278.657 206.459C278.778 204.303 278.35 202.152 277.414 200.207C280.249 196.243 281.743 191.477 281.679 186.605Z" fill="black"/>
<path d="M282.43 186.605C282.494 181.732 281 176.966 278.165 173.003C279.101 171.057 279.529 168.906 279.408 166.75C279.286 164.594 278.62 162.504 277.471 160.676C276.322 158.848 274.729 157.341 272.839 156.297C270.949 155.253 268.826 154.705 266.667 154.705C264.508 154.705 262.384 155.253 260.495 156.297C258.605 157.341 257.011 158.848 255.862 160.676C254.714 162.504 254.047 164.594 253.926 166.75C253.805 168.906 254.232 171.057 255.169 173.003C252.392 176.995 250.903 181.741 250.903 186.605C250.903 191.468 252.392 196.214 255.169 200.207C254.232 202.152 253.805 204.303 253.926 206.459C254.047 208.615 254.714 210.705 255.862 212.533C257.011 214.361 258.605 215.868 260.495 216.912C262.384 217.957 264.508 218.505 266.667 218.505C268.826 218.505 270.949 217.957 272.839 216.912C274.729 215.868 276.322 214.361 277.471 212.533C278.62 210.705 279.286 208.615 279.408 206.459C279.529 204.303 279.101 202.152 278.165 200.207C281 196.243 282.494 191.477 282.43 186.605Z" fill="#4DB6AC"/>
<path d="M268.168 235.027H265.165L266.666 185.478L268.168 235.027Z" fill="#5D291B"/>
<path d="M267.042 197.862L276.8 193.736L267.042 198.992V197.862Z" fill="#5D291B"/>
<path d="M266.154 202.37L263.288 198.992L266.098 204.247L266.154 202.37Z" fill="#5D291B"/>
<g opacity="0.7">
<path opacity="0.7" d="M206.853 218.887L206.544 218.829L207.153 216.581C208.114 209.379 204.486 208.653 203.126 208.629C202.969 208.571 202.81 208.523 202.648 208.483V207.634C203.504 207.423 204.279 206.965 204.877 206.318C205.476 205.671 205.872 204.862 206.016 203.992L206.027 203.993C206.243 203.993 206.419 203.665 206.419 203.259C206.427 203.044 206.368 202.832 206.248 202.653C206.264 202.498 206.272 202.34 206.272 202.181C206.272 201.547 206.144 200.919 205.895 200.336C205.646 199.753 205.281 199.226 204.823 198.788C204.76 198.474 204.648 198.172 204.491 197.893C204.157 197.305 203.601 196.691 203.828 196.054L202.361 196.205L202.347 195.238C201.889 195.32 201.698 195.851 201.426 196.228C200.773 197.137 199.462 197.263 198.595 197.971C198.301 198.212 197.637 198.944 197.763 199.423C197.181 200.225 196.867 201.19 196.869 202.181C196.869 202.34 196.877 202.498 196.892 202.653C196.773 202.832 196.713 203.044 196.722 203.259C196.722 203.665 196.897 203.993 197.114 203.993L197.121 203.993C197.267 204.862 197.663 205.671 198.262 206.318C198.862 206.965 199.637 207.422 200.493 207.634V208.483C200.331 208.523 200.171 208.571 200.015 208.629C198.655 208.653 195.027 209.379 195.987 216.581L196.597 218.829L196.452 218.856C196.016 218.938 195.63 219.189 195.38 219.554C195.129 219.92 195.034 220.37 195.115 220.806L197.52 233.688C197.544 233.82 197.62 233.937 197.731 234.012C197.842 234.088 197.978 234.117 198.11 234.092L198.534 234.013V234.264C198.299 234.38 198.101 234.56 197.962 234.782C197.824 235.005 197.75 235.262 197.75 235.525V235.684H200.591V235.525C200.591 235.281 200.527 235.042 200.407 234.831C200.287 234.619 200.114 234.442 199.905 234.318V233.757L200.292 233.685C200.358 233.673 200.42 233.648 200.476 233.612C200.531 233.575 200.579 233.528 200.617 233.474C200.654 233.419 200.681 233.357 200.695 233.292C200.708 233.227 200.709 233.16 200.697 233.095L198.438 220.99H204.703L202.444 233.095C202.419 233.227 202.448 233.363 202.524 233.474C202.599 233.584 202.716 233.66 202.848 233.685L203.235 233.757V234.318C203.026 234.442 202.853 234.619 202.733 234.831C202.613 235.042 202.55 235.281 202.55 235.525V235.684H205.39V235.525C205.39 235.262 205.317 235.005 205.178 234.782C205.04 234.56 204.842 234.38 204.607 234.264V234.013L205.031 234.092C205.163 234.117 205.299 234.088 205.41 234.012C205.52 233.937 205.596 233.82 205.621 233.688L208.056 220.642C208.092 220.448 208.09 220.248 208.049 220.055C208.008 219.862 207.93 219.678 207.818 219.515C207.706 219.352 207.564 219.213 207.398 219.105C207.233 218.997 207.047 218.923 206.853 218.887Z" fill="url(#paint0_linear)"/>
</g>
<path d="M199.969 232.373H198.649V234.164H199.969V232.373Z" fill="#FDB797"/>
<path d="M204.491 232.373H203.172V234.164H204.491V232.373Z" fill="#FDB797"/>
<path d="M205.906 217.67H197.235V220.78H205.906V217.67Z" fill="#4D8AF0"/>
<g opacity="0.05">
<path opacity="0.05" d="M205.906 217.67H197.235V220.78H205.906V217.67Z" fill="black"/>
</g>
<path opacity="0.1" d="M197.235 218.236C198.662 218.583 200.11 218.835 201.57 218.99C203.031 218.835 204.479 218.583 205.906 218.236V217.764H197.235V218.236Z" fill="black"/>
<path d="M205.906 218.141C204.479 218.489 203.031 218.74 201.57 218.895C200.11 218.74 198.662 218.489 197.235 218.141V212.957C197.235 212.388 197.347 211.824 197.565 211.298C197.783 210.772 198.103 210.294 198.505 209.892C198.908 209.489 199.386 209.17 199.912 208.952C200.437 208.734 201.001 208.622 201.57 208.622C202.14 208.622 202.703 208.734 203.229 208.952C203.755 209.17 204.233 209.489 204.636 209.892C205.038 210.294 205.358 210.772 205.576 211.298C205.793 211.824 205.906 212.388 205.906 212.957V218.141Z" fill="#F55F44"/>
<path d="M200.534 206.454H202.608V208.829C202.608 208.963 202.581 209.095 202.53 209.219C202.479 209.342 202.404 209.455 202.31 209.549C202.215 209.644 202.103 209.718 201.979 209.77C201.856 209.821 201.724 209.847 201.59 209.847H201.552C201.418 209.847 201.286 209.821 201.162 209.77C201.039 209.718 200.927 209.644 200.832 209.549C200.738 209.455 200.663 209.342 200.612 209.219C200.561 209.095 200.534 208.963 200.534 208.829V206.454H200.534Z" fill="#FDB797"/>
<path d="M200.122 233.036L198.46 233.346C198.275 233.381 198.084 233.34 197.929 233.234C197.774 233.128 197.667 232.964 197.632 232.779L195.495 221.326C195.381 220.715 195.514 220.084 195.866 219.572C196.217 219.059 196.757 218.707 197.368 218.593L197.425 218.582C197.516 218.565 197.61 218.566 197.701 218.586C197.793 218.605 197.879 218.642 197.956 218.694C198.033 218.747 198.099 218.814 198.149 218.893C198.2 218.971 198.235 219.058 198.252 219.15L200.69 232.208C200.724 232.393 200.684 232.584 200.577 232.74C200.471 232.895 200.307 233.001 200.122 233.036Z" fill="#4D8AF0"/>
<path d="M203.077 233.047L204.623 233.335C204.722 233.354 204.824 233.353 204.923 233.332C205.022 233.311 205.115 233.271 205.198 233.214C205.282 233.157 205.353 233.084 205.408 232.999C205.463 232.915 205.501 232.82 205.519 232.721L207.657 221.268C207.768 220.673 207.638 220.058 207.296 219.558C206.953 219.058 206.426 218.715 205.831 218.604L205.774 218.593C205.675 218.575 205.573 218.576 205.475 218.597C205.376 218.618 205.282 218.658 205.199 218.715C205.116 218.772 205.044 218.845 204.989 218.929C204.934 219.014 204.896 219.108 204.878 219.208L202.462 232.15C202.425 232.351 202.469 232.558 202.584 232.726C202.699 232.894 202.876 233.009 203.077 233.047Z" fill="#4D8AF0"/>
<path opacity="0.1" d="M200.534 208.025C201.215 208.193 201.927 208.193 202.608 208.025V206.548H200.534V208.025Z" fill="black"/>
<path d="M201.57 207.208C204.069 207.208 206.094 205.183 206.094 202.684C206.094 200.185 204.069 198.16 201.57 198.16C199.072 198.16 197.047 200.185 197.047 202.684C197.047 205.183 199.072 207.208 201.57 207.208Z" fill="#333333"/>
<path d="M201.57 208.056C203.965 208.056 205.906 206.115 205.906 203.721C205.906 201.326 203.965 199.385 201.57 199.385C199.176 199.385 197.235 201.326 197.235 203.721C197.235 206.115 199.176 208.056 201.57 208.056Z" fill="#FDB797"/>
<path d="M198.708 198.633C199.542 197.952 200.803 197.831 201.431 196.957C201.693 196.593 201.877 196.083 202.318 196.004L202.331 196.934L203.742 196.789C203.524 197.402 204.059 197.992 204.38 198.558C204.616 198.977 204.746 199.447 204.756 199.928C204.267 200.222 203.659 199.901 203.114 199.73C202.576 199.588 202.021 199.521 201.464 199.53C201.18 199.51 200.894 199.526 200.613 199.577C200.372 199.643 200.137 199.729 199.91 199.836C199.535 199.993 198.35 200.586 198.001 200.204C197.605 199.77 198.386 198.896 198.708 198.633Z" fill="#333333"/>
<path opacity="0.1" d="M198.944 201.547C199.181 201.675 199.442 201.753 199.71 201.778C200.821 201.929 201.951 201.802 203 201.408C203.099 201.621 203.243 201.809 203.422 201.961C203.601 202.112 203.811 202.223 204.037 202.284C204.49 202.404 204.959 202.457 205.427 202.44C205.53 202.451 205.634 202.431 205.726 202.382C205.934 202.242 205.834 201.919 205.712 201.699L205.108 200.604C204.948 200.27 204.732 199.966 204.47 199.705C204.104 199.418 203.67 199.231 203.209 199.164C202.137 198.951 201.03 198.988 199.974 199.272C198.846 199.577 197.396 200.61 198.944 201.547Z" fill="black"/>
<path d="M198.944 201.452C199.181 201.581 199.442 201.659 199.71 201.683C200.821 201.835 201.951 201.708 203 201.313C203.099 201.526 203.243 201.715 203.422 201.867C203.601 202.018 203.811 202.129 204.037 202.19C204.49 202.31 204.959 202.362 205.427 202.345C205.53 202.357 205.634 202.337 205.726 202.288C205.934 202.147 205.834 201.825 205.712 201.605L205.108 200.51C204.948 200.176 204.732 199.872 204.47 199.611C204.104 199.323 203.67 199.137 203.209 199.07C202.137 198.857 201.03 198.894 199.974 199.178C198.846 199.483 197.396 200.516 198.944 201.452Z" fill="#333333"/>
<path d="M205.858 204.428C206.067 204.428 206.235 204.111 206.235 203.721C206.235 203.33 206.067 203.014 205.858 203.014C205.65 203.014 205.481 203.33 205.481 203.721C205.481 204.111 205.65 204.428 205.858 204.428Z" fill="#FDB797"/>
<path d="M197.282 204.428C197.49 204.428 197.659 204.111 197.659 203.721C197.659 203.33 197.49 203.014 197.282 203.014C197.074 203.014 196.905 203.33 196.905 203.721C196.905 204.111 197.074 204.428 197.282 204.428Z" fill="#FDB797"/>
<path d="M200.551 208.91C200.551 208.91 195.068 208.056 196.199 216.539L196.858 218.971L198.743 218.895C198.743 218.895 197.518 216.068 198.272 214.183C199.026 212.298 200.551 208.91 200.551 208.91Z" fill="#F55F44"/>
<path d="M202.59 208.91C202.59 208.91 208.073 208.056 206.942 216.539L206.283 218.971L204.398 218.895C204.398 218.895 205.623 216.068 204.869 214.183C204.115 212.298 202.59 208.91 202.59 208.91Z" fill="#F55F44"/>
<path d="M197.895 220.309C198.468 220.309 198.932 219.845 198.932 219.272C198.932 218.7 198.468 218.236 197.895 218.236C197.323 218.236 196.858 218.7 196.858 219.272C196.858 219.845 197.323 220.309 197.895 220.309Z" fill="#FDB797"/>
<path d="M205.434 220.309C206.007 220.309 206.471 219.845 206.471 219.272C206.471 218.7 206.007 218.236 205.434 218.236C204.862 218.236 204.397 218.7 204.397 219.272C204.397 219.845 204.862 220.309 205.434 220.309Z" fill="#FDB797"/>
<path d="M199.237 233.41H199.287C199.643 233.41 199.984 233.551 200.236 233.803C200.487 234.055 200.628 234.396 200.628 234.752V234.918H197.896V234.752C197.896 234.575 197.93 234.401 197.998 234.238C198.065 234.076 198.164 233.928 198.288 233.803C198.413 233.678 198.561 233.58 198.724 233.512C198.886 233.445 199.061 233.41 199.237 233.41Z" fill="#333333"/>
<path d="M203.854 233.41H203.904C204.26 233.41 204.601 233.551 204.853 233.803C205.104 234.055 205.246 234.396 205.246 234.752V234.918H202.513V234.752C202.513 234.575 202.547 234.401 202.615 234.238C202.682 234.076 202.781 233.928 202.906 233.803C203.03 233.678 203.178 233.58 203.341 233.512C203.503 233.445 203.678 233.41 203.854 233.41Z" fill="#333333"/>
<path opacity="0.1" d="M198.178 213.429C198.178 213.429 197.801 215.408 198.46 216.256L198.178 213.429Z" fill="black"/>
<path opacity="0.1" d="M204.963 213.429C204.963 213.429 205.34 215.408 204.681 216.256L204.963 213.429Z" fill="black"/>
<path d="M274.173 191.484C275.21 191.484 276.05 190.644 276.05 189.608C276.05 188.571 275.21 187.731 274.173 187.731C273.137 187.731 272.297 188.571 272.297 189.608C272.297 190.644 273.137 191.484 274.173 191.484Z" fill="#F55F44"/>
<path d="M42.1975 225.788C42.2106 225.616 42.2237 225.443 42.2237 225.267C42.2254 224.076 41.9117 222.905 41.3143 221.875C40.717 220.844 39.8574 219.99 38.823 219.399C37.7885 218.808 36.616 218.502 35.4248 218.511C34.2336 218.52 33.0661 218.845 32.041 219.452C31.5034 218.445 30.7194 217.592 29.7623 216.971C28.8052 216.349 27.7062 215.981 26.5681 215.9C25.4301 215.819 24.29 216.028 23.2547 216.508C22.2193 216.987 21.3224 217.721 20.6478 218.642C19.2761 218.368 17.8533 218.527 16.5758 219.097C15.2984 219.666 14.2294 220.619 13.5164 221.822C12.8034 223.026 12.4817 224.421 12.5957 225.815C12.7097 227.209 13.2537 228.534 14.1527 229.606C13.6691 230.858 13.5704 232.227 13.8692 233.536C14.1681 234.845 14.8508 236.036 15.83 236.954C16.8093 237.873 18.0404 238.479 19.3659 238.694C20.6913 238.908 22.0507 238.723 23.27 238.16C24.4645 238.713 25.795 238.902 27.0961 238.705C28.3973 238.507 29.6118 237.932 30.5887 237.05C31.4885 237.863 32.592 238.417 33.7817 238.653C34.9714 238.888 36.2028 238.797 37.3446 238.388C39.0027 238.975 40.8246 238.892 42.4226 238.157C44.0206 237.421 45.2686 236.091 45.9009 234.449C46.5332 232.808 46.5 230.984 45.8084 229.366C45.1167 227.749 43.8212 226.465 42.1975 225.788H42.1975Z" fill="#4DB6AC"/>
<path opacity="0.1" d="M42.1975 225.788C42.2106 225.616 42.2237 225.443 42.2237 225.267C42.2254 224.076 41.9117 222.905 41.3143 221.875C40.717 220.844 39.8574 219.99 38.823 219.399C37.7885 218.808 36.616 218.502 35.4248 218.511C34.2336 218.52 33.0661 218.845 32.041 219.452C31.5034 218.445 30.7194 217.592 29.7623 216.971C28.8052 216.349 27.7062 215.981 26.5681 215.9C25.4301 215.819 24.29 216.028 23.2547 216.508C22.2193 216.987 21.3224 217.721 20.6478 218.642C19.2761 218.368 17.8533 218.527 16.5758 219.097C15.2984 219.666 14.2294 220.619 13.5164 221.822C12.8034 223.026 12.4817 224.421 12.5957 225.815C12.7097 227.209 13.2537 228.534 14.1527 229.606C13.6691 230.858 13.5704 232.227 13.8692 233.536C14.1681 234.845 14.8508 236.036 15.83 236.954C16.8093 237.873 18.0404 238.479 19.3659 238.694C20.6913 238.908 22.0507 238.723 23.27 238.16C24.4645 238.713 25.795 238.902 27.0961 238.705C28.3973 238.507 29.6118 237.932 30.5887 237.05C31.4885 237.863 32.592 238.417 33.7817 238.653C34.9714 238.888 36.2028 238.797 37.3446 238.388C39.0027 238.975 40.8246 238.892 42.4226 238.157C44.0206 237.421 45.2686 236.091 45.9009 234.449C46.5332 232.808 46.5 230.984 45.8084 229.366C45.1167 227.749 43.8212 226.465 42.1975 225.788H42.1975Z" fill="black"/>
<path d="M42.9484 225.788C42.9616 225.616 42.9747 225.443 42.9747 225.267C42.9764 224.076 42.6627 222.905 42.0653 221.875C41.468 220.844 40.6084 219.99 39.5739 219.399C38.5395 218.808 37.367 218.502 36.1758 218.511C34.9846 218.52 33.8171 218.845 32.792 219.452C32.2544 218.445 31.4704 217.592 30.5133 216.971C29.5562 216.349 28.4572 215.981 27.3191 215.9C26.181 215.819 25.041 216.028 24.0056 216.508C22.9703 216.987 22.0734 217.721 21.3988 218.642C20.0271 218.368 18.6043 218.527 17.3268 219.097C16.0494 219.666 14.9803 220.619 14.2674 221.822C13.5544 223.026 13.2327 224.421 13.3467 225.815C13.4607 227.209 14.0047 228.534 14.9037 229.606C14.4201 230.858 14.3214 232.227 14.6202 233.536C14.919 234.845 15.6018 236.036 16.581 236.954C17.5602 237.873 18.7914 238.479 20.1168 238.694C21.4423 238.909 22.8017 238.723 24.0209 238.16C25.2155 238.713 26.5459 238.902 27.8471 238.705C29.1483 238.507 30.3627 237.932 31.3397 237.05C32.2395 237.863 33.343 238.417 34.5327 238.653C35.7224 238.888 36.9538 238.797 38.0955 238.388C39.7537 238.975 41.5756 238.892 43.1736 238.157C44.7716 237.421 46.0196 236.091 46.6519 234.449C47.2842 232.808 47.251 230.984 46.5593 229.366C45.8677 227.749 44.5722 226.465 42.9485 225.788H42.9484Z" fill="#4DB6AC"/>
<path d="M428.09 235.681H5.81738V240.003H428.09V235.681Z" fill="#333333"/>
<path d="M260.922 34.6265C270.482 34.6265 278.232 26.8757 278.232 17.3146C278.232 7.7535 270.482 0.00268555 260.922 0.00268555C251.362 0.00268555 243.612 7.7535 243.612 17.3146C243.612 26.8757 251.362 34.6265 260.922 34.6265Z" fill="#FFFFA5"/>
<g opacity="0.3">
<path opacity="0.3" d="M419.943 22.6752H373.312C370.191 22.6752 367.66 25.206 367.66 28.328V28.3281C367.66 31.45 370.191 33.9809 373.312 33.9809H419.943C423.065 33.9809 425.595 31.45 425.595 28.328C425.595 25.206 423.065 22.6752 419.943 22.6752Z" fill="#E0E0E0"/>
<path opacity="0.3" d="M405.812 33.981H359.181C356.06 33.981 353.529 36.5118 353.529 39.6338V39.6338C353.529 42.7558 356.06 45.2867 359.181 45.2867H405.812C408.934 45.2867 411.465 42.7558 411.465 39.6338C411.465 36.5118 408.934 33.981 405.812 33.981Z" fill="#E0E0E0"/>
<path opacity="0.3" d="M419.943 45.2866H373.312C370.191 45.2866 367.66 47.8175 367.66 50.9395V50.9395C367.66 54.0615 370.191 56.5924 373.312 56.5924H419.943C423.065 56.5924 425.595 54.0615 425.595 50.9395C425.595 47.8175 423.065 45.2866 419.943 45.2866Z" fill="#E0E0E0"/>
</g>
<g opacity="0.3">
<path opacity="0.3" d="M152.714 17.0447H106.083C102.961 17.0447 100.431 19.5756 100.431 22.6975V22.6976C100.431 25.8196 102.961 28.3504 106.083 28.3504H152.714C155.835 28.3504 158.366 25.8196 158.366 22.6975C158.366 19.5756 155.835 17.0447 152.714 17.0447Z" fill="#E0E0E0"/>
<path opacity="0.3" d="M138.583 28.3505H91.952C88.8304 28.3505 86.2998 30.8813 86.2998 34.0033V34.0033C86.2998 37.1253 88.8304 39.6562 91.952 39.6562H138.583C141.704 39.6562 144.235 37.1253 144.235 34.0033C144.235 30.8813 141.704 28.3505 138.583 28.3505Z" fill="#E0E0E0"/>
<path opacity="0.3" d="M152.714 39.6561H106.083C102.961 39.6561 100.431 42.187 100.431 45.309V45.309C100.431 48.431 102.961 50.9619 106.083 50.9619H152.714C155.835 50.9619 158.366 48.431 158.366 45.309C158.366 42.187 155.835 39.6561 152.714 39.6561Z" fill="#E0E0E0"/>
</g>
<g opacity="0.3">
<path opacity="0.3" d="M52.1025 57.8541H64.4668C64.4668 57.8541 59.8078 66.0979 52.1025 57.8541Z" fill="#030B44"/>
<path opacity="0.3" d="M52.8486 61.3618L60.9542 52.024C60.9542 52.024 64.1244 60.947 52.8486 61.3618Z" fill="#030B44"/>
</g>
<g opacity="0.3">
<path opacity="0.3" d="M187.725 13.1855H200.089C200.089 13.1855 195.43 21.4293 187.725 13.1855Z" fill="#030B44"/>
<path opacity="0.3" d="M188.471 16.6933L196.576 7.35547C196.576 7.35547 199.746 16.2784 188.471 16.6933Z" fill="#030B44"/>
</g>
<g opacity="0.3">
<path opacity="0.3" d="M440.838 53.3497H454.101C454.101 53.3497 449.103 62.193 440.838 53.3497Z" fill="#030B44"/>
<path opacity="0.3" d="M441.638 57.1126L450.333 47.0957C450.333 47.0957 453.734 56.6675 441.638 57.1126Z" fill="#030B44"/>
</g>
<path d="M131.406 222.069L130.501 223.548C130.501 223.548 130.458 223.923 130.759 223.696C131.119 223.22 131.417 222.7 131.646 222.149L131.406 222.069Z" fill="#2F2E41"/>
<path d="M139.178 207.91L141.456 204.11C141.603 203.859 141.808 203.646 142.054 203.49C142.3 203.333 142.579 203.238 142.869 203.211C143.126 203.172 143.389 203.228 143.608 203.368C143.827 203.508 143.988 203.723 144.061 203.972C144.209 204.405 144.236 204.871 144.14 205.319C144.044 205.766 143.829 206.18 143.517 206.515C143.517 206.515 143.044 206.643 143.069 206.201L143.611 205.255C143.611 205.255 144.061 203.972 142.802 203.878C141.542 203.784 139.743 208.12 139.743 208.12L139.178 207.91Z" fill="#2F2E41"/>
<path d="M140.566 208.477L139.096 209.747C139.094 210.292 138.613 211.392 137.9 212.725C137.846 212.827 137.79 212.931 137.733 213.036C137.309 213.811 136.818 214.653 136.303 215.504C136.247 215.597 136.189 215.691 136.132 215.785C135.556 216.728 134.958 217.674 134.399 218.54C134.34 218.63 134.283 218.72 134.226 218.809C133.581 219.803 132.999 220.677 132.579 221.301C132.517 221.394 132.458 221.48 132.404 221.561C132.091 222.025 131.904 222.297 131.904 222.297C131.793 222.367 131.663 222.401 131.532 222.397C131.484 222.392 131.437 222.375 131.397 222.348C131.357 222.321 131.324 222.284 131.301 222.241C131.216 222.044 131.185 221.827 131.211 221.614C131.381 220.757 131.666 219.927 132.06 219.147C132.112 219.034 132.167 218.92 132.223 218.804C132.669 217.89 133.223 216.906 133.814 215.931L133.986 215.649C134.56 214.713 135.162 213.792 135.728 212.954C135.787 212.868 135.845 212.782 135.902 212.697C136.459 211.881 136.973 211.153 137.383 210.584C137.445 210.498 137.503 210.417 137.56 210.339C138.029 209.692 138.323 209.304 138.323 209.304L138.657 207.326L139.297 207.712L139.79 208.009L140.566 208.477Z" fill="#3F3D56"/>
<path d="M132.222 218.804L132.579 221.301C132.517 221.394 132.458 221.48 132.404 221.561L132.06 219.147C132.112 219.034 132.166 218.92 132.222 218.804Z" fill="#FF5C00"/>
<path d="M133.985 215.649L134.398 218.54C134.34 218.63 134.282 218.719 134.225 218.809L133.813 215.931L133.985 215.649Z" fill="#FF5C00"/>
<path d="M135.902 212.697L136.303 215.504C136.246 215.597 136.189 215.691 136.132 215.785L135.728 212.954C135.787 212.868 135.845 212.782 135.902 212.697Z" fill="#FF5C00"/>
<path d="M137.56 210.339L137.9 212.725C137.846 212.827 137.79 212.931 137.732 213.036L137.383 210.584C137.444 210.498 137.503 210.417 137.56 210.339Z" fill="#FF5C00"/>
<path d="M149.657 191.081C151.149 191.081 152.359 189.871 152.359 188.379C152.359 186.886 151.149 185.676 149.657 185.676C148.164 185.676 146.954 186.886 146.954 188.379C146.954 189.871 148.164 191.081 149.657 191.081Z" fill="#2F2E41"/>
<path d="M147.963 190.2C147.963 190.2 148.196 192.875 147.963 193.572C147.73 194.27 150.987 193.224 150.987 193.224C150.987 193.224 149.707 190.2 149.94 189.909C150.173 189.618 147.963 190.2 147.963 190.2Z" fill="#FFB8B8"/>
<path d="M147.876 209.767L147.701 218.316C147.657 218.888 147.8 219.46 148.108 219.944C148.632 220.816 150.957 227.387 150.957 227.387L152.876 226.341L152.702 223.724C152.702 223.724 152.353 220.118 151.19 218.781L152.876 210.582L147.876 209.767Z" fill="#FFB8B8"/>
<path opacity="0.1" d="M147.876 209.767L147.701 218.316C147.657 218.888 147.8 219.46 148.108 219.944C148.632 220.816 150.957 227.387 150.957 227.387L152.876 226.341L152.702 223.724C152.702 223.724 152.353 220.118 151.19 218.781L152.876 210.582L147.876 209.767Z" fill="black"/>
<path d="M153.108 225.119C153.108 225.119 148.282 226.108 149.096 227.678C149.91 229.248 151.422 232.505 151.422 232.505C151.422 232.505 151.829 234.54 151.073 234.947C150.317 235.354 148.748 237.796 150.259 237.68C151.771 237.564 153.225 235.877 153.225 235.877L154.504 234.249L154.736 234.656L157.062 232.737C157.062 232.737 157.934 230.876 154.736 229.946L153.108 225.119Z" fill="#2F2E41"/>
<path opacity="0.1" d="M153.108 225.119C153.108 225.119 148.282 226.108 149.096 227.678C149.91 229.248 151.422 232.505 151.422 232.505C151.422 232.505 151.829 234.54 151.073 234.947C150.317 235.354 148.748 237.796 150.259 237.68C151.771 237.564 153.225 235.877 153.225 235.877L154.504 234.249L154.736 234.656L157.062 232.737C157.062 232.737 157.934 230.876 154.736 229.946L153.108 225.119Z" fill="black"/>
<path d="M146.887 210L146.713 218.548C146.669 219.121 146.812 219.692 147.12 220.176C147.643 221.049 149.969 227.62 149.969 227.62L151.888 226.573L151.713 223.956C151.713 223.956 151.364 220.351 150.202 219.013L151.888 210.814L146.887 210Z" fill="#FFB8B8"/>
<path d="M152.12 225.352C152.12 225.352 147.294 226.341 148.108 227.911C148.922 229.481 150.434 232.737 150.434 232.737C150.434 232.737 150.841 234.772 150.085 235.18C149.329 235.587 147.759 238.029 149.271 237.913C150.783 237.796 152.236 236.11 152.236 236.11L153.516 234.482L153.748 234.889L156.074 232.97C156.074 232.97 156.946 231.109 153.748 230.179L152.12 225.352Z" fill="#2F2E41"/>
<path d="M148.777 191.653C149.997 191.653 150.986 190.664 150.986 189.444C150.986 188.223 149.997 187.234 148.777 187.234C147.557 187.234 146.567 188.223 146.567 189.444C146.567 190.664 147.557 191.653 148.777 191.653Z" fill="#FFB8B8"/>
<path d="M148.516 192.787C148.516 192.787 150.958 191.45 152.062 191.45C153.167 191.45 154.388 190.927 154.504 191.566C154.621 192.206 155.784 193.892 154.621 193.776C153.458 193.66 152.528 193.834 151.946 193.776C151.365 193.718 148.516 192.787 148.516 192.787Z" fill="#575A89"/>
<path d="M147.12 208.023C147.12 208.023 146.073 210.64 146.771 210.756C148.372 210.954 149.984 211.051 151.597 211.047C151.772 210.93 152.353 207.907 147.12 208.023Z" fill="#FF5C00"/>
<path d="M154.272 209.186C153.051 210.349 153.748 210.872 153.283 211.745C152.818 212.617 149.388 211.919 147.992 210.058C146.597 208.197 146.248 208.895 144.736 208.663C143.224 208.43 141.887 207.325 143.166 206.686C143.832 206.302 144.362 205.721 144.683 205.022C144.966 204.46 145.144 203.85 145.207 203.224C145.251 202.788 145.229 202.347 145.143 201.917C144.91 200.787 145.305 198.556 145.945 196.569C146.286 195.364 146.825 194.224 147.541 193.196C147.575 193.154 147.609 193.115 147.643 193.078C149.039 191.566 152.178 192.671 152.178 192.671C152.178 192.671 154.504 194.59 153.69 197.032C153.011 199.007 153.094 201.164 153.923 203.08C154.562 204.534 155.493 208.023 154.272 209.186Z" fill="#575A89"/>
<path d="M145.201 204.418L144.561 204.825C144.561 204.825 141.945 204.069 142.003 204.825C142.061 205.581 144.736 205.813 144.736 205.813L145.666 205.115L145.201 204.418Z" fill="#FFB8B8"/>
<path opacity="0.1" d="M148.341 193.485C148.341 193.485 146.656 192.806 146.684 195.471C146.769 197.449 147.051 199.414 147.527 201.336L145.147 204.777L145.899 205.93L150.725 201.975V196.509C150.725 196.509 150.492 193.718 148.341 193.485Z" fill="black"/>
<path opacity="0.1" d="M149.911 196.218V201.684L145.463 205.319L145.172 204.679C145.444 204.138 145.145 203.863 145.207 203.224L146.713 201.045C146.354 199.572 146.097 198.077 145.945 196.569C146.285 195.364 146.825 194.224 147.541 193.196C149.679 193.439 149.911 196.218 149.911 196.218Z" fill="black"/>
<path d="M148.108 193.194C148.108 193.194 146.423 192.515 146.452 195.181C146.536 197.159 146.819 199.123 147.294 201.045L144.915 204.487L145.666 205.639L150.492 201.685V196.218C150.492 196.218 150.26 193.427 148.108 193.194Z" fill="#575A89"/>
<path d="M152.584 187.523C154.077 187.523 155.287 186.312 155.287 184.82C155.287 183.327 154.077 182.117 152.584 182.117C151.092 182.117 149.882 183.327 149.882 184.82C149.882 186.312 151.092 187.523 152.584 187.523Z" fill="#2F2E41"/>
<path d="M154.916 187.058C154.566 187.311 154.161 187.476 153.734 187.54C153.307 187.604 152.871 187.565 152.462 187.426C152.054 187.287 151.684 187.052 151.385 186.741C151.086 186.43 150.865 186.052 150.742 185.638C150.789 186.009 150.912 186.366 151.103 186.687C151.295 187.008 151.551 187.286 151.855 187.502C152.159 187.719 152.505 187.871 152.871 187.947C153.237 188.024 153.614 188.023 153.98 187.947C154.346 187.87 154.691 187.718 154.995 187.501C155.299 187.283 155.555 187.005 155.746 186.684C155.937 186.363 156.06 186.006 156.106 185.635C156.152 185.265 156.121 184.888 156.014 184.53C156.075 185.011 156.005 185.5 155.812 185.945C155.618 186.389 155.309 186.774 154.916 187.058Z" fill="#2F2E41"/>
<path d="M150.377 190.811C151.472 190.811 152.359 189.924 152.359 188.829C152.359 187.734 151.472 186.847 150.377 186.847C149.283 186.847 148.396 187.734 148.396 188.829C148.396 189.924 149.283 190.811 150.377 190.811Z" fill="#2F2E41"/>
<path d="M148.711 189.46C149.681 189.46 150.468 188.845 150.468 188.086C150.468 187.327 149.681 186.712 148.711 186.712C147.741 186.712 146.954 187.327 146.954 188.086C146.954 188.845 147.741 189.46 148.711 189.46Z" fill="#2F2E41"/>
<path d="M148.242 190.084C148.426 190.084 148.575 189.819 148.575 189.494C148.575 189.168 148.426 188.904 148.242 188.904C148.057 188.904 147.908 189.168 147.908 189.494C147.908 189.819 148.057 190.084 148.242 190.084Z" fill="#FFB8B8"/>
</g>
<defs>
<linearGradient id="paint0_linear" x1="201.584" y1="235.684" x2="201.584" y2="195.238" gradientUnits="userSpaceOnUse">
<stop stop-color="#808080" stop-opacity="0.25"/>
<stop offset="0.53514" stop-color="#808080" stop-opacity="0.12"/>
<stop offset="1" stop-color="#808080" stop-opacity="0.1"/>
</linearGradient>
<clipPath id="clip0">
<rect width="454.101" height="240" fill="white" transform="translate(0 0.00268555)"/>
</clipPath>
</defs>
</svg>
