<svg width="197" height="121" viewBox="0 0 197 121" fill="none" xmlns="http://www.w3.org/2000/svg">
<g clip-path="url(#clip0)">
<rect width="196.757" height="120" transform="translate(0 0.701416)" fill="white"/>
<path d="M137.138 58.2333C137.138 58.2333 129.222 56.627 130.224 60.0404C131.226 63.4538 137.839 61.2452 137.839 61.2452L137.138 58.2333Z" fill="#FFB8B8"/>
<path d="M154.213 40.2038C154.312 40.114 154.433 40.0524 154.563 40.0254C154.694 39.9985 154.829 40.0072 154.955 40.0507C155.081 40.0942 155.193 40.1708 155.279 40.2726C155.365 40.3743 155.423 40.4974 155.445 40.629L155.716 42.2034C155.716 42.2034 156.939 48.5011 155.891 52.5015C154.844 56.5019 154.101 61.7714 151.271 62.3328C148.85 62.8131 139.643 62.0524 137.036 61.8229C136.849 61.8064 136.674 61.7189 136.548 61.5782C136.423 61.4375 136.355 61.2542 136.36 61.0655L136.408 58.7676C136.412 58.5866 136.482 58.4131 136.604 58.2798C136.726 58.1464 136.893 58.0623 137.072 58.0431L147.614 56.9165C147.778 56.8992 147.932 56.8272 148.051 56.712C148.171 56.5967 148.248 56.4449 148.271 56.2806C148.521 54.4836 149.332 48.9122 150.138 45.983C150.788 43.616 152.926 41.3812 154.213 40.2038Z" fill="#575A89"/>
<path d="M196.756 116.68H124.012V117.027H196.756V116.68Z" fill="#3F3D56"/>
<path d="M147.363 107.37V112.189L150.068 112.791L151.872 111.887L151.671 108.072L147.363 107.37Z" fill="#FFB8B8"/>
<path d="M163.345 107.37V112.189L166.05 112.791L167.853 111.887L167.653 108.072L163.345 107.37Z" fill="#FFB8B8"/>
<path d="M152.774 68.2158C152.774 68.2158 149.167 75.5446 149.267 81.2671C149.328 84.7213 149.16 88.1757 148.766 91.6077L146.963 108.775L152.774 109.076L155.479 90.6038L160.689 76.3478L162.693 93.3144L163.194 110.382H168.203C168.203 110.382 170.508 94.218 169.205 90.6038C169.205 90.6038 172.211 70.3241 169.806 69.3202C167.402 68.3162 152.774 68.2158 152.774 68.2158Z" fill="#2F2E41"/>
<path d="M149.168 110.883C149.168 110.883 148.166 107.169 146.763 109.076C145.361 110.984 141.353 114.196 141.353 114.196C141.353 114.196 135.342 117.409 140.852 118.212C146.362 119.015 146.964 117.208 146.964 117.208C146.964 117.208 147.865 116.706 148.667 117.008C149.468 117.309 152.975 117.208 153.175 116.004C153.376 114.799 152.073 108.173 151.673 109.378C151.272 110.582 149.168 110.883 149.168 110.883Z" fill="#2F2E41"/>
<path d="M167.602 110.783C167.602 110.783 167.602 109.679 165.699 109.578C163.795 109.478 163.495 110.783 163.495 110.783C163.495 110.783 162.994 111.285 162.893 112.791C162.793 114.297 162.893 118.212 162.893 118.212C162.893 118.212 161.992 121.224 166.1 120.622C170.207 120.019 168.704 116.907 168.704 116.907L167.602 110.783Z" fill="#2F2E41"/>
<path d="M160.287 30.7687L159.786 36.3908L158.885 38.4991L161.289 41.9125L167.201 36.3908C167.201 36.3908 166.098 33.3789 166.8 31.6722L160.287 30.7687Z" fill="#FFB8B8"/>
<path d="M173.714 40.4066L173.668 40.9016L171.91 59.6823C171.91 59.6823 171.841 60.5558 171.713 61.7204C171.496 63.6901 171.112 66.4921 170.608 67.3123C169.806 68.6175 170.407 69.7218 170.407 69.7218C165.799 72.4324 152.173 68.517 152.173 68.517L155.279 56.0681C155.279 56.0681 152.473 43.1173 152.774 41.9125C153.075 40.7078 159.387 36.3908 159.387 36.3908L159.573 36.8928C162.263 40.507 164.997 37.3948 165.799 36.692L167.402 35.2865L173.714 40.4066Z" fill="#575A89"/>
<path d="M153.11 74.8533C143.558 76.1518 134.445 76.6271 126.013 75.8276C123.019 75.5235 120.049 75.0125 117.125 74.2982C111.764 73.0266 105.183 73.0266 97.9521 73.7036C93.5559 74.096 89.2228 75.0169 85.0461 76.4465C79.4427 78.3901 73.3042 78.2218 66.7962 76.5947C64.1253 75.8979 61.5513 74.8709 59.1334 73.5374C54.3755 70.9754 48.7445 71.903 42.6074 74.8533V51.944C48.337 49.4437 53.9187 49.04 59.3231 51.1478C61.2932 51.9363 63.3303 52.5452 65.4095 52.9672C72.9204 54.4382 80.6734 54.0874 88.0214 51.944C97.9577 48.5704 108.352 49.6191 118.877 51.944C130.604 54.426 142.034 54.5724 153.11 51.944V74.8533Z" fill="#3F3D56"/>
<path d="M72.7446 116.68H0V117.027H72.7446V116.68Z" fill="#3F3D56"/>
<path d="M90.0328 9.3474L95.5029 6.18274L92.3447 0.701389L86.8746 3.86605L90.0328 9.3474Z" fill="#FF6584"/>
<path d="M69.7671 36.9427L75.2373 33.7781L72.0791 28.2967L66.6089 31.4614L69.7671 36.9427Z" fill="#3F3D56"/>
<path d="M125.366 29.6534L130.836 26.4888L127.678 21.0074L122.208 24.1721L125.366 29.6534Z" fill="#D0CDE1"/>
<path d="M30.977 74.2192L34.2846 89.5633L24.2393 112.15L30.1194 114.728L41.3897 88.8268L34.185 66.08L29.8974 67.1848L30.977 74.2192Z" fill="#2F2E41"/>
<path d="M28.0361 70.0002C28.0361 70.0002 29.2612 72.2098 31.9562 74.0511C34.6513 75.8924 40.2864 88.045 40.2864 88.045L34.1613 112.596L42.614 114.928L47.2691 86.0809L37.7139 64.4763L28.0361 70.0002Z" fill="#2F2E41"/>
<path d="M24.9747 111.291C24.9747 111.291 23.7497 112.641 24.2397 113.623C24.7297 114.605 24.9747 117.183 24.9747 117.183H26.0773V114.237L29.6299 117.551C29.6299 117.551 37.8376 118.288 37.7151 117.551C37.5926 116.815 32.8149 115.096 32.8149 115.096L30.4874 111.536L24.9747 111.291Z" fill="#2F2E41"/>
<path d="M35.755 111.614C35.755 111.614 34.53 112.964 35.02 113.946C35.51 114.928 35.755 117.506 35.755 117.506H36.8575V114.56L40.4101 117.874C40.4101 117.874 48.6178 118.61 48.4953 117.874C48.3728 117.137 43.5952 115.419 43.5952 115.419L41.2677 111.859L35.755 111.614Z" fill="#2F2E41"/>
<path d="M32.8153 36.3657C35.3862 36.3657 37.4704 34.2773 37.4704 31.7011C37.4704 29.1249 35.3862 27.0365 32.8153 27.0365C30.2443 27.0365 28.1602 29.1249 28.1602 31.7011C28.1602 34.2773 30.2443 36.3657 32.8153 36.3657Z" fill="#A0616A"/>
<path d="M29.0177 31.9467C29.0177 31.9467 28.6502 36.6113 26.3227 38.3298C23.9951 40.0484 23.9951 41.5214 23.9951 41.5214L33.4279 45.8178L31.2228 41.1532C31.2228 41.1532 30.6103 40.9076 31.5903 39.6801C32.5703 38.4526 33.4279 35.5065 33.4279 35.5065L29.0177 31.9467Z" fill="#A0616A"/>
<path d="M38.6328 65.0287C36.084 67.2584 33.1311 68.976 29.9349 70.088L27.7115 70.8616C27.7115 70.8616 23.01 65.1441 25.3841 60.639C25.8718 59.6868 26.5693 58.8582 27.4238 58.2159L27.3747 58.0011L26.1828 52.7902L26.0762 52.3237L22.5236 51.4645C22.5236 51.4645 22.5126 51.4681 22.4918 51.4731C22.226 51.543 20.4239 51.8745 21.7886 47.6591C22.6965 44.8542 23.3547 42.1836 23.7254 40.5511C23.7767 40.3232 23.8736 40.1079 24.01 39.9184C24.1465 39.7289 24.3199 39.5691 24.5196 39.4484C24.7194 39.3278 24.9414 39.2489 25.1724 39.2166C25.4034 39.1842 25.6385 39.1989 25.8636 39.26C27.0012 39.5725 28.4144 40.1661 29.2613 41.2759C30.8539 43.3627 31.1755 41.1837 31.1755 41.1837C31.1755 41.1837 35.6315 46.1861 35.3865 48.3956C35.3444 48.9884 35.3624 49.584 35.4404 50.1731V50.1756C35.4698 50.4382 35.5053 50.712 35.5457 50.9919C35.8495 53.059 36.4376 55.4613 36.6532 56.3059C36.6691 56.366 36.6826 56.4188 36.6936 56.463C36.7193 56.5649 36.734 56.6201 36.734 56.6201L38.6328 65.0287Z" fill="#575A89"/>
<path opacity="0.2" d="M32.3246 58.8296L31.3445 62.144C31.3445 62.144 27.5861 61.184 25.3848 60.639C25.8725 59.6868 26.57 58.8582 27.4244 58.2159L27.3754 58.001L26.1835 52.7902L26.0769 52.3237L22.5243 51.4644C22.5243 51.4644 22.5133 51.4681 22.4925 51.473L22.2793 49.8687C22.2793 49.8687 28.4045 50.2369 28.772 51.71C29.1395 53.183 28.4045 54.656 28.0369 54.9015C27.6694 55.147 28.0369 54.9015 28.772 55.2698C29.507 55.6381 28.527 55.2698 28.0369 56.0063C27.5469 56.7428 28.1595 56.1291 28.282 56.4973C28.4045 56.8656 28.282 56.3746 28.1595 56.9883C28.0369 57.6021 28.6495 57.1111 28.772 57.1111C28.8945 57.1111 32.3246 58.8296 32.3246 58.8296Z" fill="black"/>
<path d="M31.222 58.2159L39.1847 60.3027C39.1847 60.3027 43.4723 55.8836 45.7999 57.2339C48.1274 58.5842 41.6348 61.653 41.6348 61.653L39.3072 62.144L30.8545 61.162L31.222 58.2159Z" fill="#A0616A"/>
<path d="M22.2793 49.3776L22.7693 53.0602C22.7693 53.0602 22.4018 53.0602 22.7693 53.9194C23.1368 54.7787 22.7693 56.4972 22.7693 56.4972C22.7693 56.4972 22.0343 56.62 22.6468 56.9883C23.2593 57.3565 23.8718 58.3385 23.6268 58.7068C23.3818 59.0751 22.8918 59.5661 23.9943 59.8116C25.0969 60.0571 31.3445 61.6529 31.3445 61.6529L32.3246 58.3385C32.3246 58.3385 28.8945 56.62 28.772 56.62C28.6495 56.62 28.0369 57.111 28.1595 56.4972C28.282 55.8835 28.4045 56.3745 28.282 56.0062C28.1595 55.638 27.5469 56.2517 28.0369 55.5152C28.527 54.7787 29.507 55.147 28.772 54.7787C28.0369 54.4104 27.6694 54.6559 28.0369 54.4104C28.4045 54.1649 29.1395 52.6919 28.772 51.2189C28.4045 49.7458 22.2793 49.3776 22.2793 49.3776Z" fill="#575A89"/>
<path d="M31.741 39.9445L32.1102 39.3564C32.2832 39.0807 32.3399 38.7475 32.2677 38.43C32.1955 38.1124 32.0004 37.8367 31.7253 37.6633L28.9127 35.8908C28.6376 35.7174 28.305 35.6606 27.9881 35.7329C27.6713 35.8053 27.3961 36.0008 27.223 36.2764L26.8539 36.8646C26.646 36.8635 26.4412 36.9156 26.259 37.0158C26.0767 37.1161 25.9229 37.2613 25.8122 37.4376L24.9039 38.8848C24.7309 39.1604 24.6742 39.4937 24.7464 39.8112C24.8186 40.1287 25.0137 40.4045 25.2888 40.5779L29.0789 42.9664C29.354 43.1398 29.6865 43.1965 30.0034 43.1242C30.3203 43.0519 30.5955 42.8564 30.7685 42.5807L31.6768 41.1335C31.7875 40.9571 31.8514 40.7554 31.8627 40.5474C31.8739 40.3393 31.8321 40.1319 31.741 39.9445Z" fill="#575A89"/>
<path d="M32.6523 31.6209C32.9128 31.2398 32.7986 30.7102 32.985 30.2877C33.2777 29.6243 34.1407 29.4882 34.8633 29.4446C35.3424 29.3947 35.8261 29.4077 36.3018 29.4833C36.512 29.5236 36.7099 29.6122 36.88 29.7422C37.0501 29.8722 37.1878 30.04 37.2821 30.2325C37.3836 30.4494 37.3729 29.7771 37.3254 28.9131C37.2775 28.0315 36.9515 27.1879 36.3944 26.5038C35.8373 25.8198 35.0779 25.3306 34.2255 25.1068C34.2154 25.1042 34.2053 25.1016 34.1954 25.099C33.3224 24.8748 32.4208 24.7034 31.5234 24.7871C30.6261 24.8707 29.7248 25.2361 29.1492 25.931C28.8862 26.2486 28.6965 26.6261 28.4044 26.9171C27.8911 27.4283 27.1444 27.6008 26.4568 27.8271C25.6692 28.0607 24.9399 28.459 24.3172 28.9958C23.6924 29.5407 23.3071 30.3105 23.2449 31.1382C23.2074 32.0942 23.7906 33.0958 24.7643 33.3081C24.9336 33.3419 25.0927 33.4153 25.2284 33.5223C26.145 34.2707 25.0611 35.0045 25.0487 35.8217C25.0384 36.5036 25.785 36.9662 26.4639 37.0145C27.099 37.0414 27.7236 36.8461 28.2308 36.4621C28.7379 36.0781 29.096 35.5292 29.2436 34.9097C29.3596 34.3527 29.2943 33.7762 29.2413 33.2097C29.1807 32.5613 30.6071 31.0724 29.6622 32.1661C29.4779 32.3739 29.3508 32.6262 29.2933 32.8981C29.119 33.7859 29.9214 34.1054 30.42 34.6118C30.6936 34.898 30.8816 35.2554 30.9628 35.6432C31.044 36.0311 31.0151 36.434 30.8794 36.8063C31.3096 36.4343 31.5968 35.9235 31.6914 35.362C31.7859 34.8005 31.6819 34.2236 31.3973 33.7308C31.2389 33.474 31.0323 33.249 30.8826 32.9871C30.649 32.5784 30.603 31.7008 31.2836 31.7414C31.7694 31.7704 32.2647 32.1882 32.6523 31.6209Z" fill="#2F2E41"/>
<path d="M163.695 33.4794C166.517 33.4794 168.804 31.187 168.804 28.3593C168.804 25.5315 166.517 23.2391 163.695 23.2391C160.873 23.2391 158.585 25.5315 158.585 28.3593C158.585 31.187 160.873 33.4794 163.695 33.4794Z" fill="#FFB8B8"/>
<path opacity="0.2" d="M173.468 41.1023L171.71 59.8831C171.71 59.8831 171.641 60.7565 171.513 61.9211C167.783 62.8146 157.483 63.4973 157.483 63.4973L156.982 59.8831L168.404 56.7708C168.404 56.7708 167.001 48.9401 168.604 45.7275C168.997 44.9459 169.348 44.1441 169.656 43.3255C169.937 42.5705 170.47 41.9364 171.165 41.5311C171.86 41.1258 172.674 40.9742 173.468 41.1023V41.1023Z" fill="black"/>
<path d="M158.084 59.3811C158.084 59.3811 150.169 57.7748 151.171 61.1882C152.173 64.6017 158.785 62.393 158.785 62.393L158.084 59.3811Z" fill="#FFB8B8"/>
<path d="M170.606 39.9047L173.712 40.4066C173.712 40.4066 175.916 46.4303 175.515 50.5465C175.115 54.6626 175.215 59.9836 172.51 60.9875C169.805 61.9914 157.682 62.7946 157.682 62.7946L157.181 59.1804L168.602 56.0682C168.602 56.0682 167.2 48.2374 168.803 45.0248C170.406 41.8122 170.606 39.9047 170.606 39.9047Z" fill="#575A89"/>
<path d="M159.338 23.159L158.356 22.765C158.356 22.765 160.409 20.4996 163.266 20.6966L162.463 19.8102C162.463 19.8102 164.427 19.0222 166.212 21.0906C167.151 22.1779 168.237 23.456 168.914 24.8957H169.966L169.527 25.8642L171.063 26.8328L169.486 26.6588C169.58 27.1892 169.595 27.7306 169.529 28.2653C169.462 28.8001 169.189 29.2876 168.77 29.625C168.77 29.625 167.552 27.0988 167.552 26.7048V27.6897C167.552 27.6897 166.57 26.8033 166.57 26.2123L166.034 26.9018H162.463L162.998 26.0153L160.945 26.3108L161.748 25.2274L158.569 29.7013C158.569 29.7013 156.749 24.6364 159.338 23.159Z" fill="#2F2E41"/>
<path d="M97.8591 82.4897C108.19 82.4897 116.565 74.0978 116.565 63.7458C116.565 53.3938 108.19 45.0018 97.8591 45.0018C87.5282 45.0018 79.1533 53.3938 79.1533 63.7458C79.1533 74.0978 87.5282 82.4897 97.8591 82.4897Z" fill="#FF5C00"/>
<path d="M107.039 67.4713C107.039 68.6215 102.824 71.5064 97.9455 71.5064C93.0671 71.5064 89.3721 68.6215 89.3721 67.4713C89.3721 66.3211 93.0671 67.8618 97.9455 67.8618C102.824 67.8618 107.039 66.3211 107.039 67.4713Z" fill="#D0CDE1"/>
<path d="M104.614 60.4483C105.761 60.4483 106.692 59.5158 106.692 58.3656C106.692 57.2154 105.761 56.283 104.614 56.283C103.466 56.283 102.535 57.2154 102.535 58.3656C102.535 59.5158 103.466 60.4483 104.614 60.4483Z" fill="#3F3D56"/>
<path d="M91.1048 60.4483C92.2527 60.4483 93.1832 59.5158 93.1832 58.3656C93.1832 57.2154 92.2527 56.283 91.1048 56.283C89.9569 56.283 89.0264 57.2154 89.0264 58.3656C89.0264 59.5158 89.9569 60.4483 91.1048 60.4483Z" fill="#3F3D56"/>
<path d="M92.3166 58.3656C92.8905 58.3656 93.3558 57.8994 93.3558 57.3243C93.3558 56.7492 92.8905 56.283 92.3166 56.283C91.7426 56.283 91.2773 56.7492 91.2773 57.3243C91.2773 57.8994 91.7426 58.3656 92.3166 58.3656Z" fill="#D0CDE1"/>
<path d="M102.882 58.3656C103.456 58.3656 103.921 57.8994 103.921 57.3243C103.921 56.7492 103.456 56.283 102.882 56.283C102.308 56.283 101.843 56.7492 101.843 57.3243C101.843 57.8994 102.308 58.3656 102.882 58.3656Z" fill="#D0CDE1"/>
<path d="M98.2045 46.2168C102.318 46.2168 105.652 42.8755 105.652 38.7539C105.652 34.6323 102.318 31.291 98.2045 31.291C94.0913 31.291 90.7568 34.6323 90.7568 38.7539C90.7568 42.8755 94.0913 46.2168 98.2045 46.2168Z" fill="#FF5C00"/>
<path d="M95.8139 39.5263C98.4441 41.0953 98.5385 45.7972 98.5385 45.7972C98.5385 45.7972 94.3685 47.9553 91.7383 46.3862C89.1081 44.8172 89.0137 40.1153 89.0137 40.1153C89.0137 40.1153 93.1837 37.9573 95.8139 39.5263Z" fill="#3F3D56"/>
<path d="M105.119 45.5355C102.742 47.468 98.3053 45.9348 98.3053 45.9348C98.3053 45.9348 97.7224 41.2684 100.099 39.3359C102.476 37.4033 106.913 38.9365 106.913 38.9365C106.913 38.9365 107.496 43.603 105.119 45.5355Z" fill="#3F3D56"/>
</g>
<defs>
<clipPath id="clip0">
<rect width="196.757" height="120" fill="white" transform="translate(0 0.701416)"/>
</clipPath>
</defs>
</svg>
