<svg width="256" height="200" viewBox="0 0 256 200" fill="none" xmlns="http://www.w3.org/2000/svg">
<g clip-path="url(#clip0)">
<path opacity="0.1" d="M37.8313 125.753C37.8307 126.021 37.724 126.277 37.5347 126.466C37.3454 126.656 37.0888 126.762 36.821 126.763H35.388C35.6559 126.763 35.9129 126.869 36.1024 127.059C36.2918 127.248 36.3983 127.505 36.3983 127.773C36.3983 128.041 36.2918 128.298 36.1024 128.487C35.9129 128.677 35.6559 128.783 35.388 128.783H37.4062C37.6741 128.783 37.9311 128.89 38.1206 129.079C38.31 129.269 38.4165 129.525 38.4165 129.793C38.4165 130.061 38.31 130.318 38.1206 130.508C37.9311 130.697 37.6741 130.804 37.4062 130.804H27.9219C34.4016 148.953 46.5513 164.819 62.5247 176.776C62.6914 176.662 62.8886 176.6 63.0908 176.599H74.7771C75.0451 176.599 75.302 176.706 75.4915 176.895C75.681 177.085 75.7874 177.342 75.7874 177.61C75.7874 177.877 75.681 178.134 75.4915 178.324C75.302 178.513 75.0451 178.62 74.7771 178.62H73.3441C73.612 178.62 73.869 178.726 74.0585 178.916C74.2479 179.105 74.3544 179.362 74.3544 179.63C74.3544 179.898 74.2479 180.155 74.0585 180.344C73.869 180.534 73.612 180.64 73.3441 180.64H75.3647C75.6326 180.64 75.8896 180.746 76.079 180.936C76.2685 181.125 76.3749 181.382 76.3749 181.65C76.3749 181.918 76.2685 182.175 76.079 182.364C75.8896 182.554 75.6326 182.66 75.3647 182.66H71.2113C89.1074 193.598 110.763 200 134.092 200C147.923 200.027 161.659 197.722 174.724 193.182C176.459 192.572 178.175 191.928 179.87 191.248C182.823 190.055 185.705 188.755 188.519 187.348C189.732 186.741 190.932 186.114 192.118 185.466L192.173 185.438L192.441 185.29L193.136 184.905C194.538 184.122 195.92 183.311 197.279 182.474L198.115 181.956C198.822 181.512 199.522 181.06 200.215 180.602C201.597 179.693 202.955 178.753 204.289 177.784L204.767 177.43L205.151 177.146C206.948 175.818 208.694 174.442 210.392 173.017L210.463 172.958C211.294 172.259 212.114 171.548 212.921 170.825L212.993 170.761C215.625 168.406 218.137 165.919 220.518 163.31C224.088 159.404 227.343 155.221 230.253 150.801H225.596C225.328 150.801 225.071 150.695 224.882 150.505C224.692 150.316 224.586 150.059 224.586 149.791C224.586 149.523 224.692 149.266 224.882 149.077C225.071 148.887 225.328 148.781 225.596 148.781H223.578C223.31 148.781 223.053 148.674 222.863 148.485C222.674 148.296 222.568 148.039 222.568 147.771C222.568 147.503 222.674 147.246 222.863 147.056C223.053 146.867 223.31 146.761 223.578 146.761H225.011C224.874 146.767 224.738 146.746 224.609 146.698C224.481 146.651 224.364 146.577 224.265 146.483C224.166 146.389 224.087 146.275 224.033 146.15C223.979 146.024 223.951 145.888 223.951 145.752C223.951 145.615 223.979 145.479 224.033 145.354C224.087 145.228 224.166 145.115 224.265 145.02C224.364 144.926 224.481 144.853 224.609 144.805C224.738 144.757 224.874 144.736 225.011 144.743H233.917C241.321 131.436 245.484 116.444 245.484 100.58C245.487 90.5734 243.813 80.6367 240.531 71.1833H220.709C220.156 71.1647 219.631 70.9318 219.246 70.5337C218.861 70.1356 218.646 69.6034 218.646 69.0495C218.646 68.4957 218.861 67.9635 219.246 67.5654C219.631 67.1672 220.156 66.9343 220.709 66.9158H216.444C215.878 66.9158 215.336 66.6911 214.936 66.2912C214.536 65.8913 214.311 65.3488 214.311 64.7833C214.311 64.2177 214.536 63.6753 214.936 63.2753C215.336 62.8754 215.878 62.6507 216.444 62.6507H219.491C218.938 62.6322 218.413 62.3993 218.028 62.0012C217.643 61.603 217.427 61.0709 217.427 60.517C217.427 59.9631 217.643 59.431 218.028 59.0328C218.413 58.6347 218.938 58.4018 219.491 58.3833H234.994C217.213 24.5755 178.717 1.16296 134.092 1.16296C108.026 1.16296 84.0536 9.15102 65.0684 22.5313H70.0362C70.5898 22.5498 71.1146 22.7828 71.4996 23.1809C71.8847 23.579 72.1 24.1112 72.1 24.6651C72.1 25.2189 71.8847 25.7511 71.4996 26.1492C71.1146 26.5473 70.5898 26.7803 70.0362 26.7988H66.9958C67.5614 26.7988 68.1039 27.0235 68.5039 27.4234C68.9039 27.8233 69.1286 28.3657 69.1286 28.9313C69.1286 29.4969 68.9039 30.0393 68.5039 30.4393C68.1039 30.8392 67.5614 31.0639 66.9958 31.0639H71.2614C71.5477 31.0543 71.8329 31.1024 72.1002 31.2053C72.3675 31.3082 72.6113 31.4639 72.8172 31.6629C73.0231 31.862 73.1868 32.1005 73.2986 32.3641C73.4104 32.6278 73.468 32.9112 73.468 33.1976C73.468 33.484 73.4104 33.7674 73.2986 34.0311C73.1868 34.2947 73.0231 34.5332 72.8172 34.7322C72.6113 34.9313 72.3675 35.087 72.1002 35.1899C71.8329 35.2928 71.5477 35.3409 71.2614 35.3313H50.0335C32.9972 52.7928 22.6794 75.6107 22.6794 100.58C22.6777 108.748 23.7938 116.878 25.9969 124.743H36.821C37.0886 124.744 37.3448 124.851 37.534 125.04C37.7232 125.229 37.8301 125.485 37.8313 125.753Z" fill="white"/>
<path d="M194.987 83.0878C193.991 83.0018 190.521 80.2054 188.51 79.3815C187.583 79.0018 187.003 79.8042 186.644 80.7785C185.412 79.9738 184.06 79.083 183.062 78.677C182.932 78.6167 182.792 78.584 182.649 78.5811C182.506 78.5783 182.365 78.6052 182.233 78.6603C180.939 79.2215 180.661 82.6054 180.661 82.6054L180.707 82.8179C180.072 83.317 178.166 83.6299 177.339 83.6848C176.367 83.7469 175.082 83.8902 174.628 84.1147C174.175 84.3391 168.896 85.6096 165.861 86.5362C162.825 87.4627 154.984 92.0788 154.984 92.0788L147.551 93.7505L146.508 93.5499C146.176 92.3559 144.657 92.3678 142.877 92.8502C139.987 92.32 137.105 91.9069 136.173 92.3296C138.836 90.9732 142.111 88.8215 142.072 86.4478C142.02 83.2096 135.61 87.7517 133.183 89.5881L132.975 89.7457L132.92 89.5403C132.92 89.5403 131.15 90.2305 127.377 90.1397C123.603 90.049 121.924 91.8233 121.585 92C121.246 92.1768 117.792 93.3397 117.525 93.3851C117.317 93.4185 111.36 93.9582 108.353 94.2281C104.195 93.8532 98.1908 94.5075 97.8612 95.1284C97.4839 95.8448 92.9125 98.4526 92.9125 98.4526L91.3457 98.8633C91.3457 98.8633 91.1594 99.3409 90.9445 99.9523C90.7916 99.7196 90.6621 99.4724 90.5576 99.2144C90.3209 98.5807 90.1356 97.9291 90.0035 97.2657C89.9844 97.1773 89.9629 97.089 89.9414 97.0006C89.9414 96.9791 89.9294 96.9577 89.9247 96.9362L89.8673 96.7141L89.853 96.6591C89.7753 96.373 89.6812 96.0915 89.5712 95.8162C89.4623 95.5399 89.3263 95.2751 89.1652 95.0257C88.9373 94.661 88.6283 94.3537 88.2623 94.1278C87.6629 93.7624 86.9392 93.6765 86.2418 93.5976C85.6543 93.5126 85.0598 93.487 84.4672 93.5212C83.9585 93.569 83.4593 93.7075 82.9506 93.7385C82.1314 93.7863 81.3265 93.5547 80.5145 93.4305C79.7024 93.3063 78.8187 93.3087 78.1261 93.7624C77.5433 94.1493 77.2065 94.8012 76.8316 95.3911C76.128 96.4989 75.2241 97.4658 74.1661 98.2424C73.4496 98.7606 72.6352 99.2597 72.3749 100.096C72.1145 100.931 72.4752 101.741 72.6352 102.565C72.9887 104.38 72.4178 106.371 73.0532 108.057C73.0675 108.096 73.0818 108.131 73.0985 108.17C73.1344 108.26 73.1726 108.353 73.218 108.442C73.2581 108.524 73.3028 108.604 73.3517 108.681C73.3988 108.757 73.4515 108.83 73.5093 108.898C73.5655 108.966 73.6288 109.029 73.698 109.084C73.7662 109.141 73.8407 109.19 73.9201 109.23C74.2128 109.355 74.5357 109.393 74.8492 109.337L75.0212 109.313L75.1788 109.285C75.3643 109.252 75.5478 109.208 75.7281 109.153C75.9078 109.101 76.0796 109.024 76.2393 108.927C76.3837 108.836 76.5064 108.715 76.5985 108.572C76.6906 108.429 76.7498 108.267 76.7719 108.098C76.7952 107.949 76.8064 107.798 76.8053 107.647V107.542L76.8411 107.651C77.3025 108.943 78.1281 110.073 79.2183 110.906C80.3084 111.738 81.6164 112.237 82.9841 112.342C84.3518 112.448 85.7207 112.154 86.9253 111.498C88.1298 110.842 89.1185 109.851 89.7718 108.645L90.0417 108.554C90.9087 108.277 91.797 108.071 92.6976 107.938C92.7956 108.137 92.9057 108.33 93.0272 108.516C95.9672 113.099 105.155 113.256 105.155 113.256C105.155 113.256 115.308 112.862 116.094 112.657C116.88 112.451 119.223 112.81 119.899 113.438C120.575 114.066 123.553 114.326 124.52 112.702C125.488 111.078 126.598 111.391 126.598 111.391C126.799 111.119 126.97 110.827 127.109 110.519L127.757 110.55C129.464 110.641 132.206 110.818 132.798 111.057C133.673 111.408 137.427 111.382 139.457 110.527C141.487 109.672 147.817 106.047 147.817 106.047C147.817 106.047 151.753 104.853 152.452 104.614C153.152 104.375 154.984 102.627 154.984 102.627L158.758 101.165C158.758 101.165 162.744 99.0162 164.425 98.7917C166.107 98.5672 167.63 97.0962 167.63 97.0962L178.318 92.1194C179.035 92.0147 179.765 92.0512 180.468 92.2269C181.423 92.5254 187.645 91.6132 189.53 89.6C189.53 89.6 189.599 89.3397 189.692 88.9147C189.778 88.9147 189.866 88.8979 189.959 88.8956C190.361 88.9839 190.607 89.0436 190.607 89.0436C191.401 89.638 192.246 90.1599 193.134 90.603C194.402 91.212 195.761 91.5463 196.238 90.5027C196.31 90.3416 196.358 90.1711 196.382 89.9964C197.609 90.8681 201.741 93.5547 201.858 90.3547C202.002 86.5958 195.981 83.1738 194.987 83.0878Z" fill="url(#paint0_linear)"/>
<path d="M95.297 107.675C95.297 107.675 93.3672 107.553 90.6778 108.413C89.7864 108.694 88.9197 109.048 88.0865 109.471C84.1313 111.463 87.4153 100.716 87.4153 100.716C87.4153 100.716 88.5164 100.716 89.8395 100.604C91.4206 100.478 93.317 100.215 94.0192 99.6657C95.3089 98.646 95.297 107.675 95.297 107.675Z" fill="#EFB7B9"/>
<path d="M142.003 86.6101C142.051 89.6143 136.72 92.2579 134.188 93.3444C133.4 93.6812 132.879 93.8674 132.879 93.8674L132.327 90.4095C132.327 90.4095 132.674 90.1301 133.233 89.7074C135.638 87.8949 141.95 83.4149 142.003 86.6101Z" fill="#EFB7B9"/>
<path opacity="0.1" d="M134.188 93.3445C133.4 93.6813 132.879 93.8675 132.879 93.8675L132.327 90.4096C132.327 90.4096 132.674 90.1302 133.233 89.7075L134.188 93.3445Z" fill="black"/>
<path d="M107.051 94.4358C107.051 94.4358 117.503 93.4973 117.777 93.452C118.052 93.4066 121.458 92.2579 121.792 92.0884C122.127 91.9188 123.782 90.1612 127.505 90.252C131.229 90.3427 132.975 89.6621 132.975 89.6621L134.205 94.3427L109.38 97.1582L107.051 94.4358Z" fill="#E1E7EF"/>
<path opacity="0.05" d="M107.051 94.4358C107.051 94.4358 117.503 93.4973 117.777 93.452C118.052 93.4066 121.458 92.2579 121.792 92.0884C122.127 91.9188 123.782 90.1612 127.505 90.252C131.229 90.3427 132.975 89.6621 132.975 89.6621L134.205 94.3427L109.38 97.1582L107.051 94.4358Z" fill="black"/>
<path d="M180.073 82.806C180.073 82.806 180.456 78.1182 182.438 78.9302C184.42 79.7421 187.845 82.5123 188.827 82.5887C189.808 82.6651 195.753 86.049 195.612 89.7529C195.471 93.4568 189.88 89.1535 189.88 89.1535C189.88 89.1535 184.678 87.8759 182.997 88.4514C181.315 89.0269 180.073 82.806 180.073 82.806Z" fill="#B07473"/>
<path opacity="0.1" d="M195.613 89.76C195.477 93.4639 189.881 89.1606 189.881 89.1606C189.881 89.1606 184.681 87.883 182.997 88.4586C182.52 88.6257 182.042 88.2197 181.66 87.5487C180.907 86.2782 180.363 84.0765 180.165 83.1929C180.11 82.9541 180.083 82.8132 180.083 82.8132C180.083 82.8132 180.466 78.1254 182.448 78.9397C184.43 79.7541 187.853 82.5099 188.834 82.5959C189.816 82.6818 195.746 86.0562 195.613 89.76Z" fill="black"/>
<path opacity="0.1" d="M184.886 85.5809C184.717 86.0155 183.515 86.7057 181.65 87.5486C180.898 86.2782 180.353 84.0764 180.155 83.1928C180.506 83.0424 180.754 82.8681 180.795 82.6722C180.933 82.0179 185.858 83.0878 184.886 85.5809Z" fill="black"/>
<path d="M143.317 94.7463L154.745 92.1577C154.745 92.1577 162.484 87.6036 165.493 86.6914C168.502 85.7792 173.692 84.5254 174.141 84.3033C174.59 84.0812 175.856 83.938 176.814 83.8783C177.772 83.8186 180.205 83.4007 180.344 82.7487C180.482 82.0968 185.407 83.1618 184.435 85.655C183.463 88.1481 148.731 98.9971 148.731 98.9971L143.317 94.7463Z" fill="#444053"/>
<path opacity="0.1" d="M143.317 94.7463L154.745 92.1577C154.745 92.1577 162.484 87.6036 165.493 86.6914C168.502 85.7792 173.692 84.5254 174.141 84.3033C174.59 84.0812 175.856 83.938 176.814 83.8783C177.772 83.8186 180.205 83.4007 180.344 82.7487C180.482 82.0968 185.407 83.1618 184.435 85.655C183.463 88.1481 148.731 98.9971 148.731 98.9971L143.317 94.7463Z" fill="black"/>
<path d="M200.981 90.4477C200.845 94.154 195.249 89.8483 195.249 89.8483C195.249 89.8483 191.612 88.9552 189.438 88.9982C189.075 88.9929 188.714 89.0429 188.366 89.1462C186.694 89.7218 185.45 83.5009 185.45 83.5009C185.45 83.5009 185.474 83.2 185.543 82.7653C185.746 81.4758 186.333 79.0185 187.817 79.6251C189.799 80.4394 193.221 83.2071 194.203 83.2812C195.185 83.3552 201.115 86.751 200.981 90.4477Z" fill="#B07473"/>
<path opacity="0.1" d="M189.432 89.0149C189.069 89.0096 188.708 89.0595 188.36 89.1629C186.688 89.7384 185.444 83.5176 185.444 83.5176C185.444 83.5176 185.467 83.2167 185.537 82.782C186.932 82.4835 188.099 82.2161 188.099 82.2161C190.66 82.3283 189.819 87.2358 189.432 89.0149Z" fill="black"/>
<path d="M188.81 89.7098C186.95 91.699 180.807 92.5969 179.87 92.3056C179.18 92.1316 178.462 92.0943 177.757 92.1957L167.214 97.1032C167.214 97.1032 165.71 98.5503 164.052 98.7748C162.395 98.9993 158.461 101.115 158.461 101.115L154.74 102.548C154.74 102.548 152.922 104.298 152.235 104.537C151.547 104.776 147.661 105.949 147.661 105.949C147.661 105.949 141.42 109.531 139.416 110.369C137.412 111.207 133.713 111.236 132.848 110.889C132.265 110.651 129.559 110.481 127.878 110.39C127.08 110.35 126.512 110.328 126.512 110.328L124.544 95.4483C124.544 95.4483 126.17 95.0877 128.224 94.6029C131.207 93.9008 135.093 92.9312 136.17 92.425C137.993 91.5677 147.706 94.0966 149.488 94.1324C151.27 94.1683 160.357 91.2668 160.357 91.2668C160.357 91.2668 171.712 84.862 174.009 84.8596C176.307 84.8572 179.29 83.8566 181.143 83.6011C182.997 83.3456 187.625 82.2853 187.625 82.2853C190.752 82.4286 188.81 89.7098 188.81 89.7098Z" fill="#444053"/>
<path opacity="0.1" d="M91.4087 104.021C91.6508 105.526 91.3942 107.068 90.6778 108.413C89.7864 108.694 88.9197 109.048 88.0864 109.471C84.1313 111.463 87.4153 100.716 87.4153 100.716C87.4153 100.716 88.5164 100.716 89.8395 100.604C90.666 101.578 91.2088 102.76 91.4087 104.021Z" fill="black"/>
<path d="M91.1721 104.06C91.4472 105.783 91.0687 107.548 90.1108 109.007C89.1529 110.466 87.6846 111.515 85.9936 111.948C84.3025 112.382 82.5106 112.168 80.9689 111.349C79.4271 110.531 78.2467 109.166 77.6587 107.522C77.6157 107.403 77.5775 107.284 77.5393 107.162C77.4509 106.869 77.3823 106.571 77.3339 106.269C77.0536 104.495 77.4654 102.681 78.4842 101.201C79.5031 99.7222 81.0511 98.6907 82.8087 98.3198C84.5663 97.949 86.3992 98.2672 87.9289 99.2086C89.4586 100.15 90.5683 101.643 91.0288 103.379C91.0891 103.603 91.137 103.83 91.1721 104.06Z" fill="#EFB7B9"/>
<path opacity="0.1" d="M127.689 104.045C129.177 106.944 128.437 109.27 127.878 110.381C127.08 110.34 126.512 110.319 126.512 110.319L124.544 95.4387C124.544 95.4387 126.17 95.0781 128.224 94.5934L128.437 94.5767C128.437 94.5767 125.585 99.9474 127.689 104.045Z" fill="black"/>
<path d="M126.982 104.158C129.087 108.258 126.744 111.21 126.744 111.21C126.744 111.21 125.647 110.902 124.694 112.504C123.741 114.106 120.797 113.851 120.135 113.22C119.473 112.59 117.157 112.244 116.383 112.449C115.609 112.654 105.595 113.039 105.595 113.039C105.595 113.039 96.5331 112.886 93.6312 108.365C93.5118 108.183 93.4034 107.993 93.3064 107.797C93.3064 107.797 91.0159 103.513 90.9443 102.558C90.9132 102.185 91.0637 101.54 91.2548 100.886C91.5581 99.8711 91.9713 98.8418 91.9713 98.8418L93.5165 98.4359C93.5165 98.4359 98.0258 95.8639 98.396 95.1594C98.7662 94.455 106.469 93.7123 110.383 94.4979C114.298 95.2836 121.697 95.1833 121.697 95.1833L127.744 94.6747C127.744 94.6747 124.89 100.06 126.982 104.158Z" fill="#E1E7EF"/>
<path opacity="0.1" d="M118.11 111.224C119.019 110.872 119.897 110.448 120.738 109.956C122.13 109.122 118.11 111.224 118.11 111.224Z" fill="black"/>
<path opacity="0.1" d="M95.9912 101.399C95.9912 101.399 98.9671 106.93 105.33 105.11C111.692 103.291 116.457 104.633 116.457 104.633C116.457 104.633 122.409 104.291 123.505 103.835C125.15 103.214 126.829 102.691 128.535 102.269C129.474 102.078 130.783 101.7 131.819 101.378C132.856 101.055 138.394 99.8901 138.394 99.8901C138.394 99.8901 136.644 95.9785 137.492 95.4794C137.492 95.4794 132.025 96.5922 131.963 96.1958C131.9 95.7994 125.774 95.5582 125.275 95.957C124.776 96.3558 119.304 96.7498 118.826 96.9289C118.349 97.108 109.894 97.8507 109.894 97.8507C109.894 97.8507 97.2093 92.6949 95.9912 101.399Z" fill="black"/>
<path d="M136.116 95.8854C136.116 95.8854 146.078 90.1134 146.443 93.9248C146.809 97.7361 137.071 99.126 137.071 99.126L136.116 95.8854Z" fill="#EFB7B9"/>
<path opacity="0.1" d="M96.1108 100.654C96.1108 100.654 99.0963 106.185 105.449 104.365C111.802 102.546 116.579 103.888 116.579 103.888C116.579 103.888 122.531 103.546 123.625 103.09C125.27 102.469 126.95 101.946 128.657 101.524C129.593 101.333 130.905 100.955 131.941 100.633C132.978 100.31 138.516 99.1451 138.516 99.1451C138.516 99.1451 136.763 95.2335 137.611 94.7344C137.611 94.7344 132.147 95.8472 132.082 95.4508C132.018 95.0544 125.894 94.8132 125.395 95.212C124.896 95.6108 119.424 96.0048 118.946 96.1839C118.468 96.363 110.021 97.1033 110.021 97.1033C110.021 97.1033 97.3313 91.9499 96.1108 100.654Z" fill="black"/>
<path d="M95.9124 100.926C95.9124 100.926 98.8907 106.457 105.251 104.638C111.611 102.818 116.381 104.16 116.381 104.16C116.381 104.16 122.333 103.818 123.426 103.362C125.071 102.74 126.752 102.216 128.459 101.793C129.395 101.605 130.706 101.225 131.743 100.903C132.779 100.58 138.318 99.4172 138.318 99.4172C138.318 99.4172 136.565 95.5032 137.413 95.0065C137.413 95.0065 131.948 96.1193 131.884 95.7229C131.819 95.3265 125.695 95.0853 125.196 95.4841C124.697 95.8829 119.237 96.2769 118.748 96.4584C118.258 96.6399 109.817 97.373 109.817 97.373C109.817 97.373 97.1328 92.222 95.9124 100.926Z" fill="#E1E7EF"/>
<path opacity="0.1" d="M116.677 99.6991C116.584 99.4436 118.189 99.5654 121.356 98.9541C124.523 98.3427 129.854 96.8812 129.854 96.8812C129.854 96.8812 117.389 101.629 116.677 99.6991Z" fill="black"/>
<path opacity="0.1" d="M104.465 97.9415C104.465 97.9415 104.615 98.3714 103.07 99.3027L104.465 97.9415Z" fill="black"/>
<path opacity="0.1" d="M107.709 98.5671C107.809 98.9846 107.749 99.4246 107.54 99.7998C107.332 100.175 106.989 100.458 106.581 100.592" fill="black"/>
<path opacity="0.1" d="M93.811 108.103L95.0434 109.247C95.0434 109.247 96.3666 109.963 96.5075 110.345C96.6484 110.727 99.3353 110.658 99.3353 110.658L102.44 112.616L101.122 110.777C101.645 110.904 102.19 110.911 102.717 110.799C103.243 110.687 103.738 110.459 104.165 110.13C105.676 109.003 108.676 106.07 108.676 106.07L114.091 101.858L114.181 99.1427L109.921 98.4525L100.004 108.497L97.7566 108.814L95.3683 108.549L93.811 108.103Z" fill="black"/>
<path d="M93.5383 107.904L94.7707 109.048C94.7707 109.048 96.0915 109.765 96.2348 110.147C96.3781 110.529 99.065 110.46 99.065 110.46L102.17 112.418L100.852 110.579C101.374 110.706 101.919 110.713 102.445 110.601C102.972 110.489 103.466 110.26 103.892 109.932C105.406 108.805 108.406 105.872 108.406 105.872L113.828 101.672L113.918 98.9564L109.657 98.2662L99.729 108.31L97.4815 108.628L95.0932 108.363L93.5383 107.904Z" fill="#67647E"/>
<path opacity="0.1" d="M96.8484 107.307L94.1304 108.537C94.011 108.354 93.9033 108.163 93.808 107.967C93.808 107.967 91.5152 103.685 91.4435 102.727C91.4125 102.355 91.5629 101.71 91.7564 101.056L96.8484 107.307Z" fill="black"/>
<path d="M96.3401 107.147L93.6222 108.375C93.5028 108.192 93.3943 108.002 93.2973 107.807C93.2973 107.807 91.0069 103.522 90.9352 102.567C90.9042 102.195 91.0547 101.55 91.2457 100.896L96.3401 107.147Z" fill="#E1E7EF"/>
<path d="M91.0277 103.377C90.9152 103.524 90.7717 103.645 90.6074 103.73C90.1846 103.924 89.6926 103.73 89.2293 103.752C88.7659 103.773 88.2978 104.026 87.8177 104.064C87.4792 104.069 87.1417 104.028 86.8146 103.94C86.1817 103.809 85.4938 103.735 84.9039 104.022C84.314 104.308 83.9485 105.082 84.2925 105.629C83.9175 106.156 83.189 106.326 82.5466 106.238C81.0419 106.025 79.7808 104.731 78.2475 105.734C77.5811 106.176 77.6241 106.859 77.6384 107.52C77.5955 107.401 77.5572 107.281 77.519 107.159C77.4307 106.867 77.362 106.568 77.3136 106.266C77.0334 104.492 77.4452 102.678 78.464 101.199C79.4828 99.7199 81.0309 98.6883 82.7884 98.3175C84.546 97.9467 86.3789 98.2648 87.9087 99.2063C89.4384 100.148 90.5481 101.641 91.0086 103.377H91.0277Z" fill="url(#paint1_linear)"/>
<path d="M77.063 108.776C76.74 108.959 76.3849 109.079 76.0169 109.13C75.6079 109.246 75.1721 109.227 74.775 109.075C74.4681 108.899 74.226 108.63 74.0847 108.306C73.201 106.553 73.8841 104.423 73.5091 102.496C73.3515 101.684 73.0052 100.848 73.2512 100.06C73.4972 99.2717 74.3212 98.744 75.0162 98.2329C76.0583 97.4656 76.9491 96.5118 77.6434 95.4198C78.0136 94.8371 78.3456 94.1947 78.9188 93.815C79.5923 93.366 80.4665 93.366 81.2666 93.4878C82.0667 93.6096 82.8596 93.8365 83.6693 93.7887C84.1708 93.7601 84.6628 93.624 85.1644 93.5762C85.749 93.5409 86.3357 93.5665 86.9151 93.6526C87.6029 93.729 88.3147 93.815 88.907 94.1732C89.9507 94.8037 90.3567 96.0837 90.629 97.2777C90.9013 98.4717 91.1759 99.7565 92.0978 100.552C92.2493 100.649 92.365 100.793 92.4274 100.962C92.4322 101.062 92.4162 101.161 92.3804 101.254C92.3447 101.347 92.2899 101.432 92.2196 101.502L91.1306 102.949C90.9891 103.173 90.7947 103.358 90.5645 103.489C90.1442 103.685 89.6498 103.489 89.1864 103.508C88.7231 103.527 88.2573 103.788 87.7749 103.823C87.4363 103.83 87.0986 103.788 86.7718 103.699C86.1388 103.568 85.451 103.494 84.873 103.78C84.295 104.067 83.9177 104.841 84.2616 105.388C83.8842 105.915 83.1558 106.087 82.5157 105.996C81.0086 105.786 79.7476 104.49 78.2166 105.493C76.9746 106.324 78.2429 108.029 77.063 108.776Z" fill="#585268"/>
<g opacity="0.1">
<path opacity="0.1" d="M90.2592 96.5587C90.4694 97.4686 90.6796 98.4405 91.1811 99.2023C90.9488 98.5811 90.7667 97.9422 90.6366 97.2919C90.4891 96.5086 90.2079 95.7566 89.8054 95.0686C89.9976 95.5519 90.1494 96.0503 90.2592 96.5587Z" fill="black"/>
<path opacity="0.1" d="M92.103 100.556L92.0289 100.487C91.9832 100.594 91.9229 100.695 91.8498 100.786L90.7607 102.233C90.6187 102.456 90.4244 102.641 90.1947 102.772C89.7743 102.968 89.2799 102.772 88.8166 102.792C88.3532 102.811 87.8875 103.071 87.4051 103.107C87.0665 103.113 86.7288 103.071 86.4019 102.983C85.769 102.851 85.0812 102.777 84.4912 103.064C83.9013 103.35 83.5359 104.124 83.8798 104.671C83.5024 105.199 82.7764 105.371 82.1339 105.28C80.6292 105.07 79.3682 103.773 77.8348 104.776C76.5809 105.602 77.8492 107.307 76.6669 108.055C76.3449 108.238 75.9905 108.358 75.6232 108.408C75.2076 108.487 74.7586 108.542 74.3812 108.353C74.1895 108.252 74.0256 108.105 73.9036 107.926C73.951 108.056 74.006 108.182 74.0684 108.306C74.2096 108.63 74.4517 108.899 74.7586 109.075C75.1558 109.227 75.5915 109.246 76.0006 109.129C76.3686 109.079 76.7236 108.959 77.0467 108.776C78.2265 108.029 76.9583 106.323 78.2146 105.497C79.736 104.494 80.997 105.791 82.5137 106.001C83.1537 106.092 83.8822 105.92 84.2596 105.392C83.9156 104.845 84.2906 104.072 84.871 103.785C85.4514 103.498 86.1368 103.572 86.7697 103.704C87.0966 103.792 87.4343 103.834 87.7729 103.828C88.2505 103.792 88.7019 103.534 89.1844 103.513C89.6668 103.491 90.1397 103.689 90.5625 103.494C90.7927 103.363 90.9871 103.178 91.1285 102.954L92.2176 101.507C92.2879 101.436 92.3426 101.352 92.3784 101.259C92.4142 101.166 92.4302 101.067 92.4254 100.967C92.3649 100.799 92.2518 100.655 92.103 100.556Z" fill="black"/>
</g>
<path opacity="0.1" d="M147.912 97.397C147.912 97.397 149.777 100.74 149.381 101.294C148.984 101.848 147.912 97.397 147.912 97.397Z" fill="black"/>
<path opacity="0.1" d="M154.045 96.418C154.045 96.418 155.22 98.4741 154.981 98.8824L154.045 96.418Z" fill="black"/>
<path opacity="0.1" d="M161.086 91.6632C161.086 91.6632 162.445 92.6184 161.941 93.2393L161.086 91.6632Z" fill="black"/>
<path opacity="0.1" d="M162.455 91.1404C162.455 91.1404 164.182 93.2514 163.609 93.827L162.455 91.1404Z" fill="black"/>
<path opacity="0.1" d="M186.201 85.354C186.201 85.354 186.463 88.8859 187.502 88.585C188.541 88.2841 186.201 85.354 186.201 85.354Z" fill="black"/>
<path d="M177.71 172.649C177.71 172.649 179.16 167.728 177.437 164.105C176.704 162.589 176.483 160.876 176.809 159.224C176.969 158.442 177.2 157.676 177.5 156.936" stroke="#535461" stroke-width="2" stroke-miterlimit="10"/>
<path d="M176.427 154.651C176.427 155.253 177.521 157.003 177.521 157.003C177.521 157.003 178.613 155.253 178.613 154.651C178.599 154.37 178.479 154.105 178.275 153.911C178.072 153.716 177.801 153.608 177.52 153.608C177.239 153.608 176.968 153.716 176.765 153.911C176.561 154.105 176.44 154.37 176.427 154.651Z" fill="#FF5C00"/>
<path d="M174.621 157.992C174.951 158.498 176.818 159.372 176.818 159.372C176.818 159.372 176.783 157.311 176.455 156.805C176.297 156.562 176.048 156.391 175.765 156.331C175.481 156.271 175.184 156.327 174.941 156.485C174.698 156.643 174.528 156.892 174.468 157.176C174.407 157.46 174.463 157.756 174.621 157.999V157.992Z" fill="#FF5C00"/>
<path d="M174.7 163.702C175.24 163.974 177.294 163.785 177.294 163.785C177.294 163.785 176.224 162.023 175.684 161.751C175.427 161.636 175.136 161.624 174.871 161.718C174.606 161.813 174.388 162.005 174.261 162.257C174.134 162.508 174.109 162.798 174.191 163.067C174.273 163.336 174.455 163.563 174.7 163.702Z" fill="#FF5C00"/>
<path d="M175.734 168.007C176.212 168.365 178.276 168.528 178.276 168.528C178.276 168.528 177.518 166.617 177.034 166.252C176.801 166.08 176.509 166.007 176.223 166.05C175.936 166.092 175.679 166.247 175.506 166.48C175.334 166.713 175.261 167.004 175.304 167.291C175.347 167.577 175.502 167.835 175.734 168.007Z" fill="#FF5C00"/>
<path d="M179.107 159.489C178.674 159.909 176.658 160.344 176.658 160.344C176.658 160.344 177.15 158.343 177.585 157.922C177.793 157.721 178.072 157.61 178.362 157.614C178.651 157.618 178.927 157.737 179.129 157.945C179.331 158.153 179.442 158.432 179.438 158.722C179.433 159.011 179.314 159.287 179.107 159.489Z" fill="#FF5C00"/>
<path d="M180.256 164.542C179.716 164.812 177.662 164.626 177.662 164.626C177.662 164.626 178.732 162.863 179.272 162.591C179.529 162.476 179.82 162.465 180.085 162.559C180.35 162.653 180.569 162.846 180.695 163.097C180.822 163.348 180.847 163.639 180.765 163.908C180.683 164.177 180.501 164.404 180.256 164.542Z" fill="#FF5C00"/>
<path d="M180.692 169.605C180.215 169.963 178.151 170.125 178.151 170.125C178.151 170.125 178.908 168.215 179.393 167.847C179.508 167.755 179.64 167.686 179.782 167.646C179.924 167.606 180.073 167.596 180.219 167.614C180.365 167.633 180.506 167.682 180.633 167.756C180.76 167.831 180.871 167.931 180.959 168.049C181.046 168.168 181.109 168.303 181.143 168.446C181.177 168.59 181.182 168.738 181.157 168.884C181.132 169.029 181.078 169.168 180.998 169.292C180.919 169.416 180.814 169.522 180.692 169.605Z" fill="#FF5C00"/>
<path d="M213.096 167.637C213.096 167.637 214.546 162.715 212.824 159.093C212.091 157.576 211.87 155.862 212.195 154.209C212.355 153.426 212.586 152.66 212.886 151.919" stroke="#535461" stroke-width="2" stroke-miterlimit="10"/>
<path d="M211.812 149.638C211.812 150.24 212.906 151.99 212.906 151.99C212.906 151.99 213.998 150.24 213.998 149.638C214.005 149.49 213.982 149.343 213.93 149.204C213.878 149.066 213.799 148.939 213.697 148.832C213.594 148.725 213.472 148.64 213.336 148.582C213.2 148.523 213.053 148.493 212.905 148.493C212.757 148.493 212.611 148.523 212.475 148.582C212.339 148.64 212.216 148.725 212.114 148.832C212.012 148.939 211.932 149.066 211.88 149.204C211.829 149.343 211.806 149.49 211.812 149.638Z" fill="#FF5C00"/>
<path d="M210.008 152.979C210.338 153.486 212.205 154.36 212.205 154.36C212.205 154.36 212.172 152.299 211.842 151.792C211.764 151.672 211.663 151.568 211.544 151.487C211.426 151.406 211.292 151.349 211.152 151.319C211.011 151.289 210.866 151.287 210.725 151.314C210.583 151.34 210.449 151.394 210.328 151.472C210.208 151.551 210.104 151.652 210.023 151.771C209.941 151.889 209.884 152.023 209.854 152.163C209.825 152.304 209.823 152.449 209.849 152.59C209.876 152.731 209.93 152.866 210.008 152.986V152.979Z" fill="#FF5C00"/>
<path d="M210.089 158.686C210.626 158.959 212.68 158.772 212.68 158.772C212.68 158.772 211.61 157.008 211.07 156.738C210.942 156.669 210.801 156.626 210.656 156.612C210.511 156.599 210.364 156.614 210.225 156.658C210.086 156.702 209.957 156.773 209.846 156.867C209.735 156.962 209.644 157.078 209.578 157.208C209.513 157.338 209.474 157.48 209.464 157.626C209.454 157.771 209.474 157.917 209.521 158.055C209.569 158.193 209.644 158.32 209.741 158.428C209.839 158.537 209.957 158.624 210.089 158.686Z" fill="#FF5C00"/>
<path d="M211.111 162.995C211.589 163.353 213.653 163.515 213.653 163.515C213.653 163.515 212.895 161.605 212.411 161.237C212.177 161.079 211.891 161.017 211.613 161.065C211.334 161.112 211.085 161.265 210.918 161.492C210.75 161.719 210.676 162.003 210.712 162.282C210.748 162.562 210.891 162.818 211.111 162.995Z" fill="#FF5C00"/>
<path d="M214.498 154.476C214.065 154.897 212.05 155.331 212.05 155.331C212.05 155.331 212.544 153.33 212.976 152.91C213.184 152.708 213.463 152.597 213.753 152.601C214.043 152.606 214.319 152.725 214.52 152.933C214.722 153.14 214.833 153.42 214.829 153.709C214.825 153.999 214.705 154.275 214.498 154.476Z" fill="#FF5C00"/>
<path d="M215.649 159.527C215.109 159.799 213.055 159.611 213.055 159.611C213.055 159.611 214.127 157.848 214.665 157.579C214.923 157.448 215.223 157.426 215.498 157.516C215.773 157.607 216.001 157.803 216.131 158.061C216.262 158.319 216.284 158.619 216.194 158.894C216.103 159.169 215.907 159.397 215.649 159.527Z" fill="#FF5C00"/>
<path d="M216.079 164.59C215.601 164.948 213.538 165.11 213.538 165.11C213.538 165.11 214.295 163.2 214.78 162.835C214.895 162.749 215.026 162.688 215.165 162.653C215.304 162.618 215.449 162.611 215.591 162.632C215.732 162.654 215.869 162.702 215.992 162.776C216.114 162.85 216.222 162.947 216.307 163.063C216.392 163.178 216.454 163.309 216.489 163.448C216.523 163.587 216.53 163.732 216.509 163.873C216.488 164.015 216.439 164.152 216.365 164.274C216.291 164.397 216.194 164.505 216.079 164.59Z" fill="#FF5C00"/>
<path d="M185.221 167.159C185.221 167.159 186.671 162.238 184.949 158.615C184.216 157.098 183.996 155.384 184.321 153.731C184.48 152.949 184.711 152.183 185.011 151.444" stroke="#535461" stroke-width="2" stroke-miterlimit="10"/>
<path d="M183.938 149.161C183.938 149.762 185.032 151.513 185.032 151.513C185.032 151.513 186.123 149.762 186.123 149.161C186.11 148.88 185.989 148.615 185.786 148.42C185.582 148.226 185.312 148.118 185.031 148.118C184.749 148.118 184.479 148.226 184.275 148.42C184.072 148.615 183.951 148.88 183.938 149.161Z" fill="#FF5C00"/>
<path d="M182.133 152.501C182.462 153.008 184.33 153.882 184.33 153.882C184.33 153.882 184.297 151.821 183.967 151.315C183.809 151.071 183.56 150.901 183.276 150.841C182.992 150.781 182.696 150.836 182.453 150.995C182.21 151.153 182.039 151.401 181.979 151.685C181.919 151.969 181.974 152.265 182.133 152.509V152.501Z" fill="#FF5C00"/>
<path d="M182.212 158.211C182.749 158.484 184.803 158.295 184.803 158.295C184.803 158.295 183.733 156.533 183.193 156.26C183.065 156.196 182.926 156.157 182.783 156.147C182.64 156.136 182.496 156.154 182.36 156.199C182.223 156.244 182.098 156.315 181.989 156.409C181.88 156.503 181.791 156.617 181.727 156.745C181.662 156.873 181.624 157.013 181.613 157.156C181.603 157.299 181.621 157.442 181.666 157.579C181.711 157.715 181.782 157.841 181.876 157.949C181.969 158.058 182.084 158.147 182.212 158.211Z" fill="#FF5C00"/>
<path d="M183.245 162.517C183.723 162.875 185.787 163.038 185.787 163.038C185.787 163.038 185.029 161.127 184.545 160.762C184.429 160.677 184.298 160.615 184.159 160.58C184.02 160.545 183.876 160.538 183.734 160.56C183.592 160.581 183.456 160.63 183.333 160.703C183.21 160.777 183.103 160.875 183.017 160.99C182.932 161.105 182.87 161.236 182.835 161.375C182.801 161.514 182.794 161.659 182.815 161.801C182.836 161.943 182.885 162.079 182.959 162.202C183.033 162.325 183.13 162.432 183.245 162.517Z" fill="#FF5C00"/>
<path d="M186.622 153.999C186.19 154.419 184.174 154.854 184.174 154.854C184.174 154.854 184.669 152.853 185.101 152.432C185.309 152.231 185.588 152.12 185.878 152.124C186.167 152.128 186.443 152.247 186.645 152.455C186.847 152.663 186.958 152.942 186.954 153.232C186.949 153.521 186.83 153.797 186.622 153.999Z" fill="#FF5C00"/>
<path d="M187.767 159.052C187.227 159.322 185.173 159.136 185.173 159.136C185.173 159.136 186.245 157.373 186.783 157.101C187.04 156.986 187.331 156.975 187.596 157.069C187.861 157.163 188.079 157.356 188.206 157.607C188.333 157.858 188.358 158.148 188.276 158.417C188.194 158.686 188.012 158.914 187.767 159.052Z" fill="#FF5C00"/>
<path d="M188.205 164.115C187.727 164.473 185.663 164.635 185.663 164.635C185.663 164.635 186.42 162.725 186.905 162.357C187.02 162.264 187.152 162.196 187.294 162.156C187.436 162.116 187.585 162.105 187.731 162.124C187.877 162.143 188.018 162.191 188.145 162.266C188.272 162.341 188.383 162.44 188.471 162.559C188.558 162.677 188.621 162.812 188.655 162.956C188.689 163.099 188.694 163.248 188.669 163.393C188.644 163.539 188.59 163.678 188.511 163.801C188.431 163.925 188.327 164.032 188.205 164.115Z" fill="#FF5C00"/>
<path d="M210.395 172.396C210.395 172.606 210.395 172.814 210.395 173.017L210.466 172.958C211.297 172.259 212.117 171.548 212.924 170.825L212.996 170.761C215.628 168.406 218.14 165.919 220.521 163.31C217.973 158.877 212.004 158.854 210.932 158.887H210.765C210.765 158.887 210.38 166.866 210.395 172.396Z" fill="#A8A8A8"/>
<path opacity="0.1" d="M210.395 172.396C210.395 172.606 210.395 172.814 210.395 173.017L210.466 172.958C211.297 172.259 212.117 171.548 212.924 170.825L212.996 170.761C215.628 168.406 218.14 165.919 220.521 163.31C217.973 158.877 212.004 158.854 210.932 158.887H210.765C210.765 158.887 210.38 166.866 210.395 172.396Z" fill="white"/>
<path d="M184.953 163.888L185.154 165.211L187.198 178.653L187.867 183.061L188.519 187.346C189.733 186.739 190.932 186.112 192.118 185.464L192.173 185.435L192.441 185.287L193.136 184.903C194.539 184.119 195.92 183.309 197.28 182.472L198.116 181.953C198.823 181.509 199.522 181.058 200.215 180.599C201.597 179.69 202.955 178.751 204.29 177.781L204.767 177.428L205.152 177.144C206.948 175.816 208.695 174.44 210.392 173.015L210.464 172.955C211.295 172.256 212.114 171.545 212.921 170.823L211.727 164.673C211.488 163.428 211.291 162.179 211.135 160.924C211.049 160.246 210.977 159.566 210.92 158.885C210.903 158.722 210.889 158.558 210.877 158.395C210.466 153.268 209.205 142.617 205.668 140.112C205.331 139.858 204.939 139.688 204.524 139.614C204.109 139.541 203.683 139.567 203.279 139.69C202.928 139.788 202.583 139.906 202.245 140.043C199.764 141.036 197.416 143.009 195.469 145.058C192.678 148.012 190.416 151.424 188.782 155.145L185.199 163.219L185.187 163.245L185.154 163.319L184.953 163.888Z" fill="#A8A8A8"/>
<path opacity="0.1" d="M193.676 177.669L197.829 163.465C197.829 163.465 201.717 173.913 204.777 177.43L205.161 177.146L199.647 163.522C199.647 163.522 197.841 155.759 199.286 152.931C200.432 150.687 204.197 143.14 205.699 140.112C205.362 139.858 204.97 139.688 204.555 139.614C204.14 139.541 203.714 139.567 203.31 139.69C202.959 139.788 202.614 139.906 202.276 140.043C200.366 143.071 196.831 149.118 196.568 152.869C196.364 156.151 196.505 159.444 196.988 162.696L193.676 177.669Z" fill="white"/>
<path d="M174.724 193.182C176.459 192.572 178.175 191.927 179.871 191.248C182.823 190.055 185.706 188.755 188.519 187.348C189.732 186.741 190.932 186.114 192.118 185.466L192.173 185.438L192.035 184.561L191.884 183.606L191.39 180.439C191.39 180.439 189.09 170.495 186.659 165.478C186.298 164.664 185.822 163.906 185.247 163.226C185.211 163.186 185.173 163.15 185.135 163.114C184.637 162.799 184.05 162.657 183.463 162.708C182.69 162.795 181.967 163.135 181.407 163.675C180.212 164.738 178.911 166.866 177.793 170.937C176.071 177.18 175.175 186.409 174.724 193.182Z" fill="#A8A8A8"/>
<path opacity="0.1" d="M179.871 191.248C182.823 190.055 185.706 188.755 188.52 187.348C189.733 186.741 190.933 186.114 192.119 185.466C192.107 185.17 192.078 184.869 192.035 184.561C192.035 184.561 191.732 182.89 188.524 183.016C188.305 183.016 188.085 183.042 187.868 183.069C186.188 183.279 184.6 183.951 183.281 185.012C181.962 186.073 180.964 187.479 180.399 189.075C180.139 189.776 179.962 190.505 179.871 191.248Z" fill="white"/>
<path opacity="0.1" d="M184.108 167.799C184.216 164.962 182.675 163.99 181.402 163.666C181.962 163.125 182.685 162.785 183.459 162.698C184.345 163.44 184.973 164.443 185.252 165.564L188.503 181.392C188.503 181.392 183.927 172.554 184.108 167.799Z" fill="white"/>
<path d="M198.168 181.259L197.28 182.474L198.116 181.956C198.823 181.512 199.522 181.06 200.215 180.602L198.856 180.318L198.168 181.259Z" fill="#A8A8A8"/>
<path opacity="0.1" d="M198.116 181.956C198.823 181.512 199.523 181.06 200.215 180.602C201.597 179.693 202.956 178.754 204.29 177.784C203.351 177.115 202.458 176.652 201.837 176.707C201.837 176.707 198.653 176.924 198.169 181.259C198.145 181.481 198.126 181.712 198.116 181.956Z" fill="white"/>
<path opacity="0.1" d="M185.13 163.104L185.202 163.324L191.889 183.604L192.446 185.29L193.141 184.905C192.305 178.06 190.102 171.453 186.663 165.476C185.975 164.306 185.452 163.549 185.23 163.25C185.178 163.174 185.144 163.128 185.13 163.112V163.104Z" fill="black"/>
<path opacity="0.1" d="M210.395 172.396C210.416 172.583 210.442 172.769 210.469 172.958C211.3 172.259 212.119 171.548 212.926 170.825L212.998 170.761L211.149 160.927L210.767 158.894C209.944 163.348 209.818 167.904 210.395 172.396Z" fill="black"/>
<path opacity="0.1" d="M123.08 17.8507H126.128C125.574 17.8322 125.049 17.5993 124.664 17.2011C124.279 16.803 124.064 16.2708 124.064 15.717C124.064 15.1631 124.279 14.6309 124.664 14.2328C125.049 13.8347 125.574 13.6018 126.128 13.5833H150.814C151.368 13.6018 151.892 13.8347 152.277 14.2328C152.662 14.6309 152.878 15.1631 152.878 15.717C152.878 16.2708 152.662 16.803 152.277 17.2011C151.892 17.5993 151.368 17.8322 150.814 17.8507H147.766C148.332 17.8507 148.874 18.0754 149.274 18.4753C149.674 18.8753 149.899 19.4177 149.899 19.9833C149.899 20.5488 149.674 21.0913 149.274 21.4912C148.874 21.8911 148.332 22.1158 147.766 22.1158H152.032C152.586 22.1343 153.11 22.3672 153.495 22.7654C153.88 23.1635 154.096 23.6957 154.096 24.2495C154.096 24.8034 153.88 25.3356 153.495 25.7337C153.11 26.1318 152.586 26.3647 152.032 26.3833H127.346C126.792 26.3647 126.267 26.1318 125.882 25.7337C125.497 25.3356 125.282 24.8034 125.282 24.2495C125.282 23.6957 125.497 23.1635 125.882 22.7654C126.267 22.3672 126.792 22.1343 127.346 22.1158H123.08C122.514 22.1158 121.972 21.8911 121.572 21.4912C121.172 21.0913 120.947 20.5488 120.947 19.9833C120.947 19.4177 121.172 18.8753 121.572 18.4753C121.972 18.0754 122.514 17.8507 123.08 17.8507Z" fill="#FF5C00"/>
<path opacity="0.1" d="M158.268 50.5361H161.315C160.75 50.5361 160.207 50.3114 159.807 49.9115C159.407 49.5115 159.183 48.9691 159.183 48.4035C159.183 47.838 159.407 47.2955 159.807 46.8956C160.207 46.4957 160.75 46.271 161.315 46.271H186.002C186.567 46.271 187.11 46.4957 187.51 46.8956C187.91 47.2955 188.134 47.838 188.134 48.4035C188.134 48.9691 187.91 49.5115 187.51 49.9115C187.11 50.3114 186.567 50.5361 186.002 50.5361H182.954C183.52 50.5361 184.062 50.7607 184.462 51.1607C184.862 51.5606 185.087 52.103 185.087 52.6686C185.087 53.2342 184.862 53.7766 184.462 54.1765C184.062 54.5765 183.52 54.8011 182.954 54.8011H187.227C187.781 54.8197 188.305 55.0526 188.69 55.4507C189.075 55.8488 189.291 56.381 189.291 56.9349C189.291 57.4887 189.075 58.0209 188.69 58.419C188.305 58.8172 187.781 59.0501 187.227 59.0686H162.533C161.98 59.0501 161.455 58.8172 161.07 58.419C160.685 58.0209 160.47 57.4887 160.47 56.9349C160.47 56.381 160.685 55.8488 161.07 55.4507C161.455 55.0526 161.98 54.8197 162.533 54.8011H158.268C157.702 54.8011 157.16 54.5765 156.76 54.1765C156.36 53.7766 156.135 53.2342 156.135 52.6686C156.135 52.103 156.36 51.5606 156.76 51.1607C157.16 50.7607 157.702 50.5361 158.268 50.5361Z" fill="#FF5C00"/>
<path opacity="0.1" d="M122.502 152.604H123.935C123.668 152.604 123.411 152.498 123.221 152.308C123.032 152.119 122.925 151.862 122.925 151.594C122.925 151.326 123.032 151.069 123.221 150.88C123.411 150.69 123.668 150.584 123.935 150.584H135.639C135.906 150.584 136.163 150.69 136.353 150.88C136.542 151.069 136.649 151.326 136.649 151.594C136.649 151.862 136.542 152.119 136.353 152.308C136.163 152.498 135.906 152.604 135.639 152.604H134.206C134.473 152.604 134.73 152.71 134.92 152.9C135.109 153.089 135.216 153.346 135.216 153.614C135.216 153.882 135.109 154.139 134.92 154.328C134.73 154.518 134.473 154.624 134.206 154.624H136.224C136.492 154.624 136.749 154.731 136.938 154.92C137.128 155.11 137.234 155.367 137.234 155.634C137.234 155.902 137.128 156.159 136.938 156.349C136.749 156.538 136.492 156.645 136.224 156.645H124.523C124.255 156.645 123.998 156.538 123.809 156.349C123.619 156.159 123.513 155.902 123.513 155.634C123.513 155.367 123.619 155.11 123.809 154.92C123.998 154.731 124.255 154.624 124.523 154.624H122.502C122.235 154.624 121.978 154.518 121.788 154.328C121.599 154.139 121.492 153.882 121.492 153.614C121.492 153.346 121.599 153.089 121.788 152.9C121.978 152.71 122.235 152.604 122.502 152.604Z" fill="#FF5C00"/>
<path opacity="0.1" d="M90.3287 169.772H91.4799C91.2737 169.761 91.0797 169.671 90.9377 169.521C90.7957 169.371 90.7166 169.173 90.7166 168.966C90.7166 168.76 90.7957 168.561 90.9377 168.411C91.0797 168.261 91.2737 168.171 91.4799 168.16H100.809C101.015 168.171 101.209 168.261 101.351 168.411C101.493 168.561 101.572 168.76 101.572 168.966C101.572 169.173 101.493 169.371 101.351 169.521C101.209 169.671 101.015 169.761 100.809 169.772H99.6577C99.8639 169.783 100.058 169.873 100.2 170.023C100.342 170.173 100.421 170.372 100.421 170.578C100.421 170.785 100.342 170.983 100.2 171.133C100.058 171.283 99.8639 171.373 99.6577 171.384H101.27C101.476 171.395 101.67 171.485 101.812 171.635C101.954 171.785 102.033 171.984 102.033 172.19C102.033 172.396 101.954 172.595 101.812 172.745C101.67 172.895 101.476 172.985 101.27 172.996H91.9313C91.8218 173.002 91.7122 172.986 91.6092 172.948C91.5062 172.91 91.412 172.851 91.3324 172.776C91.2527 172.701 91.1893 172.61 91.1459 172.509C91.1025 172.408 91.0802 172.3 91.0802 172.19C91.0802 172.08 91.1025 171.972 91.1459 171.871C91.1893 171.77 91.2527 171.679 91.3324 171.604C91.412 171.529 91.5062 171.47 91.6092 171.432C91.7122 171.394 91.8218 171.378 91.9313 171.384H90.3192C90.2096 171.39 90.1 171.374 89.997 171.336C89.894 171.298 89.7999 171.24 89.7202 171.164C89.6405 171.089 89.5771 170.998 89.5337 170.897C89.4904 170.796 89.468 170.688 89.468 170.578C89.468 170.468 89.4904 170.36 89.5337 170.259C89.5771 170.158 89.6405 170.067 89.7202 169.992C89.7999 169.917 89.894 169.858 89.997 169.82C90.1 169.783 90.2096 169.766 90.3192 169.772H90.3287Z" fill="#FF5C00"/>
<path opacity="0.1" d="M50.8943 139.73H52.3393C52.0713 139.73 51.8144 139.624 51.6249 139.434C51.4354 139.245 51.329 138.988 51.329 138.72C51.329 138.452 51.4354 138.195 51.6249 138.006C51.8144 137.816 52.0713 137.71 52.3393 137.71H64.0256C64.2935 137.71 64.5505 137.816 64.74 138.006C64.9294 138.195 65.0359 138.452 65.0359 138.72C65.0359 138.988 64.9294 139.245 64.74 139.434C64.5505 139.624 64.2935 139.73 64.0256 139.73H62.5926C62.8605 139.73 63.1175 139.837 63.307 140.026C63.4964 140.216 63.6029 140.473 63.6029 140.74C63.6029 141.008 63.4964 141.265 63.307 141.455C63.1175 141.644 62.8605 141.751 62.5926 141.751H64.6131C64.8811 141.751 65.1381 141.857 65.3275 142.046C65.517 142.236 65.6234 142.493 65.6234 142.761C65.6234 143.029 65.517 143.286 65.3275 143.475C65.1381 143.664 64.8811 143.771 64.6131 143.771H52.9149C52.6469 143.771 52.39 143.664 52.2005 143.475C52.011 143.286 51.9046 143.029 51.9046 142.761C51.9046 142.493 52.011 142.236 52.2005 142.046C52.39 141.857 52.6469 141.751 52.9149 141.751H50.8943C50.6264 141.751 50.3694 141.644 50.1799 141.455C49.9905 141.265 49.884 141.008 49.884 140.74C49.884 140.473 49.9905 140.216 50.1799 140.026C50.3694 139.837 50.6264 139.73 50.8943 139.73Z" fill="#FF5C00"/>
<path opacity="0.1" d="M152.835 171.307H154.268C154 171.307 153.743 171.201 153.554 171.012C153.364 170.822 153.258 170.565 153.258 170.297C153.258 170.029 153.364 169.772 153.554 169.583C153.743 169.394 154 169.287 154.268 169.287H165.971C166.239 169.287 166.496 169.394 166.685 169.583C166.875 169.772 166.981 170.029 166.981 170.297C166.981 170.565 166.875 170.822 166.685 171.012C166.496 171.201 166.239 171.307 165.971 171.307H164.538C164.806 171.307 165.063 171.414 165.252 171.603C165.442 171.793 165.548 172.05 165.548 172.318C165.548 172.585 165.442 172.842 165.252 173.032C165.063 173.221 164.806 173.328 164.538 173.328H166.559C166.818 173.34 167.062 173.452 167.241 173.64C167.42 173.828 167.52 174.077 167.52 174.337C167.52 174.596 167.42 174.846 167.241 175.033C167.062 175.221 166.818 175.333 166.559 175.346H154.851C154.714 175.352 154.578 175.331 154.449 175.283C154.321 175.236 154.204 175.162 154.105 175.068C154.006 174.974 153.927 174.86 153.873 174.735C153.819 174.609 153.791 174.473 153.791 174.337C153.791 174.2 153.819 174.065 153.873 173.939C153.927 173.813 154.006 173.7 154.105 173.605C154.204 173.511 154.321 173.438 154.449 173.39C154.578 173.342 154.714 173.321 154.851 173.328H152.835C152.567 173.328 152.31 173.221 152.121 173.032C151.931 172.842 151.825 172.585 151.825 172.318C151.825 172.05 151.931 171.793 152.121 171.603C152.31 171.414 152.567 171.307 152.835 171.307Z" fill="#FF5C00"/>
<path opacity="0.3" d="M169.075 73.4925C169.153 73.345 169.173 73.1741 169.133 73.0124C169.092 72.8508 168.993 72.7097 168.855 72.6161C168.834 72.602 168.815 72.5851 168.798 72.566C168.749 72.5118 168.718 72.4433 168.711 72.3705C168.704 72.2977 168.72 72.2245 168.758 72.1616C168.795 72.0988 168.852 72.0496 168.919 72.0213C168.987 71.9931 169.061 71.9873 169.133 72.0048C169.157 72.0114 169.182 72.021 169.204 72.0334C169.352 72.1113 169.523 72.1321 169.685 72.0921C169.847 72.052 169.989 71.9538 170.083 71.8161C170.097 71.7941 170.114 71.7741 170.133 71.7564C170.188 71.7079 170.256 71.678 170.329 71.6713C170.401 71.6645 170.474 71.6812 170.537 71.7188C170.599 71.7564 170.648 71.8131 170.676 71.8804C170.704 71.9478 170.71 72.0223 170.692 72.0931C170.685 72.1178 170.675 72.1417 170.663 72.1648C170.586 72.3123 170.566 72.4832 170.606 72.6449C170.647 72.8065 170.745 72.9476 170.883 73.0412C170.905 73.0559 170.925 73.0727 170.943 73.0913C170.991 73.1458 171.021 73.2143 171.028 73.2869C171.035 73.3595 171.018 73.4324 170.981 73.4948C170.943 73.5573 170.886 73.6061 170.819 73.634C170.751 73.662 170.677 73.6676 170.606 73.6501C170.581 73.6445 170.557 73.6349 170.534 73.6215C170.386 73.5444 170.215 73.5242 170.053 73.5647C169.891 73.6052 169.75 73.7035 169.656 73.8412C169.642 73.8631 169.626 73.8832 169.608 73.9009C169.554 73.9505 169.485 73.9812 169.412 73.9886C169.338 73.9959 169.265 73.9794 169.202 73.9416C169.139 73.9038 169.09 73.8466 169.062 73.7786C169.034 73.7106 169.028 73.6354 169.047 73.5642C169.054 73.5395 169.064 73.5155 169.075 73.4925Z" fill="#FF5C00"/>
<path opacity="0.3" d="M244.71 33.2108C244.788 33.0633 244.809 32.8923 244.768 32.7305C244.728 32.5687 244.629 32.4276 244.49 32.3344C244.47 32.3196 244.451 32.3028 244.433 32.2842C244.384 32.2299 244.353 32.1611 244.345 32.0879C244.338 32.0148 244.355 31.9412 244.392 31.8782C244.43 31.8151 244.487 31.766 244.555 31.738C244.623 31.7101 244.699 31.7048 244.77 31.723C244.794 31.7301 244.817 31.7397 244.839 31.7517C244.987 31.8298 245.158 31.8506 245.321 31.8101C245.483 31.7695 245.624 31.6705 245.718 31.532C245.733 31.5112 245.75 31.492 245.768 31.4747C245.823 31.4261 245.891 31.3963 245.964 31.3895C246.036 31.3828 246.109 31.3994 246.172 31.4371C246.234 31.4747 246.283 31.5313 246.311 31.5987C246.339 31.666 246.345 31.7406 246.327 31.8114C246.321 31.8358 246.312 31.8592 246.298 31.8806C246.221 32.0287 246.201 32.1998 246.242 32.3617C246.282 32.5236 246.381 32.6651 246.518 32.7594C246.54 32.7741 246.56 32.7909 246.578 32.8096C246.626 32.864 246.656 32.9326 246.663 33.0052C246.67 33.0778 246.653 33.1506 246.616 33.2131C246.578 33.2756 246.521 33.3243 246.454 33.3523C246.386 33.3802 246.312 33.3859 246.241 33.3684C246.216 33.362 246.192 33.3524 246.169 33.3397C246.022 33.2628 245.851 33.2427 245.689 33.2832C245.528 33.3237 245.387 33.422 245.293 33.5594C245.278 33.5804 245.261 33.6004 245.243 33.6191C245.189 33.6687 245.12 33.6995 245.047 33.7068C244.973 33.7142 244.9 33.6977 244.837 33.6599C244.774 33.622 244.724 33.5649 244.697 33.4969C244.669 33.4289 244.663 33.3537 244.682 33.2824C244.689 33.2578 244.699 33.2338 244.71 33.2108Z" fill="#FF5C00"/>
<path opacity="0.3" d="M245.874 141.404C245.951 141.257 245.972 141.086 245.931 140.924C245.891 140.762 245.792 140.621 245.654 140.528C245.633 140.514 245.614 140.497 245.597 140.478C245.547 140.424 245.516 140.355 245.508 140.282C245.501 140.209 245.517 140.136 245.554 140.073C245.592 140.01 245.649 139.961 245.717 139.933C245.785 139.905 245.86 139.9 245.931 139.919C245.957 139.924 245.981 139.934 246.003 139.947C246.151 140.024 246.322 140.045 246.484 140.004C246.646 139.964 246.788 139.865 246.882 139.728C246.895 139.706 246.911 139.686 246.93 139.668C246.984 139.618 247.053 139.588 247.126 139.58C247.199 139.573 247.273 139.589 247.336 139.627C247.399 139.665 247.448 139.722 247.476 139.79C247.504 139.858 247.509 139.933 247.491 140.005C247.483 140.029 247.474 140.053 247.462 140.076C247.385 140.224 247.364 140.395 247.405 140.556C247.445 140.718 247.544 140.859 247.682 140.953C247.703 140.967 247.723 140.984 247.739 141.003C247.784 141.057 247.811 141.123 247.816 141.192C247.822 141.262 247.805 141.332 247.77 141.392C247.734 141.452 247.681 141.499 247.618 141.528C247.554 141.557 247.483 141.565 247.415 141.552C247.389 141.547 247.365 141.538 247.343 141.526C247.195 141.448 247.024 141.427 246.862 141.467C246.7 141.507 246.558 141.606 246.464 141.743C246.45 141.765 246.433 141.785 246.414 141.803C246.359 141.851 246.291 141.881 246.218 141.888C246.146 141.895 246.073 141.878 246.01 141.841C245.948 141.803 245.899 141.746 245.871 141.679C245.843 141.612 245.837 141.537 245.855 141.466C245.86 141.445 245.866 141.424 245.874 141.404Z" fill="#FF5C00"/>
<path opacity="0.3" d="M11.7725 9.0795C11.8501 8.93159 11.8706 8.76029 11.8301 8.59824C11.7895 8.43619 11.6908 8.29469 11.5527 8.2007C11.5315 8.18658 11.5122 8.16972 11.4954 8.15055C11.4455 8.09676 11.4143 8.02822 11.4066 7.95521C11.399 7.88221 11.4152 7.80869 11.4529 7.7457C11.4906 7.68271 11.5477 7.63365 11.6157 7.60589C11.6836 7.57813 11.7588 7.57316 11.8298 7.59174C11.8547 7.59837 11.8788 7.60799 11.9014 7.6204C12.0494 7.698 12.2207 7.7185 12.3828 7.67799C12.5448 7.63747 12.6863 7.53878 12.7804 7.4007C12.795 7.37918 12.8118 7.35918 12.8305 7.341C12.8849 7.29247 12.9535 7.26264 13.0261 7.25587C13.0987 7.2491 13.1716 7.26575 13.2341 7.30339C13.2965 7.34103 13.3453 7.39767 13.3733 7.46503C13.4012 7.53238 13.4069 7.60691 13.3894 7.67771C13.3828 7.70266 13.3731 7.72672 13.3607 7.74936C13.2831 7.89727 13.2626 8.06857 13.3031 8.23062C13.3437 8.39267 13.4424 8.53416 13.5805 8.62816C13.6019 8.64201 13.6219 8.65801 13.6402 8.67592C13.6898 8.7302 13.7205 8.79904 13.7279 8.87219C13.7352 8.94535 13.7187 9.01892 13.6809 9.08197C13.6431 9.14502 13.5859 9.19417 13.5179 9.22212C13.4499 9.25008 13.3747 9.25533 13.3034 9.23712C13.2785 9.23049 13.2544 9.22087 13.2318 9.20846C13.0838 9.13086 12.9125 9.11036 12.7504 9.15087C12.5884 9.19139 12.4468 9.29008 12.3528 9.42816C12.3396 9.44933 12.3235 9.46861 12.3051 9.48548C12.2509 9.53466 12.1824 9.56515 12.1096 9.57245C12.0368 9.57976 11.9635 9.56349 11.9007 9.52604C11.8378 9.4886 11.7886 9.43196 11.7604 9.36446C11.7321 9.29697 11.7263 9.22219 11.7438 9.15115C11.7504 9.1262 11.7601 9.10214 11.7725 9.0795Z" fill="#FF5C00"/>
<path opacity="0.3" d="M0.36843 1.82755C0.445895 1.68 0.466312 1.50908 0.425784 1.34743C0.385255 1.18578 0.286621 1.04471 0.1487 0.951136C0.127464 0.937022 0.10819 0.920159 0.0913795 0.900987C0.0421889 0.846825 0.0116962 0.778299 0.00439195 0.705503C-0.0029123 0.632707 0.0133572 0.559489 0.0508067 0.496636C0.0882562 0.433783 0.144905 0.384617 0.212407 0.35638C0.279909 0.328143 0.354697 0.322328 0.425753 0.339793C0.450705 0.34642 0.474763 0.356043 0.497403 0.36845C0.645068 0.446286 0.816192 0.467155 0.97824 0.427089C1.14029 0.387022 1.28196 0.288815 1.37633 0.151136C1.39032 0.129769 1.40632 0.109779 1.42409 0.0914349C1.4779 0.0433889 1.54553 0.0136093 1.6173 0.00636558C1.68907 -0.000878184 1.7613 0.014786 1.82362 0.0511121C1.88594 0.0874382 1.93515 0.142561 1.96421 0.208578C1.99327 0.274595 2.00067 0.348115 1.98536 0.418599C1.97829 0.442634 1.96868 0.46585 1.9567 0.487853C1.87703 0.636505 1.8554 0.809438 1.896 0.97313C1.9366 1.13682 2.03653 1.27961 2.17643 1.37382C2.19767 1.38794 2.21694 1.4048 2.23375 1.42397C2.28686 1.47793 2.32038 1.5481 2.32898 1.62331C2.33757 1.69852 2.32076 1.77445 2.2812 1.839C2.24164 1.90354 2.18162 1.953 2.11069 1.97949C2.03977 2.00598 1.96202 2.00798 1.88983 1.98517C1.86455 1.97956 1.84035 1.96988 1.81817 1.95651C1.67013 1.87943 1.49898 1.85923 1.33704 1.89971C1.17511 1.94018 1.03361 2.03854 0.939252 2.17621C0.925172 2.19819 0.908315 2.21825 0.889097 2.23591C0.83466 2.28444 0.766115 2.31427 0.693498 2.32104C0.62088 2.32781 0.548003 2.31115 0.485535 2.27352C0.423067 2.23588 0.374288 2.17924 0.34634 2.11188C0.318392 2.04453 0.312742 1.96999 0.330217 1.8992C0.340765 1.87421 0.353554 1.85023 0.36843 1.82755Z" fill="#FF5C00"/>
<path opacity="0.3" d="M91.2141 54.4956C91.2916 54.348 91.312 54.1771 91.2715 54.0154C91.231 53.8538 91.1323 53.7127 90.9944 53.6191C90.9732 53.605 90.9539 53.5882 90.9371 53.569C90.8879 53.5148 90.8574 53.4463 90.8501 53.3735C90.8428 53.3007 90.8591 53.2275 90.8965 53.1646C90.934 53.1018 90.9906 53.0526 91.0581 53.0244C91.1256 52.9961 91.2004 52.9903 91.2715 53.0078C91.2964 53.0144 91.3205 53.024 91.3431 53.0364C91.4908 53.1143 91.6619 53.1352 91.8239 53.0951C91.986 53.055 92.1277 52.9568 92.222 52.8191C92.2353 52.7972 92.2513 52.7771 92.2698 52.7594C92.3241 52.7098 92.3929 52.6791 92.4661 52.6717C92.5393 52.6644 92.6129 52.6809 92.6759 52.7187C92.739 52.7565 92.7881 52.8137 92.8161 52.8817C92.844 52.9497 92.8493 53.0249 92.8311 53.0961C92.824 53.1202 92.8144 53.1434 92.8024 53.1654C92.7248 53.3133 92.7043 53.4846 92.7448 53.6467C92.7853 53.8087 92.8841 53.9502 93.0222 54.0442C93.0434 54.0583 93.0627 54.0752 93.0795 54.0944C93.1294 54.1481 93.1606 54.2167 93.1682 54.2897C93.1759 54.3627 93.1597 54.4362 93.122 54.4992C93.0843 54.5622 93.0272 54.6112 92.9592 54.639C92.8913 54.6668 92.8161 54.6717 92.7451 54.6532C92.7198 54.6476 92.6956 54.6379 92.6734 54.6245C92.5254 54.5474 92.3542 54.5272 92.1923 54.5677C92.0304 54.6082 91.8889 54.7065 91.7945 54.8442C91.7804 54.8662 91.7636 54.8862 91.7444 54.9039C91.6899 54.9524 91.6214 54.9823 91.5488 54.989C91.4761 54.9958 91.4033 54.9791 91.3408 54.9415C91.2783 54.9039 91.2295 54.8472 91.2016 54.7799C91.1736 54.7125 91.168 54.638 91.1855 54.5672C91.193 54.5425 91.2025 54.5186 91.2141 54.4956Z" fill="#FF5C00"/>
<path opacity="0.3" d="M49.0913 82.5528C49.1688 82.4052 49.1892 82.2343 49.1487 82.0727C49.1081 81.911 49.0095 81.77 48.8716 81.6764C48.8503 81.6623 48.8311 81.6454 48.8143 81.6262C48.7643 81.5724 48.7332 81.5039 48.7255 81.4309C48.7178 81.3579 48.7341 81.2844 48.7717 81.2214C48.8094 81.1584 48.8666 81.1093 48.9345 81.0816C49.0025 81.0538 49.0776 81.0488 49.1486 81.0674C49.1739 81.073 49.1981 81.0827 49.2203 81.0961C49.3683 81.1732 49.5395 81.1934 49.7014 81.1529C49.8634 81.1124 50.0049 81.0141 50.0992 80.8764C50.1132 80.855 50.1292 80.835 50.147 80.8167C50.2013 80.7671 50.2701 80.7363 50.3433 80.729C50.4164 80.7217 50.49 80.7381 50.5531 80.776C50.6161 80.8138 50.6653 80.871 50.6933 80.939C50.7212 81.007 50.7265 81.0822 50.7083 81.1534C50.7008 81.1781 50.6912 81.202 50.6796 81.225C50.6021 81.3726 50.5817 81.5435 50.6222 81.7052C50.6628 81.8668 50.7614 82.0079 50.8993 82.1015C50.9206 82.1156 50.9398 82.1324 50.9566 82.1516C51.0066 82.2054 51.0378 82.2739 51.0454 82.3469C51.0531 82.4199 51.0368 82.4935 50.9992 82.5565C50.9615 82.6194 50.9044 82.6685 50.8364 82.6963C50.7684 82.724 50.6933 82.729 50.6223 82.7104C50.597 82.7048 50.5728 82.6951 50.5506 82.6818C50.4026 82.6047 50.2314 82.5845 50.0695 82.625C49.9076 82.6654 49.766 82.7638 49.6717 82.9015C49.6577 82.9228 49.6417 82.9428 49.6239 82.9612C49.5696 83.0108 49.5008 83.0415 49.4276 83.0488C49.3545 83.0562 49.2809 83.0397 49.2178 83.0019C49.1548 82.9641 49.1056 82.9069 49.0776 82.8389C49.0497 82.7709 49.0444 82.6957 49.0627 82.6244C49.0701 82.5998 49.0797 82.5758 49.0913 82.5528Z" fill="#FF5C00"/>
<path opacity="0.3" d="M115.01 45.8603C115.07 45.7047 115.071 45.5324 115.012 45.3765C114.953 45.2206 114.838 45.0918 114.69 45.0149C114.667 45.0034 114.645 44.9889 114.626 44.9719C114.57 44.9244 114.53 44.8598 114.514 44.788C114.498 44.7162 114.505 44.641 114.535 44.5738C114.566 44.5066 114.617 44.4511 114.682 44.4156C114.746 44.3802 114.82 44.3667 114.893 44.3773C114.919 44.38 114.944 44.3864 114.967 44.3964C115.123 44.4559 115.296 44.4562 115.452 44.3972C115.608 44.3383 115.738 44.2241 115.815 44.0764C115.827 44.0535 115.842 44.0319 115.858 44.0119C115.907 43.9571 115.971 43.9193 116.043 43.904C116.114 43.8888 116.189 43.8968 116.255 43.927C116.322 43.9572 116.377 44.008 116.413 44.0718C116.448 44.1357 116.462 44.2093 116.453 44.2818C116.448 44.307 116.441 44.3318 116.431 44.3558C116.372 44.5117 116.372 44.684 116.432 44.8398C116.491 44.9956 116.606 45.1242 116.754 45.2012C116.776 45.2133 116.797 45.2277 116.816 45.2442C116.871 45.2924 116.908 45.3569 116.923 45.4281C116.939 45.4992 116.931 45.5734 116.901 45.6398C116.871 45.7062 116.821 45.7614 116.757 45.7972C116.694 45.8329 116.621 45.8475 116.549 45.8388C116.523 45.835 116.498 45.8286 116.474 45.8197C116.319 45.7598 116.147 45.7593 115.991 45.8183C115.835 45.8773 115.706 45.9918 115.629 46.1397C115.616 46.1622 115.602 46.1838 115.586 46.2042C115.538 46.2589 115.473 46.2968 115.401 46.312C115.33 46.3273 115.255 46.3193 115.189 46.2891C115.122 46.2589 115.067 46.2081 115.032 46.1442C114.996 46.0804 114.982 46.0068 114.991 45.9343C114.994 45.9089 115.001 45.884 115.01 45.8603Z" fill="#FF5C00"/>
<path opacity="0.3" d="M222.463 119.637C222.676 119.545 222.846 119.378 222.943 119.168C223.04 118.958 223.056 118.719 222.989 118.498C222.979 118.464 222.972 118.429 222.969 118.393C222.967 118.293 222.996 118.196 223.052 118.113C223.108 118.031 223.188 117.968 223.282 117.934C223.375 117.899 223.477 117.895 223.573 117.921C223.669 117.947 223.754 118.003 223.817 118.08C223.839 118.109 223.856 118.14 223.87 118.173C223.962 118.386 224.129 118.557 224.339 118.653C224.549 118.75 224.788 118.766 225.009 118.699C225.043 118.688 225.079 118.681 225.114 118.677C225.214 118.674 225.313 118.703 225.396 118.759C225.479 118.815 225.542 118.896 225.577 118.99C225.611 119.084 225.616 119.186 225.589 119.283C225.562 119.379 225.505 119.465 225.427 119.527C225.398 119.548 225.367 119.566 225.334 119.58C225.124 119.674 224.955 119.842 224.858 120.051C224.761 120.26 224.744 120.498 224.809 120.719C224.82 120.753 224.828 120.788 224.83 120.824C224.833 120.924 224.804 121.023 224.748 121.106C224.692 121.189 224.612 121.252 224.518 121.286C224.424 121.321 224.321 121.325 224.225 121.298C224.128 121.271 224.042 121.215 223.98 121.137C223.958 121.109 223.942 121.077 223.93 121.044C223.838 120.831 223.671 120.66 223.46 120.563C223.25 120.467 223.012 120.45 222.79 120.518C222.756 120.529 222.721 120.536 222.685 120.54C222.585 120.543 222.487 120.514 222.404 120.458C222.321 120.402 222.257 120.321 222.223 120.227C222.188 120.133 222.184 120.031 222.211 119.934C222.238 119.838 222.294 119.752 222.372 119.69C222.401 119.669 222.431 119.651 222.463 119.637Z" fill="#FF5C00"/>
<path opacity="0.3" d="M77.0246 128.683C77.2349 128.589 77.404 128.421 77.5005 128.212C77.5971 128.002 77.6147 127.765 77.5501 127.544C77.5383 127.511 77.5311 127.476 77.5286 127.441C77.525 127.341 77.5532 127.242 77.6091 127.159C77.665 127.075 77.7457 127.012 77.8399 126.977C77.934 126.942 78.0367 126.937 78.1335 126.964C78.2302 126.991 78.3161 127.048 78.3788 127.126C78.3995 127.155 78.4171 127.186 78.4314 127.219C78.523 127.432 78.69 127.603 78.9003 127.7C79.1106 127.797 79.3494 127.813 79.5706 127.745C79.6038 127.733 79.6384 127.727 79.6733 127.725C79.7729 127.723 79.8707 127.752 79.953 127.808C80.0354 127.864 80.0982 127.944 80.1326 128.038C80.1671 128.131 80.1715 128.233 80.1453 128.329C80.119 128.425 80.0634 128.51 79.9862 128.573C79.9582 128.594 79.9277 128.612 79.8954 128.626C79.6831 128.718 79.5121 128.885 79.4152 129.095C79.3182 129.305 79.3022 129.544 79.37 129.765C79.38 129.799 79.3864 129.834 79.3891 129.87C79.3914 129.969 79.3626 130.067 79.3066 130.15C79.2507 130.232 79.1703 130.295 79.0769 130.329C78.9835 130.364 78.8817 130.368 78.7856 130.342C78.6896 130.316 78.6041 130.26 78.5412 130.183C78.52 130.154 78.5024 130.123 78.4887 130.09C78.3942 129.879 78.2268 129.71 78.0174 129.614C77.808 129.517 77.5708 129.5 77.3494 129.564C77.3152 129.575 77.28 129.582 77.2443 129.586C77.1442 129.589 77.0457 129.56 76.9627 129.504C76.8797 129.448 76.8164 129.367 76.7818 129.273C76.7472 129.179 76.7431 129.077 76.7699 128.98C76.7968 128.884 76.8533 128.798 76.9315 128.736C76.9603 128.714 76.9916 128.697 77.0246 128.683Z" fill="#FF5C00"/>
<path opacity="0.3" d="M122.486 131.002C122.698 130.91 122.869 130.743 122.966 130.533C123.063 130.323 123.079 130.084 123.011 129.863C123.001 129.829 122.993 129.793 122.99 129.758C122.987 129.658 123.015 129.559 123.071 129.476C123.127 129.393 123.208 129.33 123.302 129.295C123.396 129.261 123.499 129.256 123.595 129.283C123.692 129.31 123.777 129.367 123.84 129.445C123.861 129.474 123.879 129.505 123.892 129.538C123.985 129.75 124.152 129.92 124.362 130.017C124.572 130.113 124.811 130.129 125.032 130.061C125.066 130.051 125.101 130.045 125.137 130.042C125.236 130.04 125.334 130.068 125.416 130.124C125.499 130.18 125.562 130.261 125.596 130.354C125.631 130.447 125.635 130.549 125.609 130.645C125.582 130.741 125.527 130.827 125.45 130.89C125.421 130.911 125.39 130.928 125.356 130.942C125.144 131.034 124.973 131.201 124.876 131.411C124.779 131.622 124.763 131.86 124.831 132.081C124.842 132.116 124.849 132.151 124.853 132.186C124.856 132.286 124.827 132.385 124.771 132.468C124.715 132.551 124.634 132.614 124.54 132.649C124.446 132.683 124.344 132.688 124.247 132.661C124.151 132.634 124.065 132.577 124.002 132.499C123.981 132.47 123.963 132.439 123.95 132.406C123.855 132.196 123.688 132.027 123.478 131.93C123.269 131.834 123.032 131.816 122.81 131.881C122.777 131.893 122.741 131.9 122.705 131.902C122.606 131.905 122.508 131.876 122.426 131.82C122.343 131.764 122.281 131.683 122.246 131.59C122.212 131.497 122.207 131.395 122.233 131.299C122.26 131.203 122.315 131.117 122.393 131.054C122.421 131.033 122.453 131.016 122.486 131.002Z" fill="#FF5C00"/>
<path opacity="0.1" d="M29.1078 28.6065C31.2843 28.6065 33.0486 26.8424 33.0486 24.6663C33.0486 22.4901 31.2843 20.726 29.1078 20.726C26.9314 20.726 25.167 22.4901 25.167 24.6663C25.167 26.8424 26.9314 28.6065 29.1078 28.6065Z" fill="#FF5C00"/>
<path opacity="0.1" d="M225.618 32.5469C227.794 32.5469 229.558 30.7827 229.558 28.6066C229.558 26.4304 227.794 24.6663 225.618 24.6663C223.441 24.6663 221.677 26.4304 221.677 28.6066C221.677 30.7827 223.441 32.5469 225.618 32.5469Z" fill="#FF5C00"/>
<path opacity="0.1" d="M47.7369 7.25249C48.9241 7.25249 49.8865 6.29023 49.8865 5.10323C49.8865 3.91623 48.9241 2.95398 47.7369 2.95398C46.5498 2.95398 45.5874 3.91623 45.5874 5.10323C45.5874 6.29023 46.5498 7.25249 47.7369 7.25249Z" fill="#FF5C00"/>
<path opacity="0.1" d="M253.364 69.7981C254.551 69.7981 255.513 68.8359 255.513 67.6489C255.513 66.4619 254.551 65.4996 253.364 65.4996C252.177 65.4996 251.214 66.4619 251.214 67.6489C251.214 68.8359 252.177 69.7981 253.364 69.7981Z" fill="#FF5C00"/>
<path opacity="0.1" d="M33.0482 179.819C34.2354 179.819 35.1978 178.856 35.1978 177.669C35.1978 176.482 34.2354 175.52 33.0482 175.52C31.8611 175.52 30.8987 176.482 30.8987 177.669C30.8987 178.856 31.8611 179.819 33.0482 179.819Z" fill="#FF5C00"/>
<path opacity="0.1" d="M41.2885 189.497C42.4756 189.497 43.438 188.535 43.438 187.348C43.438 186.161 42.4756 185.199 41.2885 185.199C40.1013 185.199 39.1389 186.161 39.1389 187.348C39.1389 188.535 40.1013 189.497 41.2885 189.497Z" fill="#FF5C00"/>
<path opacity="0.1" d="M25.1669 195.331C26.354 195.331 27.3164 194.369 27.3164 193.182C27.3164 191.995 26.354 191.033 25.1669 191.033C23.9797 191.033 23.0173 191.995 23.0173 193.182C23.0173 194.369 23.9797 195.331 25.1669 195.331Z" fill="#FF5C00"/>
</g>
<defs>
<linearGradient id="paint0_linear" x1="139.361" y1="111.178" x2="135.101" y2="84.4588" gradientUnits="userSpaceOnUse">
<stop stop-color="#808080" stop-opacity="0.25"/>
<stop offset="0.54" stop-color="#808080" stop-opacity="0.12"/>
<stop offset="1" stop-color="#808080" stop-opacity="0.1"/>
</linearGradient>
<linearGradient id="paint1_linear" x1="5401.52" y1="4142.25" x2="6209.09" y2="4142.25" gradientUnits="userSpaceOnUse">
<stop stop-color="#808080" stop-opacity="0.25"/>
<stop offset="0.54" stop-color="#808080" stop-opacity="0.12"/>
<stop offset="1" stop-color="#808080" stop-opacity="0.1"/>
</linearGradient>
<clipPath id="clip0">
<rect width="255.513" height="200" fill="white"/>
</clipPath>
</defs>
</svg>
