<svg width="223" height="200" viewBox="0 0 223 200" fill="none" xmlns="http://www.w3.org/2000/svg">
<g clip-path="url(#clip0)">
<path d="M116.494 200C156.975 200 189.791 195.012 189.791 188.859C189.791 182.706 156.975 177.718 116.494 177.718C76.0133 177.718 43.197 182.706 43.197 188.859C43.197 195.012 76.0133 200 116.494 200Z" fill="#F2F2F2"/>
<path d="M162.546 149.421C163.331 149.707 164.171 149.806 165 149.711C165.83 149.616 166.626 149.33 167.326 148.874C168.026 148.419 168.61 147.808 169.034 147.088C169.457 146.368 169.708 145.56 169.765 144.727C169.823 143.894 169.687 143.059 169.367 142.287C169.047 141.516 168.552 140.829 167.922 140.282C167.292 139.734 166.543 139.341 165.735 139.132C164.926 138.923 164.08 138.905 163.264 139.079L163.399 141.855L162.086 139.476C160.798 140.082 159.803 141.174 159.319 142.514C159.147 142.983 159.043 143.474 159.009 143.972C158.926 145.142 159.227 146.306 159.865 147.29C160.503 148.273 161.444 149.021 162.546 149.421Z" fill="#57B894"/>
<path d="M169.042 181.612C168.578 179.251 170.586 177.159 172.569 175.799C174.553 174.438 176.87 173.102 177.547 170.794C178.519 167.476 175.622 164.438 173.368 161.818C171.695 159.874 170.258 157.738 169.088 155.456C168.619 154.54 168.188 153.584 168.064 152.563C167.887 151.092 168.359 149.629 168.835 148.226C170.42 143.554 172.114 138.92 173.918 134.326" stroke="#3F3D56" stroke-miterlimit="10"/>
<path d="M162.768 148.707C163.552 148.992 164.393 149.091 165.222 148.996C166.051 148.901 166.847 148.615 167.547 148.16C168.247 147.705 168.832 147.093 169.255 146.373C169.679 145.654 169.929 144.845 169.987 144.012C170.045 143.179 169.908 142.344 169.589 141.573C169.269 140.801 168.774 140.115 168.144 139.567C167.513 139.02 166.765 138.626 165.956 138.417C165.148 138.209 164.302 138.191 163.486 138.365L163.621 141.14L162.308 138.762C161.02 139.367 160.024 140.46 159.541 141.799C159.369 142.268 159.265 142.759 159.231 143.258C159.148 144.427 159.448 145.592 160.087 146.575C160.725 147.558 161.666 148.307 162.768 148.707Z" stroke="#3F3D56" stroke-miterlimit="10"/>
<path d="M168.382 133.367C168.689 132.518 169.206 131.759 169.884 131.161C170.562 130.564 171.38 130.147 172.261 129.948L172.705 132.587L173.528 129.815C174.671 129.832 175.778 130.212 176.691 130.9C177.603 131.587 178.274 132.547 178.606 133.641C178.938 134.735 178.913 135.906 178.536 136.985C178.159 138.064 177.449 138.995 176.509 139.644C175.569 140.294 174.446 140.627 173.304 140.596C172.162 140.566 171.059 140.173 170.154 139.474C169.25 138.776 168.591 137.808 168.272 136.71C167.954 135.613 167.992 134.442 168.382 133.367Z" fill="#57B894"/>
<path d="M168.678 132.415C168.986 131.565 169.503 130.806 170.181 130.208C170.859 129.611 171.677 129.194 172.558 128.995L173.002 131.634L173.825 128.863C174.967 128.879 176.075 129.259 176.988 129.947C177.9 130.635 178.571 131.595 178.903 132.688C179.234 133.782 179.21 134.953 178.833 136.032C178.456 137.111 177.746 138.042 176.806 138.692C175.865 139.341 174.743 139.674 173.601 139.643C172.459 139.613 171.356 139.22 170.451 138.521C169.547 137.823 168.888 136.855 168.569 135.757C168.25 134.66 168.289 133.489 168.678 132.415H168.678Z" stroke="#3F3D56" stroke-miterlimit="10"/>
<path d="M172.421 161.872C173.665 162.323 175.032 162.301 176.261 161.809C177.49 161.317 178.495 160.39 179.085 159.205C179.674 158.019 179.807 156.658 179.458 155.381C179.109 154.104 178.302 153 177.192 152.28L176.559 154.409L176.111 151.739C176.106 151.737 176.102 151.736 176.097 151.734C175.432 151.492 174.725 151.384 174.018 151.415C173.31 151.447 172.616 151.617 171.974 151.917C171.333 152.217 170.757 152.64 170.279 153.163C169.801 153.686 169.431 154.297 169.189 154.963C168.948 155.629 168.84 156.336 168.871 157.044C168.903 157.751 169.074 158.446 169.374 159.087C169.674 159.729 170.098 160.305 170.621 160.783C171.143 161.261 171.755 161.631 172.421 161.872H172.421Z" fill="#57B894"/>
<path d="M172.677 160.907C173.921 161.358 175.288 161.336 176.517 160.844C177.746 160.352 178.751 159.425 179.34 158.24C179.93 157.054 180.063 155.693 179.714 154.416C179.365 153.139 178.558 152.035 177.447 151.314L176.815 153.444L176.367 150.774C176.362 150.772 176.358 150.77 176.353 150.769C175.687 150.527 174.981 150.419 174.273 150.45C173.566 150.481 172.871 150.652 172.23 150.951C171.588 151.251 171.012 151.675 170.534 152.197C170.056 152.72 169.686 153.332 169.444 153.998C169.203 154.664 169.095 155.371 169.127 156.079C169.158 156.786 169.329 157.481 169.629 158.122C169.93 158.764 170.353 159.34 170.876 159.818C171.399 160.296 172.011 160.666 172.677 160.907V160.907Z" stroke="#3F3D56" stroke-miterlimit="10"/>
<path d="M166.809 170.827C167.023 172.045 167.649 173.152 168.582 173.963C169.515 174.773 170.699 175.239 171.934 175.28C173.169 175.322 174.381 174.937 175.367 174.191C176.352 173.445 177.051 172.382 177.347 171.182C177.642 169.981 177.516 168.715 176.989 167.597C176.462 166.478 175.567 165.575 174.454 165.038C173.34 164.502 172.076 164.365 170.873 164.65C169.67 164.935 168.602 165.625 167.848 166.604L170.249 170.22L166.968 168.301C166.714 169.118 166.659 169.984 166.809 170.827Z" fill="#57B894"/>
<path d="M167.032 170.112C167.245 171.33 167.871 172.437 168.805 173.248C169.738 174.059 170.921 174.524 172.156 174.566C173.392 174.607 174.604 174.223 175.589 173.477C176.575 172.73 177.274 171.668 177.569 170.467C177.865 169.266 177.738 168.001 177.211 166.882C176.685 165.764 175.789 164.86 174.676 164.324C173.562 163.787 172.298 163.65 171.096 163.935C169.893 164.22 168.825 164.91 168.07 165.89L170.472 169.506L167.19 167.586C166.936 168.403 166.881 169.27 167.032 170.112Z" stroke="#3F3D56" stroke-miterlimit="10"/>
<path d="M151.97 29.4945C152.173 25.618 153.855 21.9672 156.67 19.295C159.485 16.6228 163.217 15.133 167.098 15.133C167.558 15.133 168.013 15.157 168.463 15.1972C170.232 12.1518 172.769 9.62413 175.821 7.86663C178.873 6.10912 182.332 5.18331 185.853 5.18164C189.374 5.17998 192.835 6.10252 195.888 7.85714C198.941 9.61175 201.481 12.137 203.253 15.1808C203.633 15.1522 204.015 15.133 204.402 15.133C208.282 15.133 212.015 16.6228 214.829 19.295C217.644 21.9672 219.326 25.618 219.529 29.4945" fill="#F2F2F2"/>
<path d="M155.126 28.3288C155.329 24.4523 157.011 20.8014 159.826 18.1292C162.64 15.457 166.373 13.9673 170.253 13.9672C170.714 13.9672 171.168 13.9912 171.618 14.0314C173.388 10.986 175.925 8.45836 178.977 6.70086C182.028 4.94335 185.487 4.01754 189.009 4.01587C192.53 4.01421 195.99 4.93675 199.043 6.69137C202.097 8.44598 204.636 10.9713 206.409 14.015C206.788 13.9865 207.171 13.9672 207.557 13.9672C211.438 13.9673 215.17 15.457 217.985 18.1292C220.8 20.8014 222.482 24.4523 222.685 28.3288" stroke="#3F3D56" stroke-miterlimit="10"/>
<path d="M41.8953 101.522C42.0981 97.6459 43.7803 93.995 46.5949 91.3228C49.4096 88.6506 53.142 87.1609 57.0224 87.1608C57.4828 87.1608 57.9374 87.1848 58.3874 87.225C60.1569 84.1796 62.6942 81.652 65.7459 79.8945C68.7976 78.137 72.2568 77.2111 75.778 77.2095C79.2993 77.2078 82.7593 78.1304 85.8127 79.885C88.866 81.6396 91.4057 84.1649 93.1781 87.2086C93.5577 87.1801 93.9398 87.1608 94.3267 87.1608C98.2071 87.1609 101.94 88.6506 104.754 91.3228C107.569 93.995 109.251 97.6459 109.454 101.522" fill="#F2F2F2"/>
<path d="M45.0508 100.357C45.2536 96.4801 46.9358 92.8293 49.7504 90.1571C52.5651 87.4849 56.2975 85.9951 60.178 85.995C60.6383 85.995 61.093 86.019 61.5429 86.0593C63.3124 83.0139 65.8498 80.4862 68.9014 78.7287C71.9531 76.9712 75.4123 76.0454 78.9335 76.0437C82.4548 76.042 85.9148 76.9646 88.9682 78.7192C92.0215 80.4738 94.5612 82.9991 96.3336 86.0428C96.7132 86.0143 97.0953 85.995 97.4822 85.995C101.363 85.9951 105.095 87.4849 107.91 90.1571C110.724 92.8293 112.407 96.4801 112.609 100.357" stroke="#3F3D56" stroke-miterlimit="10"/>
<path d="M9.77881 25.6082C9.98161 21.7317 11.6638 18.0808 14.4785 15.4086C17.2931 12.7364 21.0256 11.2467 24.906 11.2466C25.3664 11.2466 25.821 11.2706 26.2709 11.3109C28.0405 8.26546 30.5778 5.73778 33.6294 3.98027C36.6811 2.22277 40.1403 1.29696 43.6616 1.29529C47.1828 1.29362 50.6429 2.21617 53.6962 3.97078C56.7495 5.7254 59.2892 8.25068 61.0617 11.2944C61.4412 11.2659 61.8234 11.2466 62.2102 11.2466C66.0907 11.2467 69.8231 12.7365 72.6378 15.4087C75.4524 18.0809 77.1346 21.7317 77.3374 25.6082" fill="#F2F2F2"/>
<path d="M12.9343 24.4424C13.1371 20.5659 14.8193 16.9151 17.634 14.2429C20.4486 11.5707 24.1811 10.0809 28.0615 10.0808C28.5219 10.0808 28.9765 10.1049 29.4264 10.1451C31.196 7.09968 33.7333 4.57201 36.785 2.8145C39.8366 1.057 43.2958 0.131184 46.8171 0.129519C50.3383 0.127853 53.7984 1.0504 56.8517 2.80501C59.905 4.55963 62.4447 7.08491 64.2172 10.1286C64.5968 10.1001 64.9789 10.0808 65.3657 10.0808C69.2462 10.0809 72.9786 11.5707 75.7933 14.2429C78.6079 16.9151 80.2901 20.5659 80.4929 24.4424" stroke="#3F3D56" stroke-miterlimit="10"/>
<path d="M76.4192 56.3458C76.4192 56.3458 103.645 69.8698 108.527 67.9915C113.409 66.1131 115.099 49.396 115.099 49.396L95.0081 45.6393L76.4192 56.3458Z" fill="#FF5C00"/>
<path opacity="0.1" d="M76.4192 56.3458C76.4192 56.3458 103.645 69.8698 108.527 67.9915C113.409 66.1131 115.099 49.396 115.099 49.396L95.0081 45.6393L76.4192 56.3458Z" fill="black"/>
<path d="M132.842 36.1536H115.005V51.7437H132.842V36.1536Z" fill="#FF6584"/>
<path opacity="0.1" d="M132.842 36.1536H115.005V51.7437H132.842V36.1536Z" fill="black"/>
<path d="M98.7624 102.553C98.7624 102.553 98.0113 118.894 103.081 118.519C108.151 118.143 103.081 103.116 103.081 103.116L98.7624 102.553Z" fill="#FBBEBE"/>
<path d="M119.605 38.5015C119.605 38.5015 120.732 45.6391 118.666 46.5783C116.601 47.5175 115.286 48.2688 115.286 48.2688L119.981 51.462L128.618 52.0255L130.871 50.335L132.936 48.4566C132.936 48.4566 129.557 47.7053 129.557 46.0148C129.557 44.3243 129.369 39.2528 129.369 39.2528L119.605 38.5015Z" fill="#FBBEBE"/>
<path opacity="0.1" d="M119.605 38.5015C119.605 38.5015 120.732 45.6391 118.666 46.5783C116.601 47.5175 115.286 48.2688 115.286 48.2688L119.981 51.462L128.618 52.0255L130.871 50.335L132.936 48.4566C132.936 48.4566 129.557 47.7053 129.557 46.0148C129.557 44.3243 129.369 39.2528 129.369 39.2528L119.605 38.5015Z" fill="black"/>
<path d="M107.776 105.37C107.776 105.37 102.33 122.839 102.33 135.611C102.33 135.611 93.3176 155.897 93.6931 165.853L91.4399 179.564L94.632 180.691L97.0729 178.625C97.0729 178.625 97.824 171.3 100.265 167.731C102.706 164.162 108.339 147.257 108.339 147.257C108.339 147.257 123.36 115.701 122.797 111.193C122.234 106.685 107.776 105.37 107.776 105.37Z" fill="#FBBEBE"/>
<path d="M141.01 101.426C141.01 101.426 144.577 103.116 139.508 133.17C139.508 133.17 142.324 153.08 139.883 163.974L139.508 174.869H135.565L134.814 173.742C134.814 173.742 134.626 163.974 133.311 161.345C131.997 158.715 130.87 143.5 130.87 143.5C130.87 143.5 124.862 112.508 126.176 109.878C127.491 107.248 141.01 101.426 141.01 101.426Z" fill="#FBBEBE"/>
<path d="M90.8763 176.371C90.8763 176.371 92.1907 179.376 94.6316 178.625C97.0726 177.874 97.6359 177.874 97.6359 177.874C97.6359 177.874 95.946 186.514 96.5093 190.646C97.0726 194.779 96.1338 197.408 92.3784 197.408C88.6231 197.408 88.0598 192.9 88.0598 192.9L89.7497 182.194L90.8763 176.371Z" fill="#2F2E41"/>
<path d="M134.063 171.675C134.063 171.675 135.377 174.305 137.443 173.741C139.508 173.178 140.259 172.239 140.259 172.239C140.259 172.239 140.072 178.062 140.823 180.691C141.574 183.321 143.264 190.834 139.32 191.21C138.238 191.342 137.141 191.12 136.194 190.579C135.247 190.037 134.499 189.205 134.063 188.205V171.675L134.063 171.675Z" fill="#2F2E41"/>
<path d="M124.675 43.3852C129.238 43.3852 132.937 39.6849 132.937 35.1205C132.937 30.5561 129.238 26.8558 124.675 26.8558C120.112 26.8558 116.413 30.5561 116.413 35.1205C116.413 39.6849 120.112 43.3852 124.675 43.3852Z" fill="#FBBEBE"/>
<path d="M139.884 49.9593C139.884 49.9593 133.34 47.3887 130.979 47.7349C129.962 48.5996 128.776 49.2438 127.497 49.6267C126.218 50.0096 124.874 50.1229 123.549 49.9593C119.042 49.3958 117.28 47.2324 117.28 47.2324C117.28 47.2324 105.147 49.9593 105.898 51.0863C106.65 52.2133 110.029 70.621 110.029 70.621C110.029 70.621 112.283 86.5868 109.654 92.034C107.025 97.4812 105.711 106.497 106.837 107.248C107.964 108 120.544 111.381 122.046 112.32C123.549 113.259 124.112 110.066 125.051 110.629C125.99 111.193 128.055 112.132 129.369 111.381C130.684 110.629 143.452 103.867 143.076 102.553C142.701 101.238 137.819 85.272 136.129 82.0788C134.439 78.8857 135.753 72.1237 136.692 70.8088C137.631 69.494 139.509 67.9913 139.884 64.2347C140.26 60.478 139.884 49.9593 139.884 49.9593Z" fill="#2F2E41"/>
<path d="M106.312 50.5059C106.312 50.5059 104.772 51.6499 104.208 54.0917C103.645 56.5335 102.894 76.0682 102.894 76.0682C102.894 76.0682 95.9466 102.928 97.4488 103.492C98.9509 104.055 103.27 105.182 103.833 104.619C104.396 104.055 110.78 81.3275 110.217 78.8857C109.654 76.4439 110.968 69.3062 110.968 69.3062L106.312 50.5059Z" fill="#2F2E41"/>
<path d="M141.011 85.4599C141.011 85.4599 130.871 80.3884 129.745 83.7694C128.618 87.1504 140.447 90.7192 140.447 90.7192C140.447 90.7192 144.578 89.2166 144.578 88.2774C144.578 87.3382 141.011 85.4599 141.011 85.4599Z" fill="#FBBEBE"/>
<path d="M137.819 50.7108L139.884 49.9594C139.884 49.9594 141.011 49.2081 142.325 52.0256C143.64 54.8431 157.91 71.3724 155.281 76.6318C152.653 81.8911 144.015 92.5976 143.64 91.8463C143.264 91.0949 138.946 85.4599 139.697 84.8964C140.448 84.3329 149.085 76.6318 147.958 75.5048C146.832 74.3778 142.138 64.7983 139.509 64.4226C136.88 64.0469 137.819 50.7108 137.819 50.7108Z" fill="#2F2E41"/>
<path d="M115.568 34.8388C115.568 34.8388 86.9359 23.3222 62.1507 12.24C62.1507 12.24 49.1949 9.04682 42.4353 15.0575C42.4353 15.0575 48.0683 14.3061 48.0683 17.4993C48.0683 17.4993 52.9502 23.8857 37.7411 25.0127C27.149 25.7975 22.9318 32.1396 21.3475 35.9178C20.1106 38.9507 17.9363 41.5082 15.1424 43.2165C11.4816 45.4052 6.1758 47.0155 0 44.1716C0 44.1716 0.351096 44.7116 1.01708 45.6113C12.941 61.7196 57.3448 75.7388 73.0251 63.2602C82.7155 55.5484 98.0777 45.8012 109.09 50.7107C126.365 58.4119 129.557 55.0309 129.557 55.0309L130.308 52.9647C130.308 52.9647 113.597 48.4567 113.221 42.6339C112.846 36.8111 115.568 34.8388 115.568 34.8388Z" fill="#FF5C00"/>
<path d="M132.279 36.3414C132.279 36.3414 136.316 37.938 137.067 43.1974C137.067 43.1974 141.386 51.6499 136.504 53.716C131.622 55.7822 130.683 55.2187 130.683 55.2187V54.2795C130.683 54.2795 135.941 51.0864 134.814 48.6445C133.687 46.2027 132.279 36.3414 132.279 36.3414Z" fill="#FF5C00"/>
<path d="M125.05 60.2903C125.05 60.2903 126.364 56.9093 125.989 56.9093C125.613 56.9093 127.517 54.8298 128.255 55.5878C128.993 56.3458 130.308 58.5998 128.805 59.1633C127.303 59.7267 125.05 60.2903 125.05 60.2903Z" fill="#FF5C00"/>
<path d="M134.304 58.2833C134.304 58.2833 130.872 57.1126 130.887 57.4879C130.903 57.8633 128.746 56.049 129.472 55.279C130.198 54.5091 132.393 53.1002 133.02 54.5777C133.646 56.0552 134.304 58.2833 134.304 58.2833Z" fill="#FF5C00"/>
<path d="M128.806 53.1525C128.806 53.1525 130.52 52.1899 131.54 53.7043C132.561 55.2187 130.308 57.8483 128.806 57.8483C127.303 57.8483 127.303 54.6552 127.303 54.6552L128.806 53.1525Z" fill="#FF5C00"/>
<path opacity="0.1" d="M128.806 53.1525C128.806 53.1525 130.52 52.1899 131.54 53.7043C132.561 55.2187 130.308 57.8483 128.806 57.8483C127.303 57.8483 127.303 54.6552 127.303 54.6552L128.806 53.1525Z" fill="black"/>
<path d="M117.512 21.6337C116.522 22.4501 115.583 23.3649 114.968 24.491C114.645 25.1225 114.375 25.7798 114.161 26.456C113.402 28.642 111.514 30.856 112.313 33.0279C112.541 33.6476 112.896 34.301 112.692 34.9289C112.511 35.4866 111.95 35.812 111.545 36.2359C110.676 37.1457 110.53 38.5107 110.476 39.7684C110.379 42.0715 111.645 44.7855 113.175 46.5096C113.507 46.8339 113.815 47.1824 114.095 47.5521C114.285 47.8469 114.408 48.179 114.458 48.5258C114.508 48.8727 114.482 49.2262 114.384 49.5623L116.612 49.0971C116.692 49.92 116.717 50.7475 116.687 51.5738C117.215 51.6319 117.748 51.506 118.194 51.2174C118.641 50.9288 118.974 50.495 119.138 49.9893C119.264 50.5785 119.47 51.1478 119.75 51.6813C120.404 50.8635 120.905 49.9348 121.23 48.9395C121.656 47.6646 121.748 46.3015 121.496 44.981C121.26 44.0166 120.939 43.0751 120.536 42.1674C119.749 40.1769 119.106 38.1328 118.464 36.0907C118.13 35.0302 117.793 33.9351 117.894 32.8279L118.686 32.7417C118.694 32.3044 118.779 31.8719 118.935 31.4635C119.4 31.5617 119.846 31.7298 120.26 31.962L121.172 29.6451C121.775 30.2701 122.639 30.553 123.467 30.8137L126.614 31.8048L126.633 31.1819C127.961 32.358 129.474 33.3072 131.11 33.9914C131.018 33.8797 130.95 33.7497 130.912 33.6099C130.874 33.47 130.866 33.3237 130.889 33.1806C131.664 34.5702 131.354 36.3012 130.876 37.8189C130.397 39.3366 129.762 40.8817 129.955 42.4613C130.099 43.6428 130.704 44.7727 130.592 45.9576C130.537 46.5411 130.309 47.0963 130.238 47.6781C130.069 49.0657 130.798 50.3871 131.502 51.5946L132.871 49.7139C133.372 49.0256 133.888 48.3224 134.598 47.8519C135.326 47.3689 136.228 47.1522 136.863 46.5514C137.996 45.479 137.852 43.652 137.484 42.1359C137.288 41.33 137.051 40.5126 137.123 39.6864C137.245 38.2857 138.218 37.1268 138.766 35.832C139.156 34.888 139.326 33.867 139.261 32.8474C139.196 31.8277 138.898 30.8365 138.391 29.9497C137.711 28.783 136.683 27.8434 136.043 26.6546C135.405 25.4713 135.162 24.0633 134.288 23.0421C133.861 22.5774 133.364 22.1818 132.816 21.8694C130.332 20.3765 127.542 19.4659 124.656 19.2063C121.919 18.92 119.61 19.904 117.512 21.6337Z" fill="#FF6584"/>
</g>
<defs>
<clipPath id="clip0">
<rect width="222.814" height="200" fill="white"/>
</clipPath>
</defs>
</svg>
