<svg width="160" height="121" viewBox="0 0 160 121" fill="none" xmlns="http://www.w3.org/2000/svg">
<g clip-path="url(#clip0)">
<rect width="159.682" height="120" transform="translate(0 0.701416)" fill="white"/>
<path opacity="0.4" d="M134.77 46.8367C136.883 46.8367 138.596 45.1239 138.596 43.0111C138.596 40.8982 136.883 39.1854 134.77 39.1854C132.656 39.1854 130.943 40.8982 130.943 43.0111C130.943 45.1239 132.656 46.8367 134.77 46.8367Z" fill="#FF5C00"/>
<path opacity="0.4" d="M54.0979 25.7894C57.1103 25.7894 59.5522 23.3477 59.5522 20.3358C59.5522 17.3239 57.1103 14.8822 54.0979 14.8822C51.0855 14.8822 48.6436 17.3239 48.6436 20.3358C48.6436 23.3477 51.0855 25.7894 54.0979 25.7894Z" fill="#FF5C00"/>
<path opacity="0.4" d="M44.0039 26.7662C46.117 26.7662 47.8301 25.0534 47.8301 22.9405C47.8301 20.8277 46.117 19.1149 44.0039 19.1149C41.8908 19.1149 40.1777 20.8277 40.1777 22.9405C40.1777 25.0534 41.8908 26.7662 44.0039 26.7662Z" fill="#FF5C00"/>
<path d="M137.974 85.7917C134.951 89.1011 134.841 93.922 134.841 93.922C134.841 93.922 139.633 93.3772 142.656 90.0677C145.679 86.7583 145.789 81.9375 145.789 81.9375C145.789 81.9375 140.997 82.4823 137.974 85.7917Z" fill="#3F3D56"/>
<path d="M139.683 86.744C138.768 91.1318 134.923 94.0419 134.923 94.0419C134.923 94.0419 132.56 89.8379 133.475 85.4501C134.39 81.0623 138.236 78.1522 138.236 78.1522C138.236 78.1522 140.598 82.3562 139.683 86.744Z" fill="#FF5C00"/>
<path d="M135.756 41.4675V93.7745L118.318 108.178H29.1055V53.3441L55.1362 41.4675H135.756Z" fill="#3F3D56"/>
<path opacity="0.1" d="M135.756 41.4675V41.6771L129.496 45.8668L118.318 53.3441H29.1055L55.1362 41.4675H135.756Z" fill="black"/>
<path opacity="0.1" d="M135.755 41.4675V93.7745L118.317 108.178L118.444 53.2177L129.495 45.8668L135.654 41.4675H135.755Z" fill="black"/>
<path d="M112.252 48.6691H57.916L61.9596 46.3949H114.021L112.252 48.6691Z" fill="#2F2E41"/>
<path d="M159.149 111.023C159.149 111.023 160.202 115.427 159.245 115.619C158.287 115.81 153.595 115.749 152.446 115.94C151.296 116.132 148.902 115.81 148.902 114.949C148.902 114.087 151.392 113.512 151.392 113.512C151.392 113.512 154.935 111.597 155.031 111.502C155.127 111.406 159.149 111.023 159.149 111.023Z" fill="#2F2E41"/>
<path d="M158.286 85.0753C158.286 85.0753 157.999 88.3307 157.999 88.618C157.999 88.9052 158.286 93.4054 157.999 93.5969C157.712 93.7884 158.191 95.1288 158.191 95.6076C158.191 96.0863 159.723 104.033 159.34 107.097C158.957 110.161 159.914 109.874 159.627 110.161C159.34 110.449 159.34 110.449 159.34 111.023C159.34 111.597 156.275 112.076 156.275 112.076L152.924 90.9159L154.648 84.5966L158.286 85.0753Z" fill="#575A89"/>
<path opacity="0.1" d="M158.286 85.0753C158.286 85.0753 157.999 88.3307 157.999 88.618C157.999 88.9052 158.286 93.4054 157.999 93.5969C157.712 93.7884 158.191 95.1288 158.191 95.6076C158.191 96.0863 159.723 104.033 159.34 107.097C158.957 110.161 159.914 109.874 159.627 110.161C159.34 110.449 159.34 110.449 159.34 111.023C159.34 111.597 156.275 112.076 156.275 112.076L152.924 90.9159L154.648 84.5966L158.286 85.0753Z" fill="black"/>
<path d="M157.808 112.364C157.808 112.364 158.766 115.81 157.808 116.002C156.85 116.193 152.158 115.783 151.009 115.974C149.86 116.166 147.466 116.193 147.466 115.332C147.466 114.47 149.956 113.895 149.956 113.895C149.956 113.895 153.499 111.981 153.595 111.885C153.69 111.789 157.808 112.364 157.808 112.364Z" fill="#2F2E41"/>
<path d="M159.148 81.2454C159.148 81.2454 160.297 84.0221 158.956 85.4583C157.616 86.8945 156.083 89.7669 156.083 89.9584C156.083 90.1499 158.765 109.204 158.382 110.448C157.999 111.693 158.094 112.459 158.19 112.651C158.286 112.842 157.232 113.895 156.083 113.895C154.934 113.895 153.211 113.034 153.019 112.268C152.827 111.502 153.306 104.895 153.211 103.65C153.115 102.406 152.636 100.586 152.444 100.203C152.253 99.8205 151.2 99.4375 151.008 98.2885C150.816 97.1395 149.284 82.4901 149.763 82.0113C150.242 81.5326 159.148 81.2454 159.148 81.2454Z" fill="#575A89"/>
<path d="M151.87 59.2234C153.668 59.2234 155.126 57.7659 155.126 55.968C155.126 54.17 153.668 52.7125 151.87 52.7125C150.072 52.7125 148.614 54.17 148.614 55.968C148.614 57.7659 150.072 59.2234 151.87 59.2234Z" fill="#FFB9B9"/>
<path d="M153.881 57.5957C153.881 57.5957 153.211 61.1383 153.69 61.5213C154.168 61.9043 150.051 62.4788 150.051 62.4788C150.051 62.4788 149.572 57.7871 149.476 57.3084C149.38 56.8297 153.881 57.5957 153.881 57.5957Z" fill="#FFB9B9"/>
<path d="M149.477 62.1915C149.477 62.1915 150.626 58.8403 155.318 59.7978C155.318 59.7978 156.18 60.085 155.893 60.3723C155.605 60.6595 155.318 60.6595 155.701 60.9468C156.084 61.234 156.563 60.9468 156.276 61.234C155.988 61.5212 158.861 63.2447 158.67 66.5001C158.478 69.7556 159.34 74.3515 158.67 75.1175C157.999 75.8834 159.149 79.2346 158.957 79.9049C158.765 80.5751 160.106 81.4368 159.532 81.7241C158.957 82.0113 148.615 83.7348 148.328 81.7241C148.04 79.7134 148.232 81.1496 147.944 80.6708C147.657 80.1921 147.561 79.3304 147.753 78.2771C147.944 77.2239 148.423 74.6387 148.232 73.6812C148.04 72.7238 148.232 64.6809 148.806 63.7235C149.381 62.766 149.477 62.1915 149.477 62.1915Z" fill="#FF5C00"/>
<path d="M151.487 85.5541C151.487 85.5541 152.924 91.0117 151.104 91.0117C149.285 91.0117 149.381 85.3625 149.381 85.3625L151.487 85.5541Z" fill="#FFB9B9"/>
<path d="M150.434 55.9679C150.434 56.2455 150.836 56.4217 151.459 56.4619H151.46C151.724 56.4769 151.99 56.4718 152.253 56.4466C152.651 56.4102 152.816 56.7846 152.884 57.2787C152.995 58.0935 152.84 59.2357 153.019 59.4148C153.266 59.6618 155.067 59.4138 155.631 58.8537C155.718 58.7751 155.777 58.6691 155.796 58.5531C155.855 58.211 156.024 57.8975 156.277 57.6597C156.609 57.2968 157.082 56.8947 157.616 56.2551C158.573 55.1061 157.616 55.0104 157.328 54.1487C157.041 53.2869 156.562 52.9997 156.562 52.4252C156.562 51.8507 154.36 51.372 152.54 51.4677C150.721 51.5635 151.104 53.8614 151.104 53.8614C151.104 53.8614 150.996 54.1391 150.866 54.4972C150.692 54.9465 150.549 55.408 150.441 55.8779C150.437 55.9077 150.434 55.9377 150.434 55.9679Z" fill="#2F2E41"/>
<path opacity="0.1" d="M150.817 63.6278C150.817 63.6278 154.073 63.4363 154.36 68.2237C154.647 73.0111 154.552 77.5112 154.552 77.607C154.552 77.7027 153.211 86.7988 151.966 86.7988C150.721 86.7988 149.764 86.6073 149.476 86.1285C149.189 85.6498 150.242 78.7559 150.242 78.7559C150.242 78.7559 150.721 71.4791 149.955 69.1811C149.189 66.8832 149.093 63.915 150.817 63.6278Z" fill="black"/>
<path d="M150.338 63.149C150.338 63.149 153.593 62.9575 153.881 67.7449C154.168 72.5323 154.072 77.0325 154.072 77.1282C154.072 77.224 152.732 86.32 151.487 86.32C150.242 86.32 149.284 86.1285 148.997 85.6498C148.71 85.171 149.763 78.2772 149.763 78.2772C149.763 78.2772 150.242 71.0003 149.476 68.7024C148.71 66.4044 148.614 63.4362 150.338 63.149Z" fill="#FF5C00"/>
<path d="M96.3488 16.3462C96.3488 16.3462 94.9299 12.3265 93.9051 13.5876C92.8803 14.8487 95.4817 16.9768 95.4817 16.9768L96.3488 16.3462Z" fill="#A0616A"/>
<path d="M103.049 12.4053L102.196 12.7216C102.196 12.7216 101.788 14.5334 101.946 14.8486C102.103 15.1639 102.182 14.9275 101.946 15.558C101.709 16.1886 101 17.8437 100.921 18.0802C100.842 18.3167 96.3486 16.5827 96.3486 15.7157C96.3486 15.7157 95.4027 16.8191 94.9297 17.0556C94.9297 17.0556 100.132 20.8388 100.842 21.3118C101.551 21.7847 101.946 21.5482 102.576 20.9965C103.207 20.4448 105.887 15.8733 105.887 15.8733L103.049 12.4053Z" fill="#575A89"/>
<path d="M100.763 40.3859C100.763 40.3859 100.841 41.2529 100.999 41.3317C101.157 41.4105 102.339 43.381 100.999 43.775C99.6591 44.1691 98.8708 44.0115 98.5554 44.1691C98.2401 44.3268 92.7221 44.642 92.6433 43.775C92.5644 42.908 95.3235 42.7504 95.3235 42.7504C95.3235 42.7504 97.846 41.0952 98.2401 40.2282C98.6343 39.3612 100.763 40.3859 100.763 40.3859Z" fill="#2F2E41"/>
<path d="M116.765 41.9623C116.765 41.9623 118.657 45.1938 118.184 45.5879C117.711 45.982 113.105 47.4182 112.43 47.4796C111.563 47.5584 110.932 46.849 111.641 46.4549C112.351 46.0608 113.849 44.4056 113.849 43.8539V42.4352L116.765 41.9623Z" fill="#2F2E41"/>
<path d="M118.579 20.8389C118.579 20.8389 120.234 22.8882 117.633 26.1985L113.297 31.7158C113.297 31.7158 115.977 35.972 116.056 38.1789C116.135 40.3859 116.687 39.913 116.844 40.8588C117.002 41.8046 117.711 41.3317 117.16 42.0411C116.608 42.7504 114.558 43.381 113.928 42.8292C113.711 42.6308 113.541 42.3861 113.432 42.1131C113.323 41.8402 113.277 41.5461 113.297 41.2529C113.297 40.9376 112.193 39.1248 112.115 38.573C112.036 38.0213 109.119 33.5287 109.119 33.5287C109.119 33.5287 108.173 30.8488 109.277 29.3513C110.38 27.8537 111.11 25.7298 111.11 25.7298C111.11 25.7298 107.858 29.6665 105.572 30.6124C105.572 30.6124 104.705 30.77 104.862 31.1641C105.02 31.5582 104.862 31.7946 104.626 32.1887C104.389 32.5828 102.734 37.1543 102.182 38.3366C101.63 39.5189 101.867 40.2282 101.236 40.6223C100.605 41.0164 97.7676 40.7011 97.7676 40.3071C97.7676 39.913 98.1617 38.8883 98.3982 38.3366C98.6347 37.7849 100.527 31.4006 100.369 30.2971C100.211 29.1936 100.448 27.6961 101.63 27.0655C102.813 26.435 108.804 21.3118 109.119 21.3118C109.434 21.3118 118.579 20.8389 118.579 20.8389Z" fill="#2F2E41"/>
<path d="M102.734 8.46439C104.562 8.46439 106.045 6.98228 106.045 5.15401C106.045 3.32574 104.562 1.84363 102.734 1.84363C100.905 1.84363 99.4229 3.32574 99.4229 5.15401C99.4229 6.98228 100.905 8.46439 102.734 8.46439Z" fill="#A0616A"/>
<path d="M105.414 5.46924C105.414 5.46924 106.439 7.28207 107.7 7.51853C108.961 7.75499 104.389 11.3806 104.389 11.3806C104.389 11.3806 103.285 7.91262 102.339 7.75499C101.393 7.59735 105.414 5.46924 105.414 5.46924Z" fill="#A0616A"/>
<path d="M102.183 12.8782C102.183 13.9029 105.257 16.8191 105.257 16.8191L108.174 19.2625C108.174 19.2625 108.252 20.1295 108.568 20.2083C108.883 20.2872 109.277 20.2872 108.962 20.7601C108.647 21.233 107.858 22.2576 108.568 22.4153C108.782 22.4478 108.997 22.4683 109.213 22.4767C109.403 22.4878 109.625 22.498 109.875 22.5075C110.458 22.528 111.188 22.5414 111.979 22.5359C112.203 22.5351 112.432 22.5324 112.665 22.528C115.645 22.4689 119.098 22.126 118.816 20.9965C118.343 19.1049 118.658 18.4743 117.633 17.4497C116.608 16.4251 114.953 12.8782 114.953 12.8782C114.953 12.8782 111.642 7.28209 108.883 7.28209L108.31 7.13155C108.044 7.06141 107.762 7.0768 107.505 7.17553C107.248 7.27427 107.029 7.45135 106.878 7.68171C106.324 8.52428 105.452 9.7901 104.942 10.1984C104.153 10.8289 104.03 10.3765 104.03 10.3765C104.03 10.3765 102.183 11.8536 102.183 12.8782Z" fill="#575A89"/>
<path d="M109.198 24.8586C109.198 24.8586 106.912 28.4055 108.33 29.036C109.749 29.6666 110.538 25.3316 110.538 25.3316L109.198 24.8586Z" fill="#A0616A"/>
<path d="M104.898 4.78004C104.771 4.76401 104.731 4.60371 104.71 4.47745C104.595 3.80132 104.091 3.16017 103.414 3.05102C103.155 3.0166 102.892 3.0378 102.642 3.11322C102.284 3.21147 101.948 3.37689 101.652 3.60068C101.507 3.73317 101.339 3.83844 101.157 3.91144C101.033 3.94791 100.505 4.1824 100.382 4.22208C100.111 4.3093 99.8867 4.5929 99.6076 4.53675C99.3406 4.48303 99.2392 4.16065 99.1963 3.89174C99.0985 3.2791 99.4493 2.36498 99.7979 1.85182C100.063 1.46241 100.51 1.23829 100.958 1.09249C101.483 0.933305 102.021 0.826235 102.567 0.772837C103.303 0.685875 104.066 0.639738 104.772 0.867339C105.478 1.09494 106.12 1.65171 106.252 2.38136C106.279 2.53335 106.285 2.68903 106.318 2.83977C106.4 3.20751 106.644 3.51662 106.786 3.86564C106.888 4.12197 106.936 4.39691 106.925 4.67274C106.915 4.94857 106.847 5.21916 106.725 5.46707C106.529 5.86231 106.187 6.24212 106.261 6.67733L105.652 6.19773C105.564 6.14779 105.496 6.06922 105.459 5.97512C105.422 5.88103 105.419 5.7771 105.449 5.6807L105.538 4.91911C105.568 4.78113 105.555 4.63701 105.498 4.50735C105.228 4.03511 105.11 4.80677 104.898 4.78004Z" fill="#2F2E41"/>
<path opacity="0.1" d="M110.617 19.4202L109.874 22.5075C110.623 22.5343 111.614 22.5485 112.664 22.528C112.929 21.7335 113.182 20.9051 113.376 20.1295C114.085 17.2921 112.903 12.9571 112.272 10.9078C111.641 8.85849 110.065 8.30676 110.065 8.30676C109.418 8.53404 108.808 8.85254 108.252 9.25259C107.227 9.96195 110.617 19.4202 110.617 19.4202Z" fill="black"/>
<path opacity="0.1" d="M109.986 19.2625L109.213 22.4767C109.402 22.4877 109.624 22.498 109.874 22.5074C110.458 22.5279 111.188 22.5413 111.978 22.5358C112.263 21.6917 112.538 20.801 112.745 19.9718C113.455 17.1344 112.272 12.7993 111.642 10.7501C111.011 8.70079 109.632 10.9471 109.632 10.9471C109.632 10.9471 110.183 9.60719 109.159 10.3166C108.134 11.0259 109.986 19.2625 109.986 19.2625Z" fill="black"/>
<path d="M109.75 8.14905C109.75 8.14905 111.327 8.70078 111.957 10.7501C112.588 12.7993 113.77 17.1344 113.061 19.9718C112.352 22.8093 110.854 26.3561 110.854 26.3561C110.854 26.3561 109.356 25.2527 108.804 25.4891L110.302 19.2625C110.302 19.2625 106.912 9.80424 107.937 9.09487C108.493 8.69482 109.104 8.37632 109.75 8.14905Z" fill="#575A89"/>
<path d="M110.925 47.6838L89.1157 2.24219L52.6484 19.7397L66.0602 47.6838H110.925Z" fill="#F2F2F2"/>
<path d="M81.7353 20.079L62.3662 29.3726L62.9431 30.5746L82.3122 21.2811L81.7353 20.079Z" fill="#3F3D56"/>
<path d="M86.8632 30.7639L67.4941 40.0575L68.0711 41.2595L87.4401 31.966L86.8632 30.7639Z" fill="#3F3D56"/>
<path d="M90.386 13.7921L85.5771 16.0995L87.8848 20.9077L92.6937 18.6003L90.386 13.7921Z" fill="#3F3D56"/>
<path d="M95.513 24.4771L90.7041 26.7844L93.0118 31.5926L97.8207 29.2853L95.513 24.4771Z" fill="#3F3D56"/>
<path d="M90.7177 10.4617L88.7372 16.0957L86.0675 15.1575L85.7021 16.1968L89.4078 17.4989L91.7569 10.827L90.7177 10.4617Z" fill="#57B894"/>
<path d="M95.8454 21.1465L93.8649 26.7805L91.1954 25.8425L90.8301 26.8816L94.5356 28.1837L96.8848 21.5118L95.8454 21.1465Z" fill="#57B894"/>
<path d="M2.10463 99.9844L11.958 97.8799L9.85325 88.0279L-0.000133516 90.1323L2.10463 99.9844Z" fill="#F2F2F2"/>
<path d="M11.6834 85.3955C11.6834 85.3955 8.06423 87.9803 9.27062 89.0142C10.477 90.0481 12.8898 85.9125 12.8898 85.9125L11.6834 85.3955Z" fill="#FFB9B9"/>
<path d="M28.4009 89.3588C28.4009 89.3588 27.7115 97.9747 27.5392 99.1809C27.3669 100.387 27.1945 111.243 26.8498 112.449C26.5051 113.656 26.1605 116.585 26.1605 116.585H24.0924C24.0924 116.585 24.2647 111.243 23.7477 109.175C23.2307 107.108 23.403 101.421 23.403 101.421C23.403 101.421 22.369 91.2543 22.886 89.8758C23.403 88.4972 28.4009 89.3588 28.4009 89.3588Z" fill="#FFB9B9"/>
<path d="M25.6437 116.068C25.6437 116.068 26.5054 116.585 26.5054 116.93C26.5054 117.274 26.3331 118.136 26.5054 118.48C26.6778 118.825 27.8842 120.204 27.1948 120.548C26.5054 120.893 23.4033 120.548 23.4033 120.548C23.4033 120.548 23.5757 118.136 23.748 117.963C23.9203 117.791 23.5757 116.068 23.5757 116.068H25.6437Z" fill="#2F2E41"/>
<path d="M15.2265 89.1476C15.2265 89.1476 15.0076 97.7882 15.0524 99.0059C15.0971 100.224 14.1288 111.038 14.345 112.273C14.5611 113.509 14.5964 116.459 14.5964 116.459L16.6531 116.676C16.6531 116.676 17.0425 111.345 17.7737 109.343C18.5049 107.341 18.9305 101.668 18.9305 101.668C18.9305 101.668 21.0262 91.6657 20.6567 90.2405C20.2873 88.8153 15.2265 89.1476 15.2265 89.1476Z" fill="#FFB9B9"/>
<path d="M15.1651 115.999C15.1651 115.999 14.2539 116.422 14.2177 116.765C14.1815 117.108 14.2625 117.983 14.0549 118.307C13.8473 118.632 12.5029 119.876 13.1523 120.291C13.8016 120.707 16.9228 120.689 16.9228 120.689C16.9228 120.689 17.0047 118.272 16.8514 118.083C16.6981 117.893 17.2218 116.216 17.2218 116.216L15.1651 115.999Z" fill="#2F2E41"/>
<path d="M25.9876 76.4349C25.9876 76.4349 27.3663 76.6073 27.8834 79.5367C28.4004 82.4661 30.2961 89.8757 28.7451 90.3927C27.194 90.9096 22.5408 91.9435 22.3684 91.5989C22.1961 91.2543 21.8514 90.3927 21.8514 90.3927C21.8514 90.3927 22.3684 91.9435 21.6791 91.9435C20.9897 91.9435 14.2684 90.9096 14.4408 90.3927C14.6131 89.8757 14.9578 86.0847 14.9578 86.0847C14.9578 86.0847 15.9918 79.709 17.0259 78.6751C17.3251 78.3878 17.5575 78.0382 17.7064 77.651C17.8553 77.2639 17.9172 76.8487 17.8876 76.4349H25.9876Z" fill="#2F2E41"/>
<path d="M28.5728 75.0565C28.5728 75.0565 26.3324 74.5395 25.9877 75.2288C25.643 75.918 26.8494 76.952 27.3664 76.952C27.8835 76.952 28.7452 76.435 28.7452 76.435L28.5728 75.0565Z" fill="#FFB9B9"/>
<path d="M23.9205 60.4094C25.6338 60.4094 27.0226 59.0207 27.0226 57.3076C27.0226 55.5946 25.6338 54.2059 23.9205 54.2059C22.2072 54.2059 20.8184 55.5946 20.8184 57.3076C20.8184 59.0207 22.2072 60.4094 23.9205 60.4094Z" fill="#FFB9B9"/>
<path d="M23.4031 59.5478C23.4031 59.5478 22.8861 61.9602 23.2307 61.9602C23.5754 61.9602 20.6456 63.5111 20.6456 63.5111L18.4052 63.1664L17.7158 62.1325C17.7158 62.1325 21.335 59.7201 21.335 58.3415C21.335 56.963 23.4031 59.5478 23.4031 59.5478Z" fill="#FFB9B9"/>
<path d="M21.852 61.9602C21.852 61.9602 22.3691 61.6156 22.5414 61.6156H23.9201C24.0925 61.6156 26.3329 62.1325 26.3329 62.1325L27.7116 69.8868C27.7116 69.8868 25.2989 73.8501 27.0223 76.9519C27.0223 76.9519 26.5053 76.6072 24.0925 76.7796C21.6797 76.9519 17.3712 77.4688 17.1988 77.4688C17.0265 77.4688 17.0265 76.0903 17.1988 75.7456C17.3712 75.401 17.0265 75.5733 17.0265 74.7117C17.0265 73.8501 16.5095 72.2993 16.5095 72.2993L14.0967 63.5111C14.0967 63.5111 17.1988 61.7879 17.7158 61.9602C18.2329 62.1325 19.7839 62.6495 20.1286 62.4772C20.4733 62.3049 21.852 61.9602 21.852 61.9602Z" fill="#FF5C00"/>
<path d="M25.8154 62.3049L26.3324 62.1326C26.3324 62.1326 27.3665 61.9603 28.5729 62.9942C29.7793 64.0281 34.2602 67.1298 34.2602 67.1298C34.2602 67.1298 35.9836 68.5083 35.4666 70.0592C34.9495 71.6101 34.0878 75.401 31.5027 75.2287C31.5027 75.2287 29.9516 77.2965 29.0899 76.9519C28.2282 76.6073 27.5388 75.2287 28.0559 75.0564C28.5729 74.8841 29.9516 73.1609 29.9516 73.1609L28.2282 69.8869H27.7112L25.8154 68.853L25.8154 62.3049Z" fill="#FF5C00"/>
<path d="M15.4752 63.3389L14.0965 63.5112C14.0965 63.5112 12.8901 64.0281 13.0624 66.2683C13.2348 68.5084 12.0284 78.6751 12.5454 79.8814C12.5454 79.8814 10.822 85.7402 11.1667 85.9125C11.5114 86.0848 13.5795 87.1187 13.4071 86.4294C13.2348 85.7401 15.3029 80.9153 15.3029 80.9153C15.3029 80.9153 17.7156 78.3305 16.6816 74.7118V71.7824L15.4752 63.3389Z" fill="#FF5C00"/>
<path d="M26.5024 60.3065L24.3115 60.7837L24.0299 59.7051L24.1382 60.8215L20.6038 61.5914L20.4483 60.9959L20.5081 61.6122L18.2443 62.1053L17.7601 57.4573C17.2622 55.55 19.0792 53.5172 20.9868 53.0194L21.833 52.7986C23.2341 52.433 25.7808 52.7654 26.1464 54.1662C25.5064 56.6086 24.4154 59.2861 26.5024 60.3065Z" fill="#2F2E41"/>
</g>
<defs>
<clipPath id="clip0">
<rect width="159.682" height="120" fill="white" transform="translate(0 0.701416)"/>
</clipPath>
</defs>
</svg>
